<svg xmlns="http://www.w3.org/2000/svg" width="199.965" height="191.157" viewBox="0 0 199.965 191.157">
  <g id="_5" data-name="5" transform="translate(-390.382 -248.424)">
    <path id="Path_124" data-name="Path 124" d="M390.6,327.652c-3.238,17.932,30.881,34.846,31.4,47.484s-12.9,12.431-9.032,26.58,25.547,22.579,33.03,26.515S463.252,440.1,478.219,437s16.691,6.435,31.484.7,37.547-2.6,47.225-7.41,33.419-30.981,33.419-58.006-25.742-16.768-26.322-27.478,10.193-12.688,9.935-29.024-49.716-8.655-55.654-12.911-23.623-22.69-50.821-19.971-34.426,22.881-49.394,19.713-27.27,7.307-27.492,25.034Z" fill="#f9ebc4" fill-rule="evenodd"/>
    <path id="Path_125" data-name="Path 125" d="M440.322,425.448c.989-15.437,3.021-34.3,6.016-43.9,4.387-14.063,14.514-24.9,19.321-28l13.968-33.9s15.088-5.838,25.77-4.353,13-1.164,16.423,4.353,5.742,7.646,5.613,15.323-1.226,11.812-2.193,13.422a23.778,23.778,0,0,0-1.613,3.29s17.225,6.585,27.031,23.226c6.39,10.843,12.505,30.893,16.348,47.314-3.884,3.96-7.486,6.783-10.078,8.072-9.678,4.81-32.432,1.677-47.225,7.41s-16.516-3.8-31.484-.7-24.741-4.838-32.225-8.773c-1.44-.758-3.408-1.683-5.672-2.783Z" fill="#99f" fill-rule="evenodd"/>
    <path id="Path_126" data-name="Path 126" d="M527.509,434.2c-.237-.452-.985-.74-2.27-1.957-2.561-2.424-1.513-6.788,0-9.358s2.076-3.637,0-6.207a10.172,10.172,0,0,1-2.29-7.127c0-2.279,1.547-3.637,1.547-6.449s-.965-3.055-1.014-6.11S525.239,390,525.239,390c0,2.157.992,6.4,1.1,8.7s4.15,15.637,5.158,19.053c.87,2.951,3.113,9.656,4.869,15.83-2.9.177-5.883.357-8.853.617Z" fill="#7c7ce2" fill-rule="evenodd"/>
    <path id="Path_127" data-name="Path 127" d="M447.3,428.943h0a24.962,24.962,0,0,1,.472-6.552c.679-2.861,1.084-1.794,2.248-3.831s.807-2.569.613-5.333.97-4.315,2.619-5.842a23.013,23.013,0,0,0,3.309-4.413c0,1.479-2.68,9.989-2.68,11.492s-1.49,11.114-1.847,15.129c-.051.58-.132,1.239-.232,1.946-1.594-.909-3.089-1.8-4.5-2.6Z" fill="#7c7ce2" fill-rule="evenodd"/>
    <path id="Path_128" data-name="Path 128" d="M474.985,259.62c-.161-.613-.807-.869-.419-2.031s.741-.936.967-2.162,0-1.065.645-1.71.775-.451,1.549-1.064.419-.484,1.258-.936,2.677-2.677,3.645-2.355,1.548-.742,2.194-.387-.065-1.34,1.709-.073,2.42.783,2.968,1.622a13.951,13.951,0,0,1,1.258,2.322c.291.71.323,0,.968,1.176s1.387.889,1.387,2.115v2.1c0,1.033,1.129,3.936,0,4.194s-.968.645-1.29,1.226-.613.452-1.129.968-.323,1.645-1.9,1.483-13.807-6.484-13.807-6.484Z" fill="#ff8733" fill-rule="evenodd"/>
    <path id="Path_129" data-name="Path 129" d="M437.856,282.106s1.162-7.872,5.742-11.678,19.161-12.839,23.935-12.839,9.742,1.419,17.678,5.871,9.226,5.291,10.387,8.065,7.671,18.708,1.613,27.1a278.033,278.033,0,0,0-28.4-15.162c-14.024-6.256-30.95-1.353-30.95-1.353Z" fill="#f93" fill-rule="evenodd"/>
    <path id="Path_130" data-name="Path 130" d="M431.233,307.645s6.451,32.645,13.677,41.677,16.516,11.741,22.58,10.838a32.19,32.19,0,0,0,11.419-4.451,44.808,44.808,0,0,1,4.839,7.031c1.484,3.032,1.548,9.549,1.548,9.549s6.258-16.387,8.194-18.968,6.451-7.935,6.451-7.935S487.3,313.128,479.3,301.9L457.1,299.45l-25.87,8.195Z" fill="#df9f85" fill-rule="evenodd"/>
    <path id="Path_131" data-name="Path 131" d="M478.909,355.709a44.808,44.808,0,0,1,4.839,7.031,16.465,16.465,0,0,1,1.19,4.7h0c5.022-11.831,2.351-14.134,3.466-23.832-1.746,4.51-9.495,12.1-9.495,12.1Z" fill="#c05c5d" fill-rule="evenodd"/>
    <path id="Path_132" data-name="Path 132" d="M466.4,360.608a3.281,3.281,0,0,0,.653,1.8c1.686,2.291,3.474,2.749,4.733,2.729a5.47,5.47,0,0,1-6.179-2.224,5.045,5.045,0,0,1-.693-2.349.743.743,0,1,1,1.486.043Z" fill="#7c7ce2" fill-rule="evenodd"/>
    <path id="Path_133" data-name="Path 133" d="M454.546,338.814a.743.743,0,1,1-1.486,0,86.4,86.4,0,0,0-.661-10.347c1.523,2.269,2.147,8.5,2.147,10.347Z" fill="#c05c5d" fill-rule="evenodd"/>
    <path id="Path_134" data-name="Path 134" d="M427.555,307.386c1.548,4,.774,4.968,1.677,6.322s.851,2.995,3.877,2.466a10.176,10.176,0,0,0,5.091-1.885c2.258-1.29,2.967-.207,4.257-2.458s1.1-3.542,3.355-3.542,3.033.193,4.775-.9.128-1.742,3.612-3.032,9-1.162,10.194-1.033c6.578.712,1.638,5.3,10.129,3.549,4.191-.864,4.478.18,5.806,1.419,2.67,2.49,3.887,4.462,7.629,2.966l5.322,12.806-1.653,1.55,5.228,12.166s1.263-.539,1.1-3.249,1.093-1.129.014-3.677-1.273-1.227-1.208-3.227a25.193,25.193,0,0,1,.989-5.041l-6.6-23.133L456.44,285.624l-21.032,8.645s-4.175,4.388-4.175,6.323.3,1.612-1.245,3.161-2.433.451-2.433,3.633Z" fill="#006" fill-rule="evenodd"/>
    <path id="Path_135" data-name="Path 135" d="M439.549,338.524c1.669,4.532,3.489,8.458,5.361,10.8,7.226,9.032,16.516,11.741,22.58,10.838a29.458,29.458,0,0,0,8.372-2.752c6.2-5.612,8.233-13.138,8.973-14.271,1.032-1.581,3.29-5.36,4.677-8.1.86-1.7,2.166-4.771,3.034-6.865.035-.085,1.528-2.695,1.562-2.776-1.328.1-1.8,1.019-2.242,1.19,0,0-1.9,4.065-3.66,7s-3.662,5.4-4.388,5.162-1.758-3.355-3.4-5.71-3.822-5.475-3.887-6.33,2.936-6.1,5.517-11.658a13.03,13.03,0,0,1,2.674-3.925c-.344-.661,4.842-1.309,4.5-1.94-4.245-1.6-7.093,1.668-7.966,3.235-2.678,4.806-5.719,12.98-7.179,13.224-1.935.322-8.489,8.9-18.645,12.13a31.258,31.258,0,0,1-15.882.747Z" fill="#fff" fill-rule="evenodd"/>
    <path id="Path_136" data-name="Path 136" d="M431.233,292.075c-1.439,4-1.53,8.516,0,9.032s2.11,1.2,7.4-1.657,16.257-5.029,25.1-3.828,20.773,5.786,26,12.667,4.545,8.044,6.176,7.817,1.655-4.807,2.846-9.065,1.261-7.806.462-9.386-2.9-7.807-14.258-12.969-26.775-8.193-35.226-7.419-12.517,3.256-14.646,5.806-3.849,9-3.849,9Z" fill="#ff8733" fill-rule="evenodd"/>
    <path id="Path_137" data-name="Path 137" d="M483.949,362.8a16.977,16.977,0,0,1,1.346,7.357c1.876-4.553,4.615-10.631,5.188-11.837,3.294-6.925,5.609-7.525,8.892-13.859,2.567-4.954,6.308-9.537,5.82-12.553-.534-3.3-2.563-3.733-4.528-3.937,1.587-.5,5.448.541,5.957,3.375.651,3.626-3.368,8.855-5.917,13.773-3.371,6.505-5.394,6.968-8.891,13.859-.33.651-3.887,8.512-5.719,13.041-.2.488-1.2,2.831-2.125,4.627a25.754,25.754,0,0,1-.2-4.825,18.1,18.1,0,0,0-1.116-8.283c-.66-1.529-1.61-3.958-2.736-5.061,1.971.643,3.665,3.512,4.033,4.323Z" fill="#7c7ce2" fill-rule="evenodd"/>
    <path id="Path_138" data-name="Path 138" d="M519.268,345.96c-.584,1.98-1.472,3.743-2.374,6.462-.426,1.284-1.764,3.143-2.136,6a12.569,12.569,0,0,1,.938-6.97c.849-2.441,1.657-4.1,2.178-5.976a36.757,36.757,0,0,0,1.271-7.121c.889.8.45,6.494.123,7.6Z" fill="#7c7ce2" fill-rule="evenodd"/>
    <path id="Path_139" data-name="Path 139" d="M516.817,323.667a13.127,13.127,0,0,1,.746,7.016,24.786,24.786,0,0,0-1.907-6.035c-1.284-2.82-2.984-3.862-3.952-4.115,1.251-.654,4.434,1.792,5.113,3.134Z" fill="#7c7ce2" fill-rule="evenodd"/>
    <path id="Path_140" data-name="Path 140" d="M478.111,364.309c-.511,4.433-3.942,20.492-2.573,24.2l.076.2a.744.744,0,0,1-1.4.515l-.151-.409.06.124c-1.557-4.169,1.932-19.8,2.5-24.6a.743.743,0,0,1,1.486-.03Z" fill="#fff" fill-rule="evenodd"/>
    <path id="Path_141" data-name="Path 141" d="M476.356,389.092c-1.254,1.2-.671.669-1.738,1.6a.743.743,0,1,1-1.468-.231,11.622,11.622,0,0,1,2.263-2.524.744.744,0,0,1,.943,1.15Z" fill="#fff" fill-rule="evenodd"/>
    <path id="Path_142" data-name="Path 142" d="M476.737,390.534a1.468,1.468,0,0,0-.342.334.743.743,0,0,1-1.424-.424c.292-.694.973-1.473,1.8-1.354a.744.744,0,0,1-.035,1.444Z" fill="#fff" fill-rule="evenodd"/>
    <path id="Path_143" data-name="Path 143" d="M498.238,363.324c-2.629,12.872-.671,16.067,2.752,27.25a.743.743,0,1,1-1.439.37c-3.574-11.669-5.463-14.945-2.667-28.233a.743.743,0,1,1,1.354.613Z" fill="#fff" fill-rule="evenodd"/>
    <path id="Path_144" data-name="Path 144" d="M499,390.612a6.832,6.832,0,0,1,3.171.492.743.743,0,0,1-.761,1.277A6.594,6.594,0,0,0,499,392.1a.743.743,0,0,1,0-1.487Z" fill="#fff" fill-rule="evenodd"/>
    <path id="Path_145" data-name="Path 145" d="M499.48,391.919a2.686,2.686,0,0,1,1.683.794.743.743,0,1,1-1.075,1.027,1.75,1.75,0,0,0-.608-.335.743.743,0,1,1,0-1.486Z" fill="#fff" fill-rule="evenodd"/>
    <path id="Path_146" data-name="Path 146" d="M442.03,325.358a.869.869,0,0,1-.016-.161h0v-.022h0v-.02h0l0-.02h0v-.022l0-.021,0-.017v-.005l0-.015v-.006l0-.014v-.007l0-.014V325l0-.014,0-.007,0-.013,0-.007,0-.013,0-.007,0-.013,0-.007,0-.013,0-.007.005-.012,0-.008,0-.011,0-.008.006-.012,0-.007.005-.012,0-.007.006-.012,0-.006.006-.013,0-.005.01-.018.008-.014,0,0,.009-.015,0,0,.01-.015v0l.011-.015v0l.012-.016h0l.013-.017h0l.012-.015,0,0,.012-.013,0,0,.011-.013,0,0,.01-.011.005-.005.009-.009.006-.006.009-.009.007-.006.008-.007a.855.855,0,0,1,.185-.129l.014-.007,0,0,.014-.007.005,0,.014-.006.005,0,.014-.006.005,0,.014-.005.006,0,.014,0,.005,0,.014-.005.006,0,.014,0,.006,0,.014,0,.007,0,.012,0,.008,0,.012,0,.021,0,.009,0,.011,0h.01l.01,0h.02l.013,0h.153l.019,0h0l.022,0,.016,0h0l.016,0h.005l.015,0h.006l.014,0,.007,0,.013,0,.007,0,.013,0,.008,0,.012,0,.008,0,.012,0,.008,0,.012,0,.008,0,.011,0,.008,0,.012.005.007,0,.012.005.007,0,.012.006.007,0,.012.006.006,0,.013.007.006,0,.018.01.013.008.005,0,.014.009,0,0,.015.01h0l.016.011h0l.016.012h0l.016.013h0l.015.013h0l.014.012c5.267,4.288-.549,9.862-1.4.807Z" fill="#231f20" fill-rule="evenodd"/>
    <path id="Path_147" data-name="Path 147" d="M443.293,314.084c.629,3.666-2.736,6.994-6.513,7.253a.743.743,0,1,1,0-1.486c2.782-.191,5.5-2.838,5.08-5.372a.743.743,0,0,1,1.433-.395Z" fill="#231f20" fill-rule="evenodd"/>
    <path id="Path_148" data-name="Path 148" d="M453.346,311.466c2.251,2.887,6.495,2.519,9.286.508a.743.743,0,1,1,1.02,1.081c-3.624,2.621-8.642,2.956-11.548-.772a.743.743,0,1,1,1.242-.817Z" fill="#231f20" fill-rule="evenodd"/>
    <path id="Path_149" data-name="Path 149" d="M483.554,313.257s1.032-4.968,7.419-4.968,8.258,6.451,7.677,10.838-2.968,8.839-9.032,8.065l-6.064-13.935Z" fill="#df9f85" fill-rule="evenodd"/>
    <path id="Path_150" data-name="Path 150" d="M489.73,313.722a3.2,3.2,0,0,0-1.07,4.6,2.774,2.774,0,0,1,3.976.606c1.748,2.59-2.26,4.242-2.979,3.468,1.16.042,2.872-1.516,1.662-2.871-1.426-.771-2.6,1.142-3.37.395-2.643-2.558-1.284-5.971,1.113-7.466,3.793-2.367,6.651,1.377,5.963,2.638-.44-.946-1.924-3.308-5.295-1.366Z" fill="#c05c5d" fill-rule="evenodd"/>
    <path id="Path_151" data-name="Path 151" d="M457.948,320.445a.891.891,0,0,1-.014-.154h0v-.021h0v-.019h0v-.019h0v-.021l0-.021,0-.015v-.005l0-.015v-.005l0-.014v-.006l0-.014,0-.006,0-.013v-.006l0-.013,0-.007,0-.012,0-.007,0-.012,0-.007,0-.012,0-.007,0-.011,0-.008.005-.011,0-.007.005-.012,0-.006,0-.012,0-.006.006-.012,0-.006.006-.012,0-.005.01-.017.007-.013,0-.005.008-.013,0,0,.009-.014,0,0,.01-.014h0l.012-.016h0l.012-.015h0l.012-.014v0l.011-.013,0,0,.01-.012,0,0,.01-.01,0-.005.009-.009.006-.006.008-.008.007-.006.008-.007a.782.782,0,0,1,.177-.123l.013-.006.005,0,.013-.006,0,0,.014-.006.005,0,.013-.006.005,0,.013-.005.006,0,.013,0,.006,0,.013-.005h.006l.013,0,.006,0,.013,0,.006,0,.013,0,.007,0,.011,0,.02,0h.009l.01,0,.01,0h.009l.011,0h.167l.018,0h0l.02,0,.016,0h0l.015,0h.005l.015,0h.005l.014,0,.006,0,.013,0,.007,0,.012,0,.007,0,.012,0,.008,0,.011,0,.008,0,.011,0,.008,0,.011.005.007,0,.011.005.007,0,.012.005.007,0,.011.005.007,0,.011.006.006,0,.012.006.006,0,.017.01.013.008,0,0,.013.009h0l.015.01h0l.015.01h0l.016.012h0l.015.012h0l.015.012,0,0,.013.011c5.031,4.1-.525,9.421-1.335.771Z" fill="#231f20" fill-rule="evenodd"/>
    <path id="Path_152" data-name="Path 152" d="M466.011,262c-3.708,1.786-10.74,5.094-12.4,8.988a.566.566,0,1,1-1.07-.369c1.916-4.5,8.984-7.743,13.237-9.728a.567.567,0,0,1,.232,1.109Z" fill="#ff8733" fill-rule="evenodd"/>
    <path id="Path_153" data-name="Path 153" d="M473.524,264.716a30.079,30.079,0,0,0-7.411,9.393.567.567,0,0,1-1.071-.37c2.372-4.317,4.228-7.06,8.159-10.109a.567.567,0,0,1,.323,1.086Z" fill="#ff8733" fill-rule="evenodd"/>
    <path id="Path_154" data-name="Path 154" d="M481.712,267.261a83.648,83.648,0,0,1-2.995,9.637.566.566,0,1,1-.937-.635,93.507,93.507,0,0,0,2.824-9.235.566.566,0,1,1,1.108.233Z" fill="#ff8733" fill-rule="evenodd"/>
    <path id="Path_155" data-name="Path 155" d="M491.35,271.055c.622,4.448,1.321,8.011,1.021,12.506a.566.566,0,1,1-1.116-.189c.281-4.337-.474-8.18-1.023-12.5a.567.567,0,0,1,1.118.184Z" fill="#ff8733" fill-rule="evenodd"/>
    <path id="Path_156" data-name="Path 156" d="M467.784,356.642c-.948.319-5.19.513-5.773-.429a12.278,12.278,0,0,0,5.538-.618,38.4,38.4,0,0,0,4.1-1.453c-.057.869-3.121,2.25-3.862,2.5Z" fill="#e6e6e6" fill-rule="evenodd"/>
    <path id="Path_157" data-name="Path 157" d="M454.92,342.618a89.7,89.7,0,0,0,11.69-4.881c-1.58,3.863-15.433,8.528-19.44,6.008a29.5,29.5,0,0,0,7.75-1.127Z" fill="#e6e6e6" fill-rule="evenodd"/>
    <path id="Path_158" data-name="Path 158" d="M413.532,387.891c7.822,4.374,15.594,5.485,11.22,13.308s-15.146,7.827-22.969,3.453-13.445-9.444-9.072-17.267,13-3.868,20.821.506Z" fill="#e6b56f" fill-rule="evenodd"/>
    <path id="Path_159" data-name="Path 159" d="M420.969,370.061a5.046,5.046,0,1,1-5.046,5.046,5.047,5.047,0,0,1,5.046-5.046Z" fill="#e6b56f" fill-rule="evenodd"/>
    <path id="Path_160" data-name="Path 160" d="M408.793,378.476c-2.186,2.436-6.434,2.19-9.487-.55s-3.755-6.935-1.569-9.371,6.434-2.191,9.487.549,3.755,6.935,1.569,9.372Z" fill="#e6b56f" fill-rule="evenodd"/>
    <path id="Path_161" data-name="Path 161" d="M560.18,316.862c-10.415,1.331-18.509,5.7-19.84-4.716s8.811-17.925,19.226-19.256,19.244-.473,20.575,9.941-9.546,12.7-19.961,14.031Z" fill="#e6b56f" fill-rule="evenodd"/>
    <path id="Path_162" data-name="Path 162" d="M589.657,317.571a5.046,5.046,0,1,1-1.812-6.9,5.046,5.046,0,0,1,1.812,6.9Z" fill="#e6b56f" fill-rule="evenodd"/>
    <path id="Path_163" data-name="Path 163" d="M563.9,331.591c-1.252-3.9,1.693-8.33,6.577-9.9s9.86.319,11.112,4.217-1.694,8.33-6.578,9.9-9.859-.32-11.111-4.218Z" fill="#e6b56f" fill-rule="evenodd"/>
  </g>
</svg>
