<svg xmlns="http://www.w3.org/2000/svg" width="150" height="150" viewBox="0 0 150 150">
  <g id="Group_27" data-name="Group 27" transform="translate(195.631 114.491)">
    <rect id="Rectangle_5" data-name="Rectangle 5" width="150" height="150" rx="75" transform="translate(-195.631 -114.491)" fill="#fffcef"/>
    <g id="cook" transform="translate(-273 -105)">
      <path id="Path_170" data-name="Path 170" d="M210.183,154.331h5.45c2.844-.053,3.664-3.938,2.215-6-1.689-2.4-1.148-6.43-1.2-7.619s1.267-10.007,1.672-17.454a32.5,32.5,0,0,0-3.863-17.617c-1.56-3.162-1.512-10.213-1.512-11.728h-5.52c0,1.514.046,8.566-1.514,11.728a32.482,32.482,0,0,0-3.861,17.617c.405,7.447,1.72,16.265,1.669,17.454s.49,5.215-1.2,7.619c-1.449,2.06-.628,5.945,2.218,6h5.448" transform="translate(-76.447 -57.995)" fill="#c5eaff"/>
      <path id="Path_171" data-name="Path 171" d="M222.951,148.333c-1.689-2.4-1.148-6.43-1.2-7.619s1.267-10.007,1.672-17.454a32.5,32.5,0,0,0-3.863-17.617c-1.56-3.162-1.512-10.213-1.512-11.728h-2.761v60.417h5.45c2.844-.053,3.664-3.938,2.215-6" transform="translate(-81.549 -57.995)" fill="#b0dcf9"/>
      <path id="Path_172" data-name="Path 172" d="M215.736,93.118h-4.819a.8.8,0,0,1,0-1.606h4.819a.8.8,0,1,1,0,1.606" transform="translate(-79.59 -56.002)" fill="#2e5e7f"/>
      <path id="Path_173" data-name="Path 173" d="M215.285,93.118h2.41a.8.8,0,0,0,0-1.606h-2.41v1.606" transform="translate(-81.549 -56.002)" fill="#1c466e"/>
      <path id="Path_174" data-name="Path 174" d="M210.149,135.641h-8.025a45.287,45.287,0,0,1,0-7.338,22.013,22.013,0,0,1,1.247-6.057h13.557a22.012,22.012,0,0,1,1.247,6.057,45.287,45.287,0,0,1,0,7.338h-8.027" transform="translate(-76.507 -68.82)" fill="#2e5e7f"/>
      <path id="Path_175" data-name="Path 175" d="M215.133,135.641h8.027a45.287,45.287,0,0,0,0-7.338,22.012,22.012,0,0,0-1.247-6.057h-6.78v13.395" transform="translate(-81.491 -68.82)" fill="#1c466e"/>
      <path id="Path_176" data-name="Path 176" d="M204.489,145.719s.9,9.6,1.242,11.786.665,8.906-.716,10.607c-1.218,1.5-1.167,4.375.755,4.375h5.3V145.719h-6.583" transform="translate(-77.348 -77.899)" fill="#2e5e7f"/>
      <path id="Path_177" data-name="Path 177" d="M221.286,168.036c-1.381-1.7-.995-8.345-.655-10.531s1.242-11.786,1.242-11.786h-6.608v26.768h5.329c1.919,0,1.91-2.948.692-4.45" transform="translate(-81.541 -77.899)" fill="#1c466e"/>
      <path id="Path_178" data-name="Path 178" d="M210.314,105.363s-.3,3.567-1.1,4.9a43.6,43.6,0,0,0-2.058,4.494H212.2v-9.391h-1.89" transform="translate(-78.468 -61.249)" fill="#2e5e7f"/>
      <path id="Path_179" data-name="Path 179" d="M218.28,110.26c-.8-1.33-1.1-4.9-1.1-4.9h-1.89v9.391h5.055a43.789,43.789,0,0,0-2.06-4.494" transform="translate(-81.549 -61.249)" fill="#1c466e"/>
      <path id="Path_180" data-name="Path 180" d="M219.253,176.952a1.2,1.2,0,1,1-1.206-1.206,1.208,1.208,0,0,1,1.206,1.206" transform="translate(-82.139 -89.408)" fill="#b0dcf9"/>
      <path id="Path_181" data-name="Path 181" d="M217.618,161.184a.954.954,0,1,1-.954-.954.954.954,0,0,1,.954.954" transform="translate(-81.71 -83.429)" fill="#b0dcf9"/>
      <path id="Path_182" data-name="Path 182" d="M215.343,167.808a1.23,1.23,0,1,1-1.23-1.23,1.232,1.232,0,0,1,1.23,1.23" transform="translate(-80.639 -85.876)" fill="#b0dcf9"/>
    </g>
    <g id="bottle" transform="translate(-307 -281)">
      <path id="Path_195" data-name="Path 195" d="M324.3,443.745h7.435c1.412,0,1.412-3.108,1.412-4.169V408.62c0-2.473-1.06-6.076-2.048-8.9a29.614,29.614,0,0,1-1.769-8.2c0-1.978.073-2.9.354-2.9s.425-.706,0-.706H318.908c-.425,0-.281.706,0,.706s.354.92.354,2.9a29.688,29.688,0,0,1-1.767,8.2c-.99,2.827-2.05,6.43-2.05,8.9v30.956c0,1.06,0,4.169,1.415,4.169H324.3" transform="translate(-119.489 -171.45)" fill="#c5eaff"/>
      <path id="Path_196" data-name="Path 196" d="M329.691,443.745h7.435c1.412,0,1.412-3.108,1.412-4.169V408.62c0-2.473-1.06-6.076-2.048-8.9a29.615,29.615,0,0,1-1.769-8.2c0-1.978.073-2.9.354-2.9s.425-.706,0-.706h-5.385v55.831" transform="translate(-124.885 -171.45)" fill="#b0dcf9"/>
      <path id="Path_197" data-name="Path 197" d="M331.543,386.281H320.5a.494.494,0,0,1-.5-.5V384.1a.5.5,0,0,1,.5-.5h11.048a.5.5,0,0,1,.495.5v1.686a.494.494,0,0,1-.495.5" transform="translate(-121.214 -169.485)" fill="#2e5e7f"/>
      <path id="Path_198" data-name="Path 198" d="M329.691,386.281h5.484a.534.534,0,0,0,.534-.534v-1.609a.534.534,0,0,0-.534-.536h-5.484v2.679" transform="translate(-124.885 -169.485)" fill="#1c466e"/>
      <path id="Path_199" data-name="Path 199" d="M329.11,395.484c0,1.883.939,5.113,1.8,7.8a32.583,32.583,0,0,1,1.776,8.476v29.466c0,1.009,0,3.97-1.225,3.97H318.567c-1.223,0-1.223-2.96-1.223-3.97V411.762a32.484,32.484,0,0,1,1.776-8.476,32.109,32.109,0,0,0,1.742-7.8h8.248" transform="translate(-120.208 -174.332)" fill="#2e5e7f"/>
      <path id="Path_200" data-name="Path 200" d="M329.691,445.2h6.445c1.225,0,1.225-2.96,1.225-3.97V411.762a32.583,32.583,0,0,0-1.776-8.476c-.859-2.689-1.8-5.918-1.8-7.8h-4.1V445.2" transform="translate(-124.885 -174.332)" fill="#1c466e"/>
    </g>
  </g>
</svg>
