<svg xmlns="http://www.w3.org/2000/svg" xmlns:xlink="http://www.w3.org/1999/xlink" width="856.394" height="934.873" viewBox="0 0 856.394 934.873">
  <defs>
    <clipPath id="clip-path">
      <path id="Path_1479" data-name="Path 1479" d="M0,416.8H567.309V984.113H0Zm0,0" transform="translate(0 -416.805)"/>
    </clipPath>
  </defs>
  <g id="Group_578" data-name="Group 578" transform="translate(1753 326)">
    <g id="Group_577" data-name="Group 577" transform="translate(-1576.989 -103.496)">
      <path id="Path_1567" data-name="Path 1567" d="M374.239,8.133C472.277,55.857,631.86,22.817,670.3,59.1c38.654,36.279-43.837,142.091-78.6,241.425S569.668,492.927,524.32,523.159s-149-2.591-238.186,31.528S122.448,689.652,44.708,708.871c-77.524,19.219-158.287-43.4-195.645-123.088-37.358-79.467-31.312-176.21,7.126-246.608,38.654-70.182,109.7-113.8,129.35-191.11C5.19,70.973-26.769-40.022,1.087-119.706c27.857-79.9,115.53-128.487,177.29-88.537C240.353-168.293,276.416-39.591,374.239,8.133Z" transform="translate(0 0)" fill="#fffcef"/>
    </g>
    <g id="surface1" transform="translate(-1649 -518.805)">
      <path id="Path_1480" data-name="Path 1480" d="M44.719,797.844c0,8.464,80.58,15.328,179.98,15.328s179.98-6.864,179.98-15.328S324.1,782.516,224.7,782.516s-179.98,6.859-179.98,15.328" transform="translate(14.946 122.232)" fill="#f4f1df"/>
      <path id="Path_1481" data-name="Path 1481" d="M498.514,615.272H371.5a15.344,15.344,0,1,1,0-30.687H498.514a15.344,15.344,0,1,0,0-30.687H447.782a15.344,15.344,0,1,0,0-30.687H363.694a15.344,15.344,0,1,1,0-30.687h57.7a15.344,15.344,0,0,0,0-30.687H47.383a15.344,15.344,0,0,0,0,30.687H73.765a15.344,15.344,0,0,0,0,30.687h60.473a15.344,15.344,0,1,1,0,30.687H73.765a15.344,15.344,0,1,0,0,30.687H197.14a15.344,15.344,0,0,1,0,30.687H73.765a15.344,15.344,0,0,0,0,30.687H107.85a15.344,15.344,0,0,1,0,30.687H47.383a15.344,15.344,0,1,0,0,30.687H472.132a15.344,15.344,0,1,0,0-30.687H421.395a15.344,15.344,0,1,0,0-30.687h77.12a15.344,15.344,0,1,0,0-30.687" transform="translate(10.708 15.051)" fill="#fff1d6"/>
      <path id="Path_1482" data-name="Path 1482" d="M486.918,698.559H149.712c-6.728,0-12.18,6.874-12.18,15.344s5.452,15.344,12.18,15.344h27.06c6.728,0,12.185,6.874,12.185,15.344s-5.457,15.344-12.185,15.344H128.766c-6.728,0-12.18,6.869-12.18,15.344s5.452,15.344,12.18,15.344H465.972c6.728,0,12.185-6.869,12.185-15.344s-5.457-15.344-12.185-15.344H425.7c6.729,0,12.18-6.869,12.18-15.344s-5.452-15.344-12.18-15.344h61.218c6.729,0,12.185-6.869,12.185-15.344s-5.457-15.344-12.185-15.344" transform="translate(38.967 94.171)" fill="#fff1d6"/>
      <path id="Path_1483" data-name="Path 1483" d="M363.982,834.942H73.906V667.262H363.982v167.68" transform="translate(24.702 83.71)" fill="#cf744f"/>
      <path id="Path_1484" data-name="Path 1484" d="M363.982,688.8H73.906V667.262H363.982V688.8" transform="translate(24.702 83.71)" fill="#b26343"/>
      <path id="Path_1485" data-name="Path 1485" d="M374.351,677.477H67.691V656.191H374.351v21.285" transform="translate(22.625 80.01)" fill="#cf744f"/>
      <path id="Path_1486" data-name="Path 1486" d="M374.351,673.023H67.691l65.184-67.191H313.612l60.739,67.191" transform="translate(22.625 63.179)" fill="#cf8f51"/>
      <path id="Path_1487" data-name="Path 1487" d="M153.652,626.133l-9.777,10.08H247.241l-9.11-10.08H153.652" transform="translate(48.087 69.964)" fill="#a74e38"/>
      <path id="Path_1488" data-name="Path 1488" d="M156.972,629.99h84.661l-3.5-3.857H153.652l-9.777,10.08h7.062l6.035-6.223" transform="translate(48.087 69.964)" fill="#712f26"/>
      <path id="Path_1489" data-name="Path 1489" d="M192.2,756.952v21.765q8.428-2.267,8.428-10.314Q200.629,761.358,192.2,756.952Zm-6.041-17.616v-20.5q-8.56,2.134-8.558,9.809Q177.6,735.435,186.161,739.336Zm6.921,52.968v5.66q0,2.517-2.642,2.517h-2.517q-2.642,0-2.642-2.517V792.3a58.784,58.784,0,0,1-12.727-1.887q-9.42-2.267-9.413-4.779a4,4,0,0,1,.25-1.131l3.7-10.57c.339-.672.719-1.006,1.141-1.006q-.25,0,6.046,2.637a40.1,40.1,0,0,0,11.007,3.148V754.054q-10.82-4.777-13.963-7.291a20.653,20.653,0,0,1-8.177-17.116q0-12.071,8.933-18.867a22.954,22.954,0,0,1,13.207-5.16v-6.166q0-2.517,2.642-2.517h2.517q2.642,0,2.642,2.517v6.166a61.46,61.46,0,0,1,11.2,2.137q8.545,2.392,8.553,5.16a3.928,3.928,0,0,1-.375,1.381l-3.9,8.558c-.334.672-.714,1.006-1.131,1.006q.25,0-5.41-2.517c-3.779-1.673-6.749-2.512-8.933-2.512V742.1q10.562,5.16,14.093,8.177a22.094,22.094,0,0,1,7.927,17.366q0,11.7-7.927,18.366a27.923,27.923,0,0,1-14.093,6.291" transform="translate(54.527 93.629)" fill="#712f26"/>
      <path id="Path_1490" data-name="Path 1490" d="M195.124,753.693v21.77q8.428-2.267,8.428-10.319Q203.551,758.1,195.124,753.693Zm-6.041-17.611V715.573q-8.56,2.142-8.558,9.814Q180.525,732.181,189.083,736.082ZM196,789.05v5.66q0,2.517-2.642,2.517h-2.517q-2.642,0-2.642-2.517v-5.66a59.111,59.111,0,0,1-12.727-1.887q-9.42-2.267-9.413-4.784a4.033,4.033,0,0,1,.25-1.131l3.7-10.57c.334-.667.719-1.006,1.141-1.006q-.25,0,6.046,2.642a40.288,40.288,0,0,0,11.007,3.148V750.8q-10.82-4.777-13.968-7.3a20.646,20.646,0,0,1-8.172-17.11q0-12.078,8.933-18.872a22.99,22.99,0,0,1,13.207-5.16V696.2q0-2.517,2.642-2.517h2.517q2.642,0,2.642,2.517v6.16a61.939,61.939,0,0,1,11.2,2.137q8.56,2.4,8.558,5.16a3.737,3.737,0,0,1-.38,1.386l-3.9,8.558c-.334.672-.714,1.006-1.131,1.006q.25,0-5.41-2.517c-3.779-1.678-6.749-2.517-8.933-2.517v23.276q10.562,5.16,14.088,8.177a22.088,22.088,0,0,1,7.932,17.361q0,11.7-7.932,18.372A27.884,27.884,0,0,1,196,789.05" transform="translate(55.503 92.541)" fill="#cf8f51"/>
      <path id="Path_1491" data-name="Path 1491" d="M223.382,544.294c-14.437,1.746-34.909-12.326-34.909-12.326l8.657-18.883,38.1,6.874s2.58,22.593-11.852,24.334" transform="translate(62.993 32.18)" fill="#bd7055"/>
      <path id="Path_1492" data-name="Path 1492" d="M241.71,533.677c-12.868,4.081-35.534-3.773-35.534-3.773l5.962-19.9,35.1.469s7.338,19.133-5.53,23.208" transform="translate(68.91 31.149)" fill="#bd7055"/>
      <path id="Path_1493" data-name="Path 1493" d="M253.168,525.2c-12.873,4.081-35.54-3.773-35.54-3.773l5.968-19.9,35.1.469s7.343,19.133-5.525,23.208" transform="translate(72.738 28.314)" fill="#bd7055"/>
      <path id="Path_1494" data-name="Path 1494" d="M314.014,466.394l14.041,37.155L258.243,513.2l-38.333,6.953s-8.537,16.183-3.56,23.646c8.219,12.326-10.9,25.887-23.088,14.051s-27.717-40.235-19.56-51.55,46.761-35.8,55.662-38.87c16.251-5.608,84.651-1.032,84.651-1.032" transform="translate(57.298 15.986)" fill="#f8a680"/>
      <path id="Path_1495" data-name="Path 1495" d="M305.646,495.828c-12.785-4.868-25.564-9.543-38.667-13.5a4.62,4.62,0,0,1-3.466-4.248c-8.318-.162-16.006,2.09-23.61,6.551-9.413,5.514-18.221,11.013-28.467,14.885-8.031,3.038-18.377,6.171-22.51,14.478-.386.766-2.689,5.441-1.386,6.228,2.017,1.22,4.7,1.157,6.973,1.094,5.91-.172,11.7-1.449,17.585-1.814a4.927,4.927,0,0,1,.787.01c.964-2.324,1.772-3.852,1.772-3.852l38.333-6.953,62.954-8.7c-.641-.37-1.277-.75-1.918-1.126-2.851-1.048-5.691-2.033-8.381-3.054" transform="translate(62.55 20.476)" fill="#d8906f"/>
      <path id="Path_1496" data-name="Path 1496" d="M215.871,481.848l5.66,29.1,5.347-.516Zm0,0" transform="translate(72.151 21.739)" fill="#bd7055"/>
      <path id="Path_1497" data-name="Path 1497" d="M176.965,501.02l26.414,13.467,2.887-4.529Zm0,0" transform="translate(59.147 28.147)" fill="#bd7055"/>
      <path id="Path_1498" data-name="Path 1498" d="M247.929,516.853,190.245,646.138,120.688,615.1l57.679-129.285,69.562,31.037" transform="translate(40.337 23.066)" fill="#e7e4b9"/>
      <path id="Path_1499" data-name="Path 1499" d="M232.972,519.312l-50.2,112.529L132.253,609.3l50.206-112.524,50.513,22.536M125.754,611l60.1,26.81,53.619-120.185-60.093-26.815L125.754,611" transform="translate(42.031 24.734)" fill="#688942"/>
      <path id="Path_1500" data-name="Path 1500" d="M131.748,572.189l-4.936,11.054,11.633,5.2a9.034,9.034,0,0,0-6.7-16.25" transform="translate(42.385 51.896)" fill="#688942"/>
      <path id="Path_1501" data-name="Path 1501" d="M202.494,508.051l11.054,4.936-5.191,11.638a9.039,9.039,0,0,1-5.863-16.574" transform="translate(66.301 30.497)" fill="#688942"/>
      <path id="Path_1502" data-name="Path 1502" d="M178.276,592.646l-4.93,11.06-11.638-5.191a9.036,9.036,0,0,1,16.568-5.869" transform="translate(54.031 57.394)" fill="#688942"/>
      <path id="Path_1503" data-name="Path 1503" d="M178.5,497.227l-11.054-4.93-5.2,11.633a9.037,9.037,0,0,0,16.251-6.7" transform="translate(54.229 25.232)" fill="#688942"/>
      <path id="Path_1504" data-name="Path 1504" d="M186.883,527.927c15.338,6.843,22.8,23.537,16.667,37.291S180,584.569,164.665,577.726s-22.8-23.542-16.662-37.291,23.542-19.352,38.88-12.508" transform="translate(48.749 36.165)" fill="#688942"/>
      <path id="Path_1505" data-name="Path 1505" d="M188.4,506.927a7.6,7.6,0,1,1-10.043,3.846,7.6,7.6,0,0,1,10.043-3.846" transform="translate(59.393 29.901)" fill="#688942"/>
      <path id="Path_1506" data-name="Path 1506" d="M158.315,574.377a7.6,7.6,0,1,1-10.043,3.841,7.6,7.6,0,0,1,10.043-3.841" transform="translate(49.335 52.444)" fill="#688942"/>
      <path id="Path_1507" data-name="Path 1507" d="M198.066,563.245l-5.988-2.668a18.927,18.927,0,0,1-6.656,7.906l-3.336-3.195a17.316,17.316,0,0,0,6.358-7.4c1.876-4.211.714-8.141-2.663-9.647-3.263-1.454-6.306-.042-10.043,3.549-5.066,4.988-9.46,7.505-14.614,5.207-4.92-2.194-7.093-7.359-5.551-13.207l-5.988-2.674,1.642-3.674,5.749,2.564a17.314,17.314,0,0,1,5.514-6.781l3.247,3.226a15.711,15.711,0,0,0-5.347,6.572c-2.033,4.56-.073,7.5,2.293,8.558,3.085,1.376,5.6-.13,10.038-4.336,5.217-4.993,9.673-6.7,14.948-4.347,4.68,2.09,7.615,7.307,5.9,13.858l6.16,2.752-1.663,3.732" transform="translate(49.996 38.913)" fill="#e7e4b9"/>
      <path id="Path_1508" data-name="Path 1508" d="M123.309,584.523,137,553.836l-13.691,30.687" transform="translate(41.213 45.8)" fill="#4e9aa7"/>
      <path id="Path_1509" data-name="Path 1509" d="M120.688,598.908l3.5-7.844-3.5,7.844m17.189-38.531,11.648-26.111-11.648,26.111" transform="translate(40.337 39.259)" fill="#c4ccbf"/>
      <path id="Path_1510" data-name="Path 1510" d="M190.245,629.945l-69.557-31.036,3.5-7.844,13.691-30.687,11.648-26.111,4.732,2.111-26.81,60.1,60.1,26.81,26.81-60.092,4.732,2.111-28.842,64.642m-14.593-16.563L142.76,598.71a8.747,8.747,0,0,0,.688-1.272,9.044,9.044,0,0,0-4.571-11.946c-.224-.094-.443-.188-.667-.266l16.11-36.113c.672,10.434,7.646,20.561,18.757,25.517a33.19,33.19,0,0,0,13.514,2.919,28.951,28.951,0,0,0,18.455-6.369l-16.323,36.587c-.208-.115-.422-.224-.646-.323a9.038,9.038,0,0,0-12.425,5.936M164.217,586.9a7.6,7.6,0,0,0-3.1,14.541,7.5,7.5,0,0,0,3.091.662,7.6,7.6,0,0,0,3.106-14.541,7.526,7.526,0,0,0-3.1-.662" transform="translate(40.337 39.259)" fill="#b2b78d"/>
      <path id="Path_1511" data-name="Path 1511" d="M185.852,622.755l-60.1-26.81,26.81-60.1,2.158.964a24.8,24.8,0,0,0-2.1,11.774L136.516,584.7a9,9,0,0,0-3-.516,9.123,9.123,0,0,0-1.418.115l-4.936,11.054,11.633,5.2a9,9,0,0,0,2.267-2.366l32.892,14.671a8.926,8.926,0,0,0-.25,3.268l11.638,5.191,4.93-11.06a8.952,8.952,0,0,0-3.247-3.012l16.323-36.587a24.827,24.827,0,0,0,6.916-9.058l2.392,1.068-26.81,60.093" transform="translate(42.031 39.788)" fill="#517135"/>
      <path id="Path_1512" data-name="Path 1512" d="M138.445,588.439l-11.633-5.2,4.936-11.054a9.123,9.123,0,0,1,1.418-.115,9,9,0,0,1,3,.516c.224.078.443.172.667.266A9.044,9.044,0,0,1,141.4,584.8a8.746,8.746,0,0,1-.688,1.272,9,9,0,0,1-2.267,2.366" transform="translate(42.385 51.896)" fill="#517135"/>
      <path id="Path_1513" data-name="Path 1513" d="M173.346,603.706l-11.638-5.191a9.028,9.028,0,0,1,.73-4.628,9.038,9.038,0,0,1,11.946-4.576c.224.1.438.208.646.323a8.952,8.952,0,0,1,3.247,3.012l-4.93,11.06" transform="translate(54.031 57.394)" fill="#517135"/>
      <path id="Path_1514" data-name="Path 1514" d="M178.18,576.78a33.19,33.19,0,0,1-13.514-2.919c-11.112-4.956-18.085-15.083-18.757-25.517A24.8,24.8,0,0,1,148,536.57l3.638,1.621L150.833,540l5.988,2.674c-1.543,5.848.631,11.013,5.551,13.207a9.3,9.3,0,0,0,3.81.86c3.622-.005,7.026-2.351,10.8-6.067q.438-.414.86-.8L190.2,555.4a12.438,12.438,0,0,1-.511,1.381,17.316,17.316,0,0,1-6.358,7.4l3.336,3.195a18.927,18.927,0,0,0,6.656-7.906l5.988,2.668.99-2.225,3.247,1.449a24.827,24.827,0,0,1-6.916,9.058,28.95,28.95,0,0,1-18.455,6.369m-12.086-25.814a5.311,5.311,0,0,1-2.163-.5c-2.257-1.011-4.143-3.726-2.549-7.932l11.112,4.956c-2.585,2.3-4.5,3.471-6.4,3.471" transform="translate(48.749 40.029)" fill="#517135"/>
      <path id="Path_1515" data-name="Path 1515" d="M155.209,588.918a7.5,7.5,0,0,1-3.091-.662,7.595,7.595,0,1,1,3.091.662" transform="translate(49.335 52.444)" fill="#517135"/>
      <path id="Path_1516" data-name="Path 1516" d="M185.423,566.961l-3.336-3.195a17.316,17.316,0,0,0,6.358-7.4,12.451,12.451,0,0,0,.511-1.381l10.1,4.508-.99,2.225-5.988-2.668a18.927,18.927,0,0,1-6.656,7.906m-20.488-10.622a9.3,9.3,0,0,1-3.81-.86c-4.92-2.194-7.093-7.359-5.551-13.207l-5.988-2.674.808-1.814,9.741,4.347c-1.595,4.206.292,6.921,2.549,7.932a5.312,5.312,0,0,0,2.163.5c1.9,0,3.815-1.173,6.4-3.471l5.353,2.387q-.422.383-.86.8c-3.779,3.716-7.182,6.061-10.8,6.067" transform="translate(49.996 40.435)" fill="#b2b78d"/>
      <path id="Path_1517" data-name="Path 1517" d="M264.9,475.777l58.4,24.047s-27.284,4.284-32.762,8.7c-8.448,6.8-8.412,13.926-27.175,18.69-17.329,4.4-41.955,8.672-61.432,9.4-15.224.568-22.9-14.432-8.964-20.305,10.976-4.633,24.631-8.016,33.429-10.924s17.095-25.251,38.505-29.608" transform="translate(62.054 19.71)" fill="#f8a680"/>
      <path id="Path_1518" data-name="Path 1518" d="M374.085,434.5l34.69,68.468-128.081,19.44L268.832,469.94,374.085,434.5" transform="translate(89.852 5.914)" fill="#193857"/>
      <path id="Path_1519" data-name="Path 1519" d="M254.644,623.674c-15.307-.547-34.367-20.41-34.367-20.41l12.034-20.253L270.874,597.7s-.928,26.523-16.23,25.976" transform="translate(73.623 55.551)" fill="#bd7055"/>
      <path id="Path_1520" data-name="Path 1520" d="M275.463,614.793c-14.051,2.424-36.389-10.653-36.389-10.653l9.4-21.905L284.928,589s4.586,23.37-9.465,25.793" transform="translate(79.906 55.292)" fill="#bd7055"/>
      <path id="Path_1521" data-name="Path 1521" d="M288.745,607.038c-14.051,2.424-36.389-10.653-36.389-10.653l9.392-21.9,36.462,6.76s4.581,23.37-9.465,25.793" transform="translate(84.345 52.701)" fill="#bd7055"/>
      <path id="Path_1522" data-name="Path 1522" d="M362.765,546.988l8.672,45.359L297.226,591.1l-41.012,1.225s-11.471,17.157-7.489,26.648c6.583,15.682-15.49,27.935-26.278,12.123s-22.416-51.337-12.118-62.943,54.4-33.012,64.158-34.977c17.814-3.586,88.278,13.811,88.278,13.811" transform="translate(68.963 38.732)" fill="#f8a680"/>
      <path id="Path_1523" data-name="Path 1523" d="M348.927,579.51c-12.529-7.88-25.09-15.542-38.093-22.432a5.521,5.521,0,0,1-2.929-5.519c-8.626-1.652-16.991-.422-25.621,3.372-10.674,4.7-20.722,9.48-32.011,12.133-8.844,2.08-20.118,3.862-25.746,12.712-.521.813-3.669,5.806-2.439,6.942,1.908,1.762,4.7,2.168,7.083,2.5,6.181.85,12.4.4,18.6,1.022a6.089,6.089,0,0,1,.813.151c1.381-2.512,2.465-4.128,2.465-4.128l41.012-1.225,66.92,1.126c-.6-.542-1.209-1.095-1.814-1.642-2.8-1.715-5.6-3.351-8.235-5.009" transform="translate(74.134 44.799)" fill="#d8906f"/>
      <path id="Path_1524" data-name="Path 1524" d="M256.059,550.68l1.235,34.581,5.65.354Zm0,0" transform="translate(85.583 44.745)" fill="#bd7055"/>
      <path id="Path_1525" data-name="Path 1525" d="M212.492,565.9l25.34,20.217,3.737-4.711Zm0,0" transform="translate(71.021 49.833)" fill="#bd7055"/>
      <path id="Path_1526" data-name="Path 1526" d="M253.633,589.955c3.455,15.015-4.738,30.3-18.294,34.122S208,618.824,204.553,603.8s4.738-30.3,18.294-34.122,27.336,5.253,30.786,20.279" transform="translate(68.104 50.802)" fill="#f9a72b"/>
      <path id="Path_1527" data-name="Path 1527" d="M237.414,619.239c-13.556,3.826-27.341-5.254-30.786-20.274a30.424,30.424,0,0,1,4.284-23.766,30.165,30.165,0,0,0-6.358,26.461c3.45,15.026,17.236,24.1,30.786,20.279a25.251,25.251,0,0,0,14.009-10.361,24.761,24.761,0,0,1-11.935,7.661" transform="translate(68.104 52.94)" fill="#fbc829"/>
      <path id="Path_1528" data-name="Path 1528" d="M233.943,612.313c-10.246,2.893-20.67-3.971-23.276-15.328a23,23,0,0,1,3.242-17.965,22.82,22.82,0,0,0-4.811,20c2.611,11.357,13.03,18.221,23.276,15.328a19.056,19.056,0,0,0,10.59-7.828,18.749,18.749,0,0,1-9.022,5.79" transform="translate(69.688 54.217)" fill="#fbc829"/>
      <path id="Path_1529" data-name="Path 1529" d="M246.787,590.124l-.771.177a22.978,22.978,0,0,1,.589,5.186c0,9.36-5.7,17.845-14.155,20.222a17.137,17.137,0,0,1-4.623.641c-8.318.005-15.974-6.228-18.158-15.708a23.314,23.314,0,0,1-.589-5.186c0-9.36,5.707-17.851,14.155-20.222a16.969,16.969,0,0,1,4.623-.646c8.323,0,15.979,6.233,18.158,15.714l1.543-.354c-2.324-10.121-10.57-16.933-19.7-16.938a18.647,18.647,0,0,0-5.05.7c-9.235,2.616-15.307,11.758-15.307,21.744a24.574,24.574,0,0,0,.631,5.535c2.319,10.121,10.564,16.938,19.7,16.938a18.483,18.483,0,0,0,5.055-.7c9.235-2.616,15.3-11.758,15.3-21.739a24.646,24.646,0,0,0-.625-5.54l-.771.177" transform="translate(69.353 52.208)" fill="#f6862d"/>
      <path id="Path_1530" data-name="Path 1530" d="M219.686,573.071a.72.72,0,0,1-.469.87.643.643,0,0,1-.787-.516l-.511-2.225a.729.729,0,0,1,.469-.87.646.646,0,0,1,.787.516l.511,2.225" transform="translate(72.829 51.305)" fill="#f6862d"/>
      <path id="Path_1531" data-name="Path 1531" d="M228.084,609.641a.728.728,0,0,1-.469.876.641.641,0,0,1-.782-.521l-.516-2.225a.734.734,0,0,1,.469-.87.648.648,0,0,1,.787.521l.511,2.22" transform="translate(75.636 63.529)" fill="#f6862d"/>
      <path id="Path_1532" data-name="Path 1532" d="M238.843,586.539a.646.646,0,0,1-.787-.516.733.733,0,0,1,.469-.876l2.007-.568a.65.65,0,0,1,.787.521.72.72,0,0,1-.469.87l-2.007.568" transform="translate(79.559 56.068)" fill="#f6862d"/>
      <path id="Path_1533" data-name="Path 1533" d="M205.847,595.847a.647.647,0,0,1-.787-.516.72.72,0,0,1,.469-.87l2.007-.568a.644.644,0,0,1,.787.516.728.728,0,0,1-.469.876l-2.007.563" transform="translate(68.53 59.18)" fill="#f6862d"/>
      <path id="Path_1534" data-name="Path 1534" d="M231.793,575.524a.613.613,0,0,1-.886.25.764.764,0,0,1-.224-.985l1.058-1.97a.614.614,0,0,1,.886-.255.765.765,0,0,1,.224.985l-1.058,1.975" transform="translate(77.071 52.027)" fill="#f6862d"/>
      <path id="Path_1535" data-name="Path 1535" d="M214.4,607.965a.613.613,0,0,1-.886.25.753.753,0,0,1-.229-.98l1.058-1.975a.609.609,0,0,1,.886-.25.765.765,0,0,1,.229.985l-1.058,1.97" transform="translate(71.257 62.87)" fill="#f6862d"/>
      <path id="Path_1536" data-name="Path 1536" d="M236.575,599.959a.758.758,0,0,1-.224-.98.614.614,0,0,1,.886-.255l1.782,1.173a.766.766,0,0,1,.224.985.613.613,0,0,1-.886.25l-1.782-1.173" transform="translate(78.965 60.77)" fill="#f6862d"/>
      <path id="Path_1537" data-name="Path 1537" d="M207.307,580.681a.76.76,0,0,1-.229-.98.617.617,0,0,1,.891-.25l1.777,1.173a.757.757,0,0,1,.224.98.608.608,0,0,1-.886.25l-1.777-1.173" transform="translate(69.181 54.328)" fill="#f6862d"/>
      <path id="Path_1538" data-name="Path 1538" d="M225.772,572.97a.657.657,0,0,1-.724.61.709.709,0,0,1-.558-.808l.281-2.272a.668.668,0,0,1,.73-.615.7.7,0,0,1,.552.808l-.281,2.278" transform="translate(75.029 51.162)" fill="#f6862d"/>
      <path id="Path_1539" data-name="Path 1539" d="M221.174,610.359a.665.665,0,0,1-.73.615.711.711,0,0,1-.552-.808l.281-2.272a.658.658,0,0,1,.73-.615.707.707,0,0,1,.552.8l-.281,2.278" transform="translate(73.493 63.66)" fill="#f6862d"/>
      <path id="Path_1540" data-name="Path 1540" d="M238.948,593.288a.708.708,0,0,1-.552-.808.665.665,0,0,1,.73-.615l2.053.313a.709.709,0,0,1,.552.808.664.664,0,0,1-.73.61l-2.053-.307" transform="translate(79.677 58.508)" fill="#f6862d"/>
      <path id="Path_1541" data-name="Path 1541" d="M205.215,588.19a.712.712,0,0,1-.558-.808.668.668,0,0,1,.73-.615l2.053.313a.708.708,0,0,1,.552.808.653.653,0,0,1-.724.61l-2.053-.307" transform="translate(68.401 56.804)" fill="#f6862d"/>
      <path id="Path_1542" data-name="Path 1542" d="M236.269,580.167a.611.611,0,0,1-.912-.141.765.765,0,0,1,.125-1l1.647-1.392a.614.614,0,0,1,.912.136.777.777,0,0,1-.125,1.006l-1.647,1.392" transform="translate(78.62 53.705)" fill="#f6862d"/>
      <path id="Path_1543" data-name="Path 1543" d="M209.159,603a.607.607,0,0,1-.907-.135.766.766,0,0,1,.125-1.006l1.647-1.392a.608.608,0,0,1,.907.136.771.771,0,0,1-.125,1.006L209.159,603" transform="translate(69.56 61.338)" fill="#f6862d"/>
      <path id="Path_1544" data-name="Path 1544" d="M232.256,604.917a.771.771,0,0,1,.12-1.006.607.607,0,0,1,.907.135l1.256,1.829a.766.766,0,0,1-.125,1.006.606.606,0,0,1-.907-.141l-1.251-1.824" transform="translate(77.582 62.488)" fill="#f6862d"/>
      <path id="Path_1545" data-name="Path 1545" d="M211.65,574.871a.772.772,0,0,1,.125-1.006.607.607,0,0,1,.907.135l1.251,1.829a.771.771,0,0,1-.12,1.006.607.607,0,0,1-.907-.136l-1.256-1.829" transform="translate(70.696 52.445)" fill="#f6862d"/>
      <path id="Path_1546" data-name="Path 1546" d="M228.781,573.868a.634.634,0,0,1-.823.448.748.748,0,0,1-.407-.912l.667-2.173a.642.642,0,0,1,.823-.448.743.743,0,0,1,.407.912l-.667,2.173" transform="translate(76.044 51.452)" fill="#f6862d"/>
      <path id="Path_1547" data-name="Path 1547" d="M217.823,609.6a.63.63,0,0,1-.818.443.734.734,0,0,1-.406-.907l.667-2.173a.629.629,0,0,1,.818-.448.734.734,0,0,1,.406.907l-.667,2.178" transform="translate(72.382 63.395)" fill="#f6862d"/>
      <path id="Path_1548" data-name="Path 1548" d="M238.114,596.615a.734.734,0,0,1-.407-.907.636.636,0,0,1,.823-.448l1.96.74a.734.734,0,0,1,.407.907.636.636,0,0,1-.823.448l-1.96-.74" transform="translate(79.438 59.632)" fill="#f6862d"/>
      <path id="Path_1549" data-name="Path 1549" d="M205.875,584.474a.727.727,0,0,1-.4-.907.629.629,0,0,1,.818-.448l1.96.735a.743.743,0,0,1,.407.912.638.638,0,0,1-.823.448l-1.96-.74" transform="translate(68.663 55.574)" fill="#f6862d"/>
      <path id="Path_1550" data-name="Path 1550" d="M237.8,583.084a.628.628,0,0,1-.87-.328.752.752,0,0,1,.3-.959l1.855-1.016a.62.62,0,0,1,.87.328.754.754,0,0,1-.3.959l-1.855,1.016" transform="translate(79.167 54.781)" fill="#f6862d"/>
      <path id="Path_1551" data-name="Path 1551" d="M207.257,599.763a.619.619,0,0,1-.865-.328.75.75,0,0,1,.292-.959l1.861-1.016a.622.622,0,0,1,.865.328.752.752,0,0,1-.3.959l-1.855,1.016" transform="translate(68.96 60.356)" fill="#f6862d"/>
      <path id="Path_1552" data-name="Path 1552" d="M229.541,606.615a.748.748,0,0,1,.3-.959.616.616,0,0,1,.865.328l.912,2.053a.76.76,0,0,1-.292.964.621.621,0,0,1-.865-.328l-.917-2.059" transform="translate(76.697 63.095)" fill="#f6862d"/>
      <path id="Path_1553" data-name="Path 1553" d="M214.489,572.763a.752.752,0,0,1,.3-.959.615.615,0,0,1,.865.328l.912,2.059a.738.738,0,0,1-.292.954.612.612,0,0,1-.865-.323l-.917-2.059" transform="translate(71.667 51.78)" fill="#f6862d"/>
      <path id="Path_1554" data-name="Path 1554" d="M222.447,572.706a.7.7,0,0,1-.594.766.683.683,0,0,1-.7-.667l-.146-2.288a.7.7,0,0,1,.6-.766.674.674,0,0,1,.693.662l.146,2.293" transform="translate(73.867 51.119)" fill="#f6862d"/>
      <path id="Path_1555" data-name="Path 1555" d="M224.909,610.346a.706.706,0,0,1-.6.766.676.676,0,0,1-.693-.667l-.151-2.288a.7.7,0,0,1,.6-.766.671.671,0,0,1,.693.662l.151,2.293" transform="translate(74.688 63.699)" fill="#f6862d"/>
      <path id="Path_1556" data-name="Path 1556" d="M239.188,589.6a.667.667,0,0,1-.688-.662.692.692,0,0,1,.594-.766l2.069-.167a.675.675,0,0,1,.693.662.7.7,0,0,1-.6.766l-2.069.167" transform="translate(79.714 57.22)" fill="#f6862d"/>
      <path id="Path_1557" data-name="Path 1557" d="M205.233,592.326a.675.675,0,0,1-.693-.662.7.7,0,0,1,.6-.771l2.064-.161a.671.671,0,0,1,.693.662.7.7,0,0,1-.6.766l-2.064.167" transform="translate(68.363 58.131)" fill="#f6862d"/>
      <path id="Path_1558" data-name="Path 1558" d="M234.058,577.427a.6.6,0,0,1-.912.073.77.77,0,0,1-.068-1.011l1.355-1.736a.6.6,0,0,1,.912-.073.77.77,0,0,1,.068,1.011l-1.355,1.736" transform="translate(77.849 52.708)" fill="#f6862d"/>
      <path id="Path_1559" data-name="Path 1559" d="M211.78,605.971a.6.6,0,0,1-.912.073.77.77,0,0,1-.063-1.011l1.35-1.736a.606.606,0,0,1,.917-.073.775.775,0,0,1,.063,1.011l-1.355,1.736" transform="translate(70.404 62.248)" fill="#f6862d"/>
      <path id="Path_1560" data-name="Path 1560" d="M234.8,602.468a.776.776,0,0,1-.063-1.011.6.6,0,0,1,.912-.073l1.564,1.5a.77.77,0,0,1,.068,1.011.6.6,0,0,1-.912.073l-1.569-1.5" transform="translate(78.404 61.633)" fill="#f6862d"/>
      <path id="Path_1561" data-name="Path 1561" d="M209.053,577.781a.777.777,0,0,1-.068-1.016.6.6,0,0,1,.912-.068l1.569,1.5a.77.77,0,0,1,.063,1.011.6.6,0,0,1-.907.073l-1.569-1.5" transform="translate(69.796 53.382)" fill="#f6862d"/>
      <path id="Path_1562" data-name="Path 1562" d="M227.01,596.278l1.595,6.963a3.419,3.419,0,0,0,1.678-3.987A4.038,4.038,0,0,0,227.01,596.278Zm-3.039-5.139-1.506-6.557a3.277,3.277,0,0,0-1.746,3.836Q221.22,590.585,223.971,591.14Zm5.889,16.376.417,1.809a.761.761,0,0,1-.579,1.021l-.724.2a.676.676,0,0,1-.949-.589l-.417-1.808a16.135,16.135,0,0,1-3.81.433c-1.923.026-2.945-.224-3.07-.766a1.373,1.373,0,0,1-.01-.38l.287-3.68c.052-.24.135-.38.261-.417-.052.016.594.13,1.939.354a10.811,10.811,0,0,0,3.4.11l-1.809-7.886a20.483,20.483,0,0,1-4.566-1.2,6.668,6.668,0,0,1-3.617-4.805,8.014,8.014,0,0,1,1.188-6.76,6.911,6.911,0,0,1,3.435-2.726l-.448-1.975a.751.751,0,0,1,.573-1.016l.724-.2c.511-.146.823.052.949.589l.453,1.97a16.745,16.745,0,0,1,3.388-.229q2.642.07,2.846.954a1.312,1.312,0,0,1-.005.474l-.5,3.054c-.047.245-.136.38-.255.412a17.254,17.254,0,0,0-1.746-.365,6.336,6.336,0,0,0-2.762-.073l1.709,7.443a20.741,20.741,0,0,1,4.67,1.47,7.181,7.181,0,0,1,3.56,4.9,8.174,8.174,0,0,1-.938,6.52,8.5,8.5,0,0,1-3.6,3.158" transform="translate(72.311 53.605)" fill="#f6862d"/>
      <path id="Path_1563" data-name="Path 1563" d="M229.444,608.725a14.861,14.861,0,0,0,4.5-4.232c1.386-2.074,1.329-5.968.151-8.214a10.62,10.62,0,0,0-5.254-4.7c-2.767-1.006-3.971-1.36-3.753-4.576.1-1.5.109-1.131,1.35-1.084,1.261.052,1.845.38,1.975-1.011.224-2.366.954-4.414-.344-5.113-1.24-.662-5.139-.386-5.712-1.334a19.131,19.131,0,0,1-1.084-3.554s14.677.245,18.606,13.624c2.814,9.569-.7,21.713-9.564,23.917-.24-.855-.876-3.726-.876-3.726" transform="translate(73.958 52.844)" fill="#fab82a"/>
      <path id="Path_1564" data-name="Path 1564" d="M228.908,609.693l.751,3.258s-15.292-.2-18.283-14.463a20.157,20.157,0,0,1,9.725-22.8l1.037,4.519s-6.014,1.855-4.581,9.361c1.741,9.1,7.406,7.312,8.068,7.865s1.652,4.566,1.324,5.175-4.508.036-5.149.651-.792,5.759.005,6.317,7.1.115,7.1.115" transform="translate(70.434 53.105)" fill="#fab82a"/>
      <path id="Path_1565" data-name="Path 1565" d="M310.069,548.852l56.939,38.093s-29.082.1-35.493,4.227c-9.882,6.343-10.981,14.572-31.271,16.746-18.742,2.007-45.062,2.569-65.45-.042-15.938-2.043-21.525-20.707-6.087-25.017,12.164-3.4,26.919-4.878,36.545-6.671s21.832-26.106,44.817-27.336" transform="translate(73.392 44.134)" fill="#f8a680"/>
      <path id="Path_1566" data-name="Path 1566" d="M432.952,528.629v70.709l-114.488,1.881-3.956-62.636,118.444-9.955" transform="translate(105.118 37.375)" fill="#37597d"/>
    </g>
  </g>
</svg>
