<svg xmlns="http://www.w3.org/2000/svg" xmlns:xlink="http://www.w3.org/1999/xlink" width="496" height="495" viewBox="0 0 496 495">
  <defs>
    <clipPath id="clip-path">
      <rect id="Rectangle_35" data-name="Rectangle 35" width="496" height="495" rx="244" transform="translate(2 3)" fill="#fffcef" opacity="0"/>
    </clipPath>
  </defs>
  <g id="Mask_Group_1" data-name="Mask Group 1" transform="translate(-2 -3)" clip-path="url(#clip-path)">
    <g id="Group_20" data-name="Group 20">
      <rect id="Rectangle_34" data-name="Rectangle 34" width="496" height="495" rx="244" transform="translate(2 3)" fill="#fffcef"/>
      <g id="Background_Complete" data-name="Background Complete">
        <g id="Group_1" data-name="Group 1">
          <rect id="Rectangle_1" data-name="Rectangle 1" width="500" height="0.25" transform="translate(0 382.398)" fill="#ebebeb"/>
          <rect id="Rectangle_2" data-name="Rectangle 2" width="33.122" height="0.25" transform="translate(324.562 389.208)" fill="#ebebeb"/>
          <rect id="Rectangle_3" data-name="Rectangle 3" width="8.693" height="0.25" transform="translate(428.574 391.397)" fill="#ebebeb"/>
          <rect id="Rectangle_4" data-name="Rectangle 4" width="19.192" height="0.25" transform="translate(358.685 398.494)" fill="#ebebeb"/>
          <rect id="Rectangle_5" data-name="Rectangle 5" width="43.193" height="0.25" transform="translate(206.807 395.111)" fill="#ebebeb"/>
          <rect id="Rectangle_6" data-name="Rectangle 6" width="6.333" height="0.25" transform="translate(191.57 395.111)" fill="#ebebeb"/>
          <rect id="Rectangle_7" data-name="Rectangle 7" width="93.676" height="0.25" transform="translate(77.312 390.888)" fill="#ebebeb"/>
          <path id="Path_1" data-name="Path 1" d="M237.014,337.8H43.915a5.715,5.715,0,0,1-5.708-5.708V60.66a5.714,5.714,0,0,1,5.708-5.707h193.1a5.714,5.714,0,0,1,5.707,5.707V332.092A5.715,5.715,0,0,1,237.014,337.8ZM43.915,55.2a5.463,5.463,0,0,0-5.458,5.457V332.092a5.464,5.464,0,0,0,5.458,5.458h193.1a5.463,5.463,0,0,0,5.457-5.458V60.66a5.463,5.463,0,0,0-5.457-5.457Z" fill="#ebebeb"/>
          <path id="Path_2" data-name="Path 2" d="M453.31,337.8h-193.1a5.714,5.714,0,0,1-5.707-5.708V60.66a5.713,5.713,0,0,1,5.707-5.707h193.1a5.714,5.714,0,0,1,5.709,5.707V332.092A5.715,5.715,0,0,1,453.31,337.8ZM260.212,55.2a5.463,5.463,0,0,0-5.457,5.457V332.092a5.463,5.463,0,0,0,5.457,5.458h193.1a5.464,5.464,0,0,0,5.459-5.458V60.66A5.464,5.464,0,0,0,453.31,55.2Z" fill="#ebebeb"/>
        </g>
        <g id="Group_10" data-name="Group 10">
          <g id="Group_5" data-name="Group 5">
            <g id="Group_2" data-name="Group 2">
              <rect id="Rectangle_8" data-name="Rectangle 8" width="149.01" height="187.913" transform="translate(249.958 86.471)" fill="#e6e6e6"/>
              <rect id="Rectangle_9" data-name="Rectangle 9" width="152.967" height="187.913" transform="translate(253.429 86.471)" fill="#f0f0f0"/>
              <rect id="Rectangle_10" data-name="Rectangle 10" width="55.358" height="132.17" transform="translate(395.997 210.561) rotate(90)" fill="#f5f5f5"/>
              <rect id="Rectangle_11" data-name="Rectangle 11" width="109.575" height="125.255" transform="translate(392.539 97.961) rotate(90)" fill="#fafafa"/>
              <rect id="Rectangle_12" data-name="Rectangle 12" width="109.575" height="1.311" transform="translate(392.539 97.961) rotate(90)" fill="#e6e6e6"/>
              <path id="Path_3" data-name="Path 3" d="M287.279,207.536l43.77-109.575h27.3l-43.77,109.575Z" fill="#fff"/>
              <path id="Path_4" data-name="Path 4" d="M320.448,207.536l43.77-109.575h10.645l-43.77,109.575Z" fill="#fff"/>
              <rect id="Rectangle_13" data-name="Rectangle 13" width="53.713" height="2.49" transform="translate(395.997 212.206) rotate(90)" fill="#e6e6e6"/>
              <rect id="Rectangle_14" data-name="Rectangle 14" width="146.366" height="9.958" transform="translate(256.729 205.582)" fill="#f0f0f0"/>
            </g>
            <path id="Path_5" data-name="Path 5" d="M210.729,80.206H447.234a2.675,2.675,0,0,0,2.667-2.667h0a2.674,2.674,0,0,0-2.667-2.666H210.729a2.674,2.674,0,0,0-2.667,2.666h0A2.675,2.675,0,0,0,210.729,80.206Z" fill="#ebebeb"/>
            <g id="Group_3" data-name="Group 3">
              <rect id="Rectangle_15" data-name="Rectangle 15" width="19.665" height="283.905" transform="translate(256.729 351.667) rotate(180)" fill="#fafafa"/>
              <rect id="Rectangle_16" data-name="Rectangle 16" width="5.013" height="283.905" transform="translate(248.251 351.667) rotate(180)" fill="#f0f0f0"/>
              <rect id="Rectangle_17" data-name="Rectangle 17" width="19.665" height="283.905" transform="translate(244.415 351.667) rotate(180)" fill="#fafafa"/>
              <rect id="Rectangle_18" data-name="Rectangle 18" width="5.013" height="283.905" transform="translate(235.938 351.667) rotate(180)" fill="#f0f0f0"/>
              <rect id="Rectangle_19" data-name="Rectangle 19" width="19.665" height="283.905" transform="translate(232.283 351.667) rotate(180)" fill="#fafafa"/>
              <rect id="Rectangle_20" data-name="Rectangle 20" width="2.506" height="283.905" transform="translate(223.805 351.667) rotate(180)" fill="#f0f0f0"/>
            </g>
            <g id="Group_4" data-name="Group 4">
              <rect id="Rectangle_21" data-name="Rectangle 21" width="19.665" height="283.905" transform="translate(443.079 351.667) rotate(180)" fill="#fafafa"/>
              <rect id="Rectangle_22" data-name="Rectangle 22" width="5.013" height="283.905" transform="translate(434.601 351.667) rotate(180)" fill="#f0f0f0"/>
              <rect id="Rectangle_23" data-name="Rectangle 23" width="19.665" height="283.905" transform="translate(430.766 351.667) rotate(180)" fill="#fafafa"/>
              <rect id="Rectangle_24" data-name="Rectangle 24" width="5.013" height="283.905" transform="translate(422.288 351.667) rotate(180)" fill="#f0f0f0"/>
              <rect id="Rectangle_25" data-name="Rectangle 25" width="19.665" height="283.905" transform="translate(418.633 351.667) rotate(180)" fill="#fafafa"/>
              <rect id="Rectangle_26" data-name="Rectangle 26" width="2.506" height="283.905" transform="translate(410.156 351.667) rotate(180)" fill="#f0f0f0"/>
            </g>
          </g>
          <g id="Group_7" data-name="Group 7">
            <g id="Group_6" data-name="Group 6">
              <rect id="Rectangle_27" data-name="Rectangle 27" width="133.013" height="93.607" transform="translate(194.632 349.102) rotate(180)" fill="#f5f5f5"/>
              <rect id="Rectangle_28" data-name="Rectangle 28" width="80.699" height="120.105" transform="translate(188.178 261.949) rotate(90)" fill="#ebebeb"/>
              <rect id="Rectangle_29" data-name="Rectangle 29" width="80.699" height="45.822" transform="translate(113.896 261.949) rotate(90)" fill="#e6e6e6"/>
              <rect id="Rectangle_30" data-name="Rectangle 30" width="80.699" height="28.745" transform="translate(113.896 261.949) rotate(90)" fill="#e0e0e0"/>
              <rect id="Rectangle_31" data-name="Rectangle 31" width="36.236" height="2.032" transform="translate(180.555 284.18) rotate(90)" fill="#e0e0e0"/>
              <rect id="Rectangle_32" data-name="Rectangle 32" width="5.259" height="120.105" transform="translate(188.178 261.949) rotate(90)" fill="#e0e0e0"/>
              <rect id="Rectangle_33" data-name="Rectangle 33" width="32.51" height="93.607" transform="translate(29.11 255.495)" fill="#e6e6e6"/>
            </g>
            <path id="Path_6" data-name="Path 6" d="M64.771,382.4H61.619V349.1h5.438Z" fill="#f5f5f5"/>
            <path id="Path_7" data-name="Path 7" d="M191.481,382.4h3.151V349.1h-5.438Z" fill="#f5f5f5"/>
            <path id="Path_8" data-name="Path 8" d="M32.261,382.4H29.11V349.1h5.438Z" fill="#e6e6e6"/>
            <path id="Path_9" data-name="Path 9" d="M158.971,382.4h3.151V349.1h-5.438Z" fill="#e6e6e6"/>
          </g>
          <g id="Group_9" data-name="Group 9">
            <path id="Path_10" data-name="Path 10" d="M105.807,180.056c8.8-11.482,29.718-15.757,36.945-23.006,9.469-9.5,9.415-23.747,1.353-28.888-7-4.469-30.2,25.743-32.817,29.119C102.3,168.89,99.687,177.506,98,185.853c.192-7.1.376-13.609.526-18.636.492-16.394,1.105-21.668,1.386-23.29.969-.793,2.112-1.716,2.777-2.212,5.614-4.187,18.07-9.172,24.3-15.259,9.089-8.888,7.621-19.526,1.245-23.487-6.666-4.141-18.452,5.647-24.708,15.346s-3.583,18.982-5.338,27.037c-.367,1.579-.744,7.58-1.1,15.9A32.932,32.932,0,0,0,84.4,140.709c-8.618-6.877-16.058-15.251-23.159-14.168s-3.279,12.162,2.339,19.94c5,6.928,29.684,13.837,33.32,19.407-.428,11.281-.811,25.574-1.083,38.882-1.946-6.873-.607-7.451-8.581-17.974-4.74-6.257-24.173-13.972-26.49-9.674-2.275,4.219,1.2,12.424,8.541,18.114,5.918,4.59,19.049,4.585,22.087,7.433.709.665,3.053,3.212,4.392,4.677-.317,16.247-.459,30.588-.3,35.478l1.274.049c-.061-1.263.093-9.527.343-20.464,3.188-5.82,24.654-9.217,31.284-15.269,6.94-6.333,11.927-13.724,8.951-18.674-2.481-4.126-22.043,1.485-29.982,8.323-5.286,4.554-8.517,9.415-10.025,15.944.181-7.45.387-15.455.588-23.009C99.5,187.84,103.17,183.5,105.807,180.056Z" fill="#e6e6e6"/>
            <g id="Group_8" data-name="Group 8">
              <path id="Path_11" data-name="Path 11" d="M107.677,255.495H85.39c-1.218,0-2.267-1.586-2.509-3.792L81.3,237.284h30.47L110.186,251.7C109.944,253.909,108.895,255.495,107.677,255.495Z" fill="#f0f0f0"/>
              <path id="Path_12" data-name="Path 12" d="M112.406,242.873H80.662c-.761,0-1.4-1.056-1.485-2.453l-.649-10.66c-.1-1.638.593-3.072,1.485-3.072h33.042c.892,0,1.585,1.434,1.485,3.072l-.649,10.66C113.806,241.817,113.167,242.873,112.406,242.873Z" fill="#f0f0f0"/>
            </g>
          </g>
        </g>
      </g>
      <g id="Shadow">
        <ellipse id="_Path_" data-name="&lt;Path&gt;" cx="193.889" cy="11.323" rx="193.889" ry="11.323" transform="translate(56.111 404.915)" fill="#f5f5f5"/>
      </g>
      <g id="Character_1" data-name="Character 1">
        <g id="Group_13" data-name="Group 13">
          <path id="Path_15" data-name="Path 15" d="M185.276,408.831h7.974l-.087-18.465h-7.974Z" fill="#ff8b7b"/>
          <path id="Path_16" data-name="Path 16" d="M114.316,403.355l7.632,2.308,8.338-16.77-7.632-2.308Z" fill="#ff8b7b"/>
          <path id="Path_17" data-name="Path 17" d="M122.716,404.931l-8.575-2.593a.655.655,0,0,0-.783.332l-3.235,6.426a1.237,1.237,0,0,0,.772,1.715c3.006.853,4.505,1.115,8.276,2.255,2.32.7,7.142,2.423,10.346,3.392,3.133.948,4.429-2.118,3.19-2.8-5.553-3.084-7.42-5.585-8.872-7.871A2.026,2.026,0,0,0,122.716,404.931Z" fill="#263238"/>
          <path id="Path_18" data-name="Path 18" d="M193.153,407.907h-8.708a.656.656,0,0,0-.653.545l-1.237,7.087a1.224,1.224,0,0,0,1.215,1.419c3.139-.053,7.669-.238,11.617-.238,4.616,0,4.513.252,9.927.252,3.273,0,4.024-3.309,2.639-3.609-6.3-1.365-7.3-1.511-12.85-4.834A3.836,3.836,0,0,0,193.153,407.907Z" fill="#263238"/>
          <path id="Path_19" data-name="Path 19" d="M188.7,161.53l9.865-5.614s17.976,25.561,21.441,27.813c4.715,3.064,10.525,10.617,18.376,16.229-.137,1.35-1.513,4.645-2.491,5.361-9.619-3.707-22.1-10.713-25.276-14.8C203.388,181.213,188.7,161.53,188.7,161.53Z" fill="#ff8b7b"/>
          <path id="Path_20" data-name="Path 20" d="M184.344,157.453c-1.419,7.425,10.9,19.555,10.9,19.555l14.225-10.65a103.41,103.41,0,0,0-12.3-17.331C190.155,141.414,185.9,149.3,184.344,157.453Z" fill="#407bff"/>
          <path id="Path_21" data-name="Path 21" d="M184.344,157.453c-1.419,7.425,10.9,19.555,10.9,19.555l14.225-10.65a103.41,103.41,0,0,0-12.3-17.331C190.155,141.414,185.9,149.3,184.344,157.453Z" opacity="0.5"/>
          <path id="Path_22" data-name="Path 22" d="M235.352,198.457l8.954,2.05-4.569,9.179s-2.173-.79-5.568-5.546Z" fill="#ff8b7b"/>
          <path id="Path_23" data-name="Path 23" d="M249.562,209.017l-1.333,1.78a3.217,3.217,0,0,1-3.922.994l-4.57-2.1,4.569-9.179,4.788,4.149A3.218,3.218,0,0,1,249.562,209.017Z" fill="#ff8b7b"/>
          <g id="Group_12" data-name="Group 12">
            <path id="Path_24" data-name="Path 24" d="M193.161,390.37l.046,9.518H185.23l-.046-9.518Z" opacity="0.2"/>
            <path id="Path_25" data-name="Path 25" d="M122.65,386.59l7.635,2.309-4.3,8.643-7.635-2.309Z" opacity="0.2"/>
          </g>
          <path id="Path_26" data-name="Path 26" d="M192.881,146.115s10.637,20.32,3.838,65.161H154.07c-.606-6.546,1.906-34.725-5.88-65.572a109.177,109.177,0,0,1,14.191-1.8,156.525,156.525,0,0,1,18.129,0A82.109,82.109,0,0,1,192.881,146.115Z" fill="#407bff"/>
          <path id="Path_27" data-name="Path 27" d="M192.881,146.115s10.637,20.32,3.838,65.161H154.07c-.606-6.546,1.906-34.725-5.88-65.572a109.177,109.177,0,0,1,14.191-1.8,156.525,156.525,0,0,1,18.129,0A82.109,82.109,0,0,1,192.881,146.115Z" opacity="0.4"/>
          <path id="Path_28" data-name="Path 28" d="M157.818,153.32c.952,5.076-.07,17.223-4.235,31.259a206,206,0,0,0-4.654-35.807l0-.06C151.722,148.425,156.911,148.561,157.818,153.32Z" opacity="0.2"/>
          <path id="Path_29" data-name="Path 29" d="M163.941,126.945c1.422,5.834,2.335,13.063-1.56,16.956,0,0,5.669,6.678,13.607,6.988,7.111.278,4.522-6.987,4.522-6.987-6.579-1.554-6.623-9.6-5.706-14.13Z" fill="#ff8b7b"/>
          <path id="Path_30" data-name="Path 30" d="M174.809,129.776c-.548,2.656-.755,6.519.5,9.577a10.774,10.774,0,0,1-2.949-.892c-3.75-1.73-5.686-4.451-7.762-8.489-.191-1.034-.413-2.046-.655-3.025Z" opacity="0.2"/>
          <path id="Path_31" data-name="Path 31" d="M162.3,116.412c.3,8.034.076,12.737,3.914,17.089,5.774,6.545,15.464,3.474,17.5-4.4,1.833-7.089,1.039-19.037-6.508-22.693C169.774,102.8,162.005,108.377,162.3,116.412Z" fill="#ff8b7b"/>
          <path id="Path_32" data-name="Path 32" d="M162.821,125.556c2.667,0,5.5-5.21,4.167-7.716a3.631,3.631,0,0,0,.34-5.4c3.382,1.556,6.708,1.167,7.795-.555,3.476,1.167,8.032,1.833,8.809-1.333,4.945.777,5.081-5.532,2.862-8.389-2.654-3.417-9.992-2.417-13.2-.75s-8.1-3.473-11.63-.667c-3.166,2.518-2.135,5.083-2.135,5.083-5.365-.5-8.559,4.556-4.615,7.834C160.74,118.262,160.544,123.176,162.821,125.556Z" fill="#263238"/>
          <path id="Path_33" data-name="Path 33" d="M160.154,107.111a.987.987,0,0,1-.613-.211,6.482,6.482,0,0,1-2.143-6.028,1,1,0,1,1,1.976.311,4.48,4.48,0,0,0,1.4,4.139,1,1,0,0,1-.615,1.789Z" fill="#263238"/>
          <path id="Path_34" data-name="Path 34" d="M176.484,128.854a5.647,5.647,0,0,1-3.632-2.414.186.186,0,1,1,.32-.19,5.384,5.384,0,0,0,4.073,2.329.192.192,0,0,1,.176.2.184.184,0,0,1-.2.175A6.358,6.358,0,0,1,176.484,128.854Z" fill="#263238"/>
          <path id="Path_35" data-name="Path 35" d="M159.044,126.062a7.455,7.455,0,0,0,4.551,3.166c2.444.527,3.41-1.734,2.516-3.995-.8-2.036-3.046-4.763-5.4-4.275C158.4,121.439,157.747,124.071,159.044,126.062Z" fill="#ff8b7b"/>
          <path id="Path_36" data-name="Path 36" d="M168.688,211.276s1.081,17.1,2.474,30.7c1.587,15.4,3.564,35.391,4.821,50.627,0,.077.013.142.015.208.241,2.894.457,5.6.634,8.085,1.784,24.846,5.954,97.154,5.954,97.154h13.506s5.09-73.787,4.787-99.08c-.292-24.313-4.156-87.691-4.156-87.691Z" fill="#263238"/>
          <path id="Path_37" data-name="Path 37" d="M181.468,392.759c-.063,0,.237,5.561.237,5.561h15.569l.392-6.105Z" fill="#407bff"/>
          <path id="Path_38" data-name="Path 38" d="M171.162,241.973c1.587,15.4,3.564,35.391,4.821,50.627,0,.077.013.142.015.208,2.973-14.442,3.9-32.411,2.741-61.99Z" opacity="0.2"/>
          <path id="Path_39" data-name="Path 39" d="M181.59,211.276s-5.766,63.091-11.247,85.59c-6,24.637-40.352,99.962-40.352,99.962L116.012,392.6s26.751-70.6,30.417-95.156c3.979-26.649,7.641-86.168,7.641-86.168Z" fill="#263238"/>
          <path id="Path_40" data-name="Path 40" d="M117.246,387.8c-.06-.018-2,4.859-2,4.859l15.365,4.647,2.809-5.245Z" fill="#407bff"/>
          <path id="Path_41" data-name="Path 41" d="M174.62,119.379c-.015.652.309,1.2.723,1.226s.762-.482.777-1.133-.309-1.2-.724-1.227S174.634,118.727,174.62,119.379Z" fill="#263238"/>
          <ellipse id="Ellipse_1" data-name="Ellipse 1" cx="0.751" cy="1.181" rx="0.751" ry="1.181" transform="matrix(1, -0.004, 0.004, 1, 182.167, 118.69)" fill="#263238"/>
          <path id="Path_42" data-name="Path 42" d="M179.588,120a24.722,24.722,0,0,0,2.9,5.762c-1.145,1.007-3.04.4-3.04.4Z" fill="#ff5652"/>
          <path id="Path_43" data-name="Path 43" d="M172.532,117.839a.349.349,0,0,0,.289-.155,2.818,2.818,0,0,1,2.321-1.31.362.362,0,0,0,.379-.36.4.4,0,0,0-.368-.4,3.508,3.508,0,0,0-2.951,1.62.4.4,0,0,0,.1.535A.373.373,0,0,0,172.532,117.839Z" fill="#263238"/>
          <path id="Path_44" data-name="Path 44" d="M185,117.806a.347.347,0,0,0,.162-.04.378.378,0,0,0,.151-.513,3.869,3.869,0,0,0-2.756-2.149.356.356,0,0,0-.4.334.4.4,0,0,0,.336.427h0a3.092,3.092,0,0,1,2.167,1.726A.388.388,0,0,0,185,117.806Z" fill="#263238"/>
          <path id="Path_45" data-name="Path 45" d="M143.461,156.594l10.074,6.089s-8.625,20.166-11.649,27.434c-.4,7.55-.35,21.69,1.005,28.235-.709,1.108-3.4,3.319-4.6,3.479-5.43-12.254-8.414-26.655-7.89-31.637C131.593,178.834,143.461,156.594,143.461,156.594Z" fill="#ff8b7b"/>
          <path id="Path_46" data-name="Path 46" d="M148.19,145.7c-7.492,1.1-13.285,21.963-13.285,21.963L151.738,179s4.224-9.541,7.225-18.774C162.107,150.552,156.225,144.527,148.19,145.7Z" fill="#407bff"/>
          <path id="Path_47" data-name="Path 47" d="M148.19,145.7c-7.492,1.1-13.285,21.963-13.285,21.963L151.738,179s4.224-9.541,7.225-18.774C162.107,150.552,156.225,144.527,148.19,145.7Z" opacity="0.4"/>
          <path id="Path_48" data-name="Path 48" d="M124.9,407.046a2.33,2.33,0,0,0,1.569.05,1.088,1.088,0,0,0,.617-.856.636.636,0,0,0-.179-.612c-.726-.692-3.58.094-3.9.186a.185.185,0,0,0-.129.162.2.2,0,0,0,.1.188A9.532,9.532,0,0,0,124.9,407.046Zm1.536-1.259a.559.559,0,0,1,.223.117.242.242,0,0,1,.06.249.738.738,0,0,1-.412.593c-.506.23-1.515-.024-2.744-.681A7.282,7.282,0,0,1,126.436,405.787Z" fill="#407bff"/>
          <path id="Path_49" data-name="Path 49" d="M123.014,406.183a.18.18,0,0,0,.092,0c.9-.2,2.852-1.431,2.907-2.344a.653.653,0,0,0-.455-.653.988.988,0,0,0-.829,0c-1.071.466-1.815,2.646-1.845,2.739a.2.2,0,0,0,.039.192A.2.2,0,0,0,123.014,406.183Zm2.328-2.673c.027.008.053.019.081.03.228.1.22.216.217.265-.032.539-1.327,1.527-2.264,1.894.253-.626.824-1.855,1.511-2.154A.635.635,0,0,1,125.342,403.51Z" fill="#407bff"/>
          <path id="Path_50" data-name="Path 50" d="M196.536,409.3a2.918,2.918,0,0,0,1.913-.49,1.011,1.011,0,0,0,.31-.919.638.638,0,0,0-.335-.5c-.993-.544-4.122,1.085-4.476,1.272a.179.179,0,0,0-.09.2.2.2,0,0,0,.157.159A13.817,13.817,0,0,0,196.536,409.3Zm1.364-1.651a.767.767,0,0,1,.356.069.242.242,0,0,1,.128.2.66.66,0,0,1-.2.608c-.469.436-1.778.509-3.553.217A9.995,9.995,0,0,1,197.9,407.65Z" fill="#407bff"/>
          <path id="Path_51" data-name="Path 51" d="M194.052,409.019a.2.2,0,0,0,.077-.016c.941-.433,2.766-2.156,2.577-3.059-.044-.211-.207-.475-.728-.526a1.3,1.3,0,0,0-1.032.323c-.975.833-1.087,2.98-1.091,3.072a.2.2,0,0,0,.086.171A.2.2,0,0,0,194.052,409.019Zm1.791-3.232c.037,0,.076,0,.114.005.342.036.37.169.379.213.113.541-1.118,1.9-2.071,2.486a4.224,4.224,0,0,1,.934-2.458A.961.961,0,0,1,195.843,405.787Z" fill="#407bff"/>
          <path id="Path_52" data-name="Path 52" d="M142.17,216.073l4.337,7.489-7.979,2.045s-3.572-5.909-1.718-8.868Z" fill="#ff8b7b"/>
          <path id="Path_53" data-name="Path 53" d="M147.277,229.288l-6.7,2.454-2.046-6.135,7.979-2.044Z" fill="#ff8b7b"/>
        </g>
      </g>
      <g id="Character_2" data-name="Character 2">
        <g id="Group_17" data-name="Group 17">
          <path id="Path_54" data-name="Path 54" d="M326.511,140.563c-.874,5.283-1.615,14.936,2.163,18.331a20.333,20.333,0,0,1-12.465,8.9c-8.282-4.2-3.856-8.41-3.856-8.41,5.814-1.573,5.534-5.913,4.392-9.964Z" fill="#ffb573"/>
          <path id="Path_55" data-name="Path 55" d="M331.43,159.622c-1.3-2.574,2.564-4.621.333-4.927s-9.815-2.961-16.815-2.111-12.377,2.441-7.355,10.4S334.3,165.279,331.43,159.622Z" fill="#407bff"/>
          <path id="Path_56" data-name="Path 56" d="M344.5,167.6c1.6,1.786,3.03,3.542,4.482,5.363s2.835,3.664,4.186,5.565a73.266,73.266,0,0,1,7.293,12.372,26.521,26.521,0,0,1,1.345,3.756,13.688,13.688,0,0,1,.523,4.817,17.054,17.054,0,0,1-1.068,4.192,29.947,29.947,0,0,1-1.588,3.462,54.935,54.935,0,0,1-8.386,11.456l-3.629-2.635a117.483,117.483,0,0,0,5.317-11.829,28.871,28.871,0,0,0,.869-2.836,11.251,11.251,0,0,0,.34-2.407,6.674,6.674,0,0,0-.408-1.845,22.685,22.685,0,0,0-1.088-2.55,77.036,77.036,0,0,0-6.856-10.642c-2.585-3.482-5.372-6.983-8.136-10.267Z" fill="#ffb573"/>
          <path id="Path_57" data-name="Path 57" d="M339.78,159.8c6.582.714,13.775,13.09,13.775,13.09l-10.9,12.782s-8.6-7.123-10.362-11.692C330.017,168.062,335.508,159.333,339.78,159.8Z" fill="#263238"/>
          <path id="Path_58" data-name="Path 58" d="M349.174,215.077l-9.141,2.819,7.574,4.869s5-2.707,4.983-6.388Z" fill="#ffb573"/>
          <path id="Path_59" data-name="Path 59" d="M335.783,224.007l6.562,3.733,5.262-4.976-7.574-4.869Z" fill="#ffb573"/>
          <path id="Path_60" data-name="Path 60" d="M296.619,166.267c-.2,5.6.773,18.666,6.659,49.114l35.944-1.068c-.99-13.931-1.295-22.779,3.964-49.77a4.014,4.014,0,0,0-3.406-4.746,99.631,99.631,0,0,0-11.106-.9,114.225,114.225,0,0,0-16.321.486c-4.162.5-8.646,1.369-11.594,1.986A5.2,5.2,0,0,0,296.619,166.267Z" fill="#263238"/>
          <path id="Path_61" data-name="Path 61" d="M303.461,171.391a131.854,131.854,0,0,1-9.05,15.408,84.159,84.159,0,0,1-5.468,7.26,40.527,40.527,0,0,1-6.957,6.687c-.354.254-.7.509-1.1.747a13.546,13.546,0,0,1-1.24.724,18.034,18.034,0,0,1-2.584,1.069,37.494,37.494,0,0,1-4.671,1.149,88.2,88.2,0,0,1-8.931,1.147,158,158,0,0,1-17.6.372l-.212-4.48c2.813-.421,5.669-.84,8.488-1.291,2.826-.427,5.638-.908,8.413-1.447,2.776-.509,5.526-1.1,8.138-1.794a33.089,33.089,0,0,0,3.663-1.2,9.707,9.707,0,0,0,1.377-.672,7.093,7.093,0,0,0,.6-.411,8.235,8.235,0,0,0,.663-.512,36.327,36.327,0,0,0,5.214-5.589c1.644-2.136,3.233-4.394,4.745-6.726s2.938-4.75,4.358-7.173,2.783-4.937,4.058-7.328Z" fill="#ffb573"/>
          <path id="Path_62" data-name="Path 62" d="M300.123,161.544c-8.413,3.012-11.413,14.9-11.413,14.9l12.445,12.873s6.87-10.055,7.833-18.734C309.55,165.515,305.3,159.692,300.123,161.544Z" fill="#263238"/>
          <path id="Path_63" data-name="Path 63" d="M248,201.414l-9.587.011,5.113,7.109s4.951-.871,5.917-4.335Z" fill="#ffb573"/>
          <path id="Path_64" data-name="Path 64" d="M234.15,205.57l2.766,3.646a1.146,1.146,0,0,0,1.138.429l5.472-1.111-5.113-7.109-3.961,2.486A1.143,1.143,0,0,0,234.15,205.57Z" fill="#ffb573"/>
          <path id="Path_65" data-name="Path 65" d="M306.6,130.97c-.058.712-.483,1.258-.948,1.22s-.795-.647-.737-1.358.483-1.258.949-1.22S306.656,130.258,306.6,130.97Z" fill="#263238"/>
          <path id="Path_66" data-name="Path 66" d="M306.063,129.668l-1.669-.633S305.161,130.443,306.063,129.668Z" fill="#263238"/>
          <path id="Path_67" data-name="Path 67" d="M305.861,132.5a19.1,19.1,0,0,1-2.911,4.335,3.073,3.073,0,0,0,2.5.684Z" fill="#ed893e"/>
          <path id="Path_68" data-name="Path 68" d="M309.362,129.32a.42.42,0,0,1-.418-.261c-.731-1.8-3.161-2.381-3.185-2.386a.419.419,0,0,1,.19-.817c.117.027,2.879.692,3.772,2.887a.421.421,0,0,1-.359.577Z" fill="#263238"/>
          <path id="Path_69" data-name="Path 69" d="M330.9,130.341c-1.254,8.7-1.6,12.406-6.383,16.531-7.2,6.2-17.6,2.761-18.973-6.136-1.233-8.008,1.025-20.886,9.868-23.663A11.985,11.985,0,0,1,330.9,130.341Z" fill="#ffb573"/>
          <path id="Path_70" data-name="Path 70" d="M310.672,125.845c-2.111,1.488-2.772,8.72-2.109,13.572.894,6.541-5.194,6.541-8.206,4.416-1.009,10.167,14.909,11.032,23.859,11.25S344.129,153.96,341.164,142s.564-22.278-8.658-24c-.834-5.556-22.049-8.722-26.025,3C307.339,125.333,310.672,125.845,310.672,125.845Z" fill="#263238"/>
          <path id="Path_71" data-name="Path 71" d="M311.731,135.237a6.145,6.145,0,0,1-3.689,3.473c-1.6.52-1.545-2.1-1.12-4.6.382-2.249,1.675-5.229,3.291-4.618C311.8,130.1,312.447,133.052,311.731,135.237Z" fill="#ffb573"/>
          <path id="Path_72" data-name="Path 72" d="M376.268,406.521a3.328,3.328,0,0,0,2.081-.759,1.163,1.163,0,0,0,.273-1.055.676.676,0,0,0-.41-.518c-1.139-.482-4.469,1.669-4.844,1.916a.21.21,0,0,0,.1.384A15.119,15.119,0,0,0,376.268,406.521Zm1.384-1.982a.827.827,0,0,1,.4.036.259.259,0,0,1,.161.212.753.753,0,0,1-.172.693c-.485.534-1.926.766-3.911.641A11.4,11.4,0,0,1,377.652,404.539Z" fill="#407bff"/>
          <path id="Path_73" data-name="Path 73" d="M373.5,406.489a.208.208,0,0,0,.084-.027c1-.582,2.886-2.693,2.621-3.674-.062-.233-.26-.51-.844-.509a1.516,1.516,0,0,0-1.118.477c-1.014,1.035-.976,3.427-.974,3.529a.21.21,0,0,0,.231.2Zm1.735-3.785c.041,0,.084-.006.126-.006.385,0,.426.15.439.2.159.589-1.1,2.227-2.1,2.984a4.867,4.867,0,0,1,.846-2.832A1.1,1.1,0,0,1,375.239,402.7Z" fill="#407bff"/>
          <path id="Path_74" data-name="Path 74" d="M374.112,407.931h-8.854l-4.566-20.5h8.854Z" fill="#ffb573"/>
          <path id="Path_75" data-name="Path 75" d="M374.084,405.944l-9.851-1.375a.552.552,0,0,0-.664.518l-.645,7.857a1.815,1.815,0,0,0,1.5,1.8c3.432.418,5.074.442,9.407,1.046a81.467,81.467,0,0,0,10.832,1.183c3.635,0,3.177-3.675,1.562-4.008-7.238-1.492-8.209-3.94-10.643-6.262A2.775,2.775,0,0,0,374.084,405.944Z" fill="#263238"/>
          <g id="Group_14" data-name="Group 14" opacity="0.2">
            <path id="Path_76" data-name="Path 76" d="M360.694,387.433,363.046,398H371.9l-2.352-10.569Z"/>
          </g>
          <path id="Path_77" data-name="Path 77" d="M339.222,214.313c9.708,13.707,15.331,64.049,18.82,90.964,3.63,27.995,14.278,90.678,14.278,90.678H360.348s-16.522-63.495-22.8-90.821c-6.926-30.165-21.342-90.821-21.342-90.821Z" fill="#407bff"/>
          <path id="Path_78" data-name="Path 78" d="M329.211,237.61c5.85,17.68,6.1,39.96,5.43,54.98-3.6-15.53-8.08-34.54-11.72-49.94Z" opacity="0.2"/>
          <path id="Path_79" data-name="Path 79" d="M316.392,407.521a3.324,3.324,0,0,1-2.147-.545,1.164,1.164,0,0,1-.379-1.021.677.677,0,0,1,.356-.558c1.084-.594,4.615,1.208,5.013,1.416a.209.209,0,0,1-.056.391A15.029,15.029,0,0,1,316.392,407.521Zm-1.577-1.832a.836.836,0,0,0-.392.076.26.26,0,0,0-.139.227.758.758,0,0,0,.241.672c.537.483,1.994.567,3.957.242A11.407,11.407,0,0,0,314.815,405.689Z" fill="#407bff"/>
          <path id="Path_80" data-name="Path 80" d="M319.138,407.209a.219.219,0,0,1-.086-.019c-1.055-.477-3.143-2.387-2.979-3.39.038-.237.206-.533.787-.592a1.523,1.523,0,0,1,1.161.362c1.114.927,1.318,3.311,1.326,3.412a.211.211,0,0,1-.209.227Zm-2.109-3.59a1.075,1.075,0,0,0-.126.007c-.383.039-.408.192-.416.242-.1.6,1.319,2.1,2.394,2.756a4.863,4.863,0,0,0-1.128-2.732A1.1,1.1,0,0,0,317.029,403.619Z" fill="#407bff"/>
          <path id="Path_81" data-name="Path 81" d="M327.758,407.931H318.9l-1.18-20.5h8.854Z" fill="#ffb573"/>
          <path id="Path_82" data-name="Path 82" d="M318.242,406.906h9.947a.7.7,0,0,1,.707.6l1.133,7.87a1.422,1.422,0,0,1-1.419,1.575c-3.468-.06-5.139-.263-9.514-.263-2.691,0-8.845.279-12.561.279-3.635,0-3.915-3.675-2.367-4.008,6.939-1.492,10.256-3.55,12.594-5.513A2.313,2.313,0,0,1,318.242,406.906Z" fill="#263238"/>
          <g id="Group_15" data-name="Group 15" opacity="0.2">
            <path id="Path_83" data-name="Path 83" d="M317.725,387.433,318.332,398h8.858l-.607-10.569Z"/>
          </g>
          <path id="Path_84" data-name="Path 84" d="M303.278,215.381s3.67,66.643,6.207,93.531c2.638,27.968,6.962,87.043,6.962,87.043H328.42s2.62-60.144.674-87.678c-2.123-30.017,5.736-71.654.505-93.678C324.731,214.6,303.278,215.381,303.278,215.381Z" fill="#407bff"/>
          <path id="Path_85" data-name="Path 85" d="M329.457,396.384H315.409l-.7-5.525,15.319,1.094Z" fill="#263238"/>
          <path id="Path_86" data-name="Path 86" d="M373.155,396.384H359.107l-1.407-5.875,15.643,1.456Z" fill="#263238"/>
          <path id="Path_87" data-name="Path 87" d="M339.7,212.187l1.015,3.19c.133.246-.155.509-.571.522L303.148,217c-.324.01-.6-.141-.623-.344l-.42-3.208c-.03-.222.246-.419.6-.43l36.4-1.082A.654.654,0,0,1,339.7,212.187Z" fill="#fff"/>
          <g id="Group_16" data-name="Group 16">
            <path id="Path_88" data-name="Path 88" d="M334.93,216.4l.975-.03c.194-.005.339-.11.322-.232l-.581-4.166c-.017-.122-.19-.217-.384-.211l-.975.028c-.194.006-.339.111-.322.233l.581,4.166C334.563,216.313,334.736,216.408,334.93,216.4Z" fill="#407bff"/>
            <path id="Path_89" data-name="Path 89" d="M305.9,217.266l.975-.029c.194-.006.339-.11.322-.232l-.581-4.167c-.017-.122-.19-.217-.384-.211l-.975.029c-.194.006-.339.11-.322.232l.581,4.167C305.531,217.177,305.7,217.272,305.9,217.266Z" fill="#407bff"/>
            <path id="Path_90" data-name="Path 90" d="M320.414,216.834l.975-.029c.194-.006.339-.11.322-.232l-.581-4.166c-.017-.123-.19-.217-.384-.212l-.975.029c-.194.006-.339.111-.322.232l.581,4.167C320.047,216.745,320.22,216.84,320.414,216.834Z" fill="#407bff"/>
          </g>
        </g>
      </g>
      <g id="Handshake">
        <g id="Group_19" data-name="Group 19">
          <circle id="Ellipse_2" data-name="Ellipse 2" cx="49.414" cy="49.414" r="49.414" transform="translate(200.586 38.73)" fill="#407bff"/>
          <path id="Path_91" data-name="Path 91" d="M221.372,120.005,250,166.029l28.628-46.023Z" fill="#407bff"/>
          <circle id="Ellipse_3" data-name="Ellipse 3" cx="44.333" cy="44.333" r="44.333" transform="translate(205.667 43.81)" fill="#fff"/>
          <g id="Group_18" data-name="Group 18">
            <path id="Path_92" data-name="Path 92" d="M256.16,81.184c-1.217-1.28-2.072-2.795-3.167-4.166a9.544,9.544,0,0,0-4.345-3.084,25.484,25.484,0,0,0-9.248-2.457l-1.935-.115c-5.329-1.115-13.705-10.4-17.912-15.426a44.241,44.241,0,0,0-13.089,23.85c5.351,4.112,11.966,9.584,15.228,13.793a38.008,38.008,0,0,0,3.011,4.815l.147-.124L235.5,87.979c5.355,2.42,12.605-1.4,21.164,2.643,3.761,1.776,8.721,2.184,9.672-1.955C266.719,86.99,259.811,85.026,256.16,81.184Z" fill="#ff8b7b"/>
            <path id="Path_93" data-name="Path 93" d="M282.956,58.5a42.779,42.779,0,0,1-7.129,7.569,24,24,0,0,1-12.493,5.268c-.649.065-1.265.1-1.839.109h0l-1.06.064a22.81,22.81,0,0,0-2.495.3c-.063.008-.119.009-.184.018a38.067,38.067,0,0,0-8.586,2.348c.378.162.693.333,1.005.5,3.2,1.7,3.254,3.636,5.985,6.51,3.651,3.842,10.559,5.806,10.173,7.483-.951,4.139-5.911,3.731-9.672,1.955-8.559-4.043-15.809-.223-21.164-2.643L224.85,98.27l-.147.124L223.2,99.656a4.228,4.228,0,1,0,5.435,6.478l-.3.25a4.228,4.228,0,0,0-.149,6.346h0a4.228,4.228,0,0,0,5.584.131l1.478-1.241a4.228,4.228,0,0,0,5.436,6.478l2.392-2.008a4.228,4.228,0,0,0,5.436,6.478l1.645-1.381-3.633-3.048a3.175,3.175,0,0,1-.111-4.767l.974-.9.585-.54a3.241,3.241,0,0,1,.51-.379,3.173,3.173,0,0,1,3.684.281l.763.64,1.423,1.194a3.175,3.175,0,0,1-.111-4.767l1.559-1.439a3.175,3.175,0,0,1,4.194-.1l1.272,1.067a3.176,3.176,0,0,1-.112-4.767l1.56-1.438a3.176,3.176,0,0,1,4.194-.1l-.505-.423a3.177,3.177,0,0,1-.112-4.767l1.56-1.439a3.175,3.175,0,0,1,4.194-.1l3.568,2.993a38.129,38.129,0,0,0,3.264-5.306l0,0A87.07,87.07,0,0,1,292.411,75.21,44.262,44.262,0,0,0,282.956,58.5Z" fill="#ffb573"/>
            <path id="Path_94" data-name="Path 94" d="M277.118,99.656l-1.5-1.262L272.046,95.4a3.175,3.175,0,0,0-4.194.1l-1.56,1.439a3.177,3.177,0,0,0,.112,4.767l.505.423a3.176,3.176,0,0,0-4.194.1l-1.56,1.438a3.176,3.176,0,0,0,.112,4.767l-1.272-1.067a3.175,3.175,0,0,0-4.194.1l-1.559,1.439a3.175,3.175,0,0,0,.111,4.767l-1.423-1.194-.763-.64a3.173,3.173,0,0,0-3.684-.281,3.241,3.241,0,0,0-.51.379l-.585.54-.974.9a3.175,3.175,0,0,0,.111,4.767l3.633,3.048,1.646,1.381a4.228,4.228,0,0,0,5.435-6.478l-.5-.422,2.9,2.43a4.228,4.228,0,1,0,5.435-6.477l1.478,1.24a4.228,4.228,0,1,0,5.436-6.477l-.3-.249a4.228,4.228,0,0,0,5.434-6.479Z" fill="#ff8b7b"/>
          </g>
          <path id="Path_95" data-name="Path 95" d="M230.4,63.808a.736.736,0,0,1-.458.169,3.688,3.688,0,0,0,.072-.718,3.616,3.616,0,0,0-.047-.469.6.6,0,0,1,.433.1c.324.3.731.617.676-.523-.033-.691-.446-.625-.665-.21a.853.853,0,0,1-.493.3,3.621,3.621,0,0,0-.695-1.438.724.724,0,0,1,.49-.273c.442.041.956.039.213-.829-.45-.525-.736-.219-.654.243a.967.967,0,0,1-.256.609,3.659,3.659,0,0,0-.566-.495,1.751,1.751,0,0,1,.422-.435c.28-.133.448-.165,0-.4-.272-.143-.3-.017-.264.219a1.328,1.328,0,0,1-.277.538,3.631,3.631,0,0,0-.7-.344.619.619,0,0,1,.289-.366c.416-.155.878-.38-.168-.839-.633-.278-.758.122-.484.5a.891.891,0,0,1,.043.6,3.273,3.273,0,0,0-1.6-.074.694.694,0,0,1-.018-.533c.234-.378.461-.839-.647-.56-.67.169-.524.562-.074.694.163.048.311.267.42.48a3.592,3.592,0,0,0-1.367.722c-.186-.167-.464-.457-.431-.686.064-.44.088-.953-.816-.257-.548.423-.257.724.208.667.247-.031.609.286.8.473a3.63,3.63,0,0,0-.527.685,2.391,2.391,0,0,1-.686-.408c-.186-.248-.251-.407-.391.08-.085.3.044.3.268.215a1.867,1.867,0,0,1,.743.234,3.623,3.623,0,0,0-.28.633.6.6,0,0,1-.386-.222c-.22-.387-.515-.807-.8.3-.174.669.241.729.573.4a.782.782,0,0,1,.511-.138,3.37,3.37,0,0,0,.02,1.683.47.47,0,0,1-.311-.052c-.365-.253-.814-.5-.593.617.134.678.533.552.689.11a.693.693,0,0,1,.329-.307,3.631,3.631,0,0,0,.381.779,1.384,1.384,0,0,1-.456.143c-.239-.014-.364-.054-.148.27.131.2.2.123.26-.05.024-.072.23-.185.411-.275a3.631,3.631,0,0,0,.456.527.553.553,0,0,1-.336.209c-.443.024-.951.1-.089.85.522.454.759.11.612-.335a.75.75,0,0,1,.091-.494,3.611,3.611,0,0,0,1.038.567c-.062.217-.165.451-.326.516-.412.165-.869.4.189.834.64.261.754-.142.471-.515a1.077,1.077,0,0,1-.035-.742,3.593,3.593,0,0,0,.8.115,1.46,1.46,0,0,1-.037.5c-.1.216-.187.317.195.238.231-.049.188-.138.05-.26a1.059,1.059,0,0,1-.1-.467,3.59,3.59,0,0,0,.626-.063.826.826,0,0,1,.073.644c-.223.384-.438.851.662.543.666-.187.509-.575.056-.7-.19-.051-.365-.329-.484-.565a3.612,3.612,0,0,0,1.461-.785.612.612,0,0,1,.2.408c-.035.443-.026.957.831.2.519-.457.209-.739-.251-.651a.837.837,0,0,1-.533-.193,3.639,3.639,0,0,0,.456-.6,1.676,1.676,0,0,1,.465.347c.168.26.223.422.4-.054.1-.288-.024-.3-.252-.232a1.234,1.234,0,0,1-.54-.187,3.631,3.631,0,0,0,.3-.7.583.583,0,0,1,.381.192c.244.371.567.771.78-.351C231.132,63.489,230.714,63.457,230.4,63.808Z" fill="#407bff"/>
          <path id="Path_96" data-name="Path 96" d="M214.6,80.835a1.009,1.009,0,0,1-.669-.024,5.088,5.088,0,0,0,.469-.879,4.812,4.812,0,0,0,.187-.626.81.81,0,0,1,.5.351c.25.557.6,1.17,1.132-.317.321-.9-.237-1.031-.732-.616a1.158,1.158,0,0,1-.781.125,5.027,5.027,0,0,0-.123-2.2.983.983,0,0,1,.764-.094c.538.282,1.19.547.706-.949-.294-.905-.817-.663-.956-.03-.053.236-.355.47-.644.646a5,5,0,0,0-.457-.928,2.413,2.413,0,0,1,.764-.337c.424-.024.654.023.209-.511-.269-.323-.375-.179-.449.143-.03.125-.341.353-.633.544a4.967,4.967,0,0,0-.7-.8.856.856,0,0,1,.557-.318c.609.019,1.312-.028.23-1.159-.656-.685-1.024-.239-.878.39a1.236,1.236,0,0,1-.262.793,4.88,4.88,0,0,0-1.128-.674,5.029,5.029,0,0,0-.86-.256.968.968,0,0,1,.258-.69c.494-.361,1.024-.832-.524-1.052-.938-.133-.959.445-.46.848a1.293,1.293,0,0,1,.281.833,4.93,4.93,0,0,0-2.112.21c-.147-.31-.347-.825-.184-1.1.313-.529.614-1.173-.9-.753-.916.254-.706.791-.087.96.329.09.62.683.763,1.021a5.051,5.051,0,0,0-1.027.6,3.27,3.27,0,0,1-.654-.879c-.1-.414-.1-.65-.537-.1-.262.333-.1.407.226.414.158,0,.556.4.818.687a4.893,4.893,0,0,0-.687.664.822.822,0,0,1-.373-.486c-.074-.609-.227-1.3-1.171-.036-.573.765-.079,1.057.515.808a1.069,1.069,0,0,1,.719.089,5.144,5.144,0,0,0-.548.985,5.02,5.02,0,0,0-.312,1.178.64.64,0,0,1-.366-.229c-.329-.513-.765-1.067-1.075.48-.187.937.385.984.815.5a.952.952,0,0,1,.577-.222,5.024,5.024,0,0,0,.073,1.2,1.91,1.91,0,0,1-.654-.055c-.294-.142-.431-.259-.328.268.063.319.187.261.355.071a1.492,1.492,0,0,1,.665-.137,5.059,5.059,0,0,0,.3.911.749.749,0,0,1-.534.092c-.574-.2-1.258-.366-.561,1.041.422.852.9.535.951-.11a1.058,1.058,0,0,1,.376-.584,4.908,4.908,0,0,0,1.016,1.266c-.194.244-.447.49-.685.489-.609,0-1.311.063-.2,1.165.673.668,1.029.212.867-.413a1.5,1.5,0,0,1,.346-.967,4.908,4.908,0,0,0,.955.566,2.034,2.034,0,0,1-.309.617c-.243.222-.4.307.121.4.318.058.312-.079.2-.306a1.473,1.473,0,0,1,.12-.648,4.888,4.888,0,0,0,.825.245,1.156,1.156,0,0,1-.245.861c-.485.375-1,.86.551,1.039.941.108.947-.47.437-.861a1.485,1.485,0,0,1-.314-.974,4.934,4.934,0,0,0,2.261-.242.84.84,0,0,1,.042.627c-.277.548-.536,1.21.946.691.9-.314.653-.836.025-.963a1.138,1.138,0,0,1-.572-.524,5.171,5.171,0,0,0,.894-.535,2.3,2.3,0,0,1,.406.685c.076.42.06.656.529.137.283-.314.128-.4-.2-.428-.122-.011-.368-.266-.586-.52a4.963,4.963,0,0,0,.742-.736.789.789,0,0,1,.38.444c.114.6.312,1.281,1.172-.042C215.69,80.805,215.178,80.546,214.6,80.835Z" fill="#407bff"/>
          <path id="Path_97" data-name="Path 97" d="M232.6,78.156c.22.189.494.382.427-.36-.041-.449-.308-.394-.44-.118a.572.572,0,0,1-.331.212,2.379,2.379,0,0,0-.218-.584,2.456,2.456,0,0,0-.241-.349.449.449,0,0,1,.3-.18c.289.014.624,0,.115-.546-.307-.329-.485-.122-.419.176a.606.606,0,0,1-.142.391,2.352,2.352,0,0,0-.84-.552c.035-.158.111-.409.254-.463.271-.1.572-.249-.111-.546-.413-.18-.494.081-.315.328.1.133.028.439-.018.606a2.324,2.324,0,0,0-.556-.085,1.567,1.567,0,0,1,.016-.52c.083-.185.153-.271-.169-.2-.2.045-.157.12-.038.22a1.2,1.2,0,0,1,.1.5,2.358,2.358,0,0,0-.442.039.392.392,0,0,1,0-.289c.152-.247.3-.548-.423-.364-.437.111-.34.367-.047.453.089.025.168.133.235.249a2.193,2.193,0,0,0-.949.539.311.311,0,0,1-.069-.193c.03-.288.031-.623-.539-.144-.345.29-.147.478.154.428a.455.455,0,0,1,.276.1,2.325,2.325,0,0,0-.321.459.873.873,0,0,1-.226-.216c-.067-.14-.084-.224-.2,0-.071.137-.008.153.11.133.049-.009.177.072.286.148a2.368,2.368,0,0,0-.156.421.352.352,0,0,1-.226-.121c-.153-.245-.358-.511-.514.217-.094.441.177.468.385.244a.492.492,0,0,1,.309-.1,2.373,2.373,0,0,0,0,.766.508.508,0,0,1-.4-.025c-.224-.183-.5-.368-.416.371.052.448.318.386.442.107.052-.118.248-.2.413-.253a2.39,2.39,0,0,0,.186.494.946.946,0,0,1-.295.135c-.156.01-.24-.007-.075.186.1.117.138.064.164-.053.01-.046.127-.132.236-.2a2.354,2.354,0,0,0,.232.336c-.1.12-.223.249-.344.245-.289-.006-.623.018-.1.549.316.321.488.11.415-.187a.69.69,0,0,1,.171-.453,2.361,2.361,0,0,0,.9.584.4.4,0,0,1-.163.246c-.264.119-.555.286.146.538.424.152.488-.113.293-.348a.545.545,0,0,1-.055-.365,2.4,2.4,0,0,0,.485.07,1.093,1.093,0,0,1-.051.374c-.1.178-.171.26.155.209.2-.031.165-.109.053-.217a.815.815,0,0,1-.063-.367,2.348,2.348,0,0,0,.485-.049.379.379,0,0,1,.016.276c-.135.257-.262.567.445.336.429-.141.316-.389.018-.455a.481.481,0,0,1-.235-.211,2.408,2.408,0,0,0,.427-.183,2.269,2.269,0,0,0,.248-.171.4.4,0,0,1,.086.275c-.072.28-.123.611.511.221.384-.237.216-.452-.089-.446a.554.554,0,0,1-.324-.19,2.347,2.347,0,0,0,.6-.846.479.479,0,0,1,.312.192c.116.266.278.558.54-.139.157-.422-.107-.489-.345-.3a.625.625,0,0,1-.428.046,2.435,2.435,0,0,0,.1-.479,1.129,1.129,0,0,1,.381.1c.164.118.235.2.228-.126,0-.2-.086-.178-.208-.082a.87.87,0,0,1-.394.012,2.347,2.347,0,0,0-.023-.5A.4.4,0,0,1,232.6,78.156Z" fill="#407bff"/>
          <path id="Path_98" data-name="Path 98" d="M247.548,105.738c.147.127.33.255.285-.24-.028-.3-.206-.263-.294-.079a.379.379,0,0,1-.22.142,1.439,1.439,0,0,0-.307-.623.3.3,0,0,1,.2-.12c.193.01.416,0,.077-.364-.205-.22-.324-.082-.28.118a.407.407,0,0,1-.094.26,1.589,1.589,0,0,0-.561-.368c.023-.106.074-.273.169-.309.181-.068.382-.166-.074-.365-.276-.119-.329.055-.21.22.064.088.019.292-.012.4a1.593,1.593,0,0,0-.371-.057,1.038,1.038,0,0,1,.011-.347c.055-.123.1-.181-.113-.132-.13.03-.1.08-.026.147a.8.8,0,0,1,.067.332,1.625,1.625,0,0,0-.295.026.261.261,0,0,1,0-.193c.1-.165.2-.366-.282-.243-.292.075-.227.245-.032.3a.344.344,0,0,1,.157.166,1.622,1.622,0,0,0-.325.133,1.527,1.527,0,0,0-.308.228.206.206,0,0,1-.046-.129c.02-.192.021-.416-.36-.1-.23.193-.1.319.1.285a.315.315,0,0,1,.184.063,1.648,1.648,0,0,0-.215.307.594.594,0,0,1-.15-.144c-.045-.094-.056-.15-.134,0-.047.091-.005.1.074.088.032-.006.118.049.191.1a1.585,1.585,0,0,0-.105.281.236.236,0,0,1-.15-.081c-.1-.163-.239-.341-.343.145-.063.294.118.313.257.163a.326.326,0,0,1,.206-.066,1.593,1.593,0,0,0,0,.511.336.336,0,0,1-.265-.016c-.15-.122-.336-.246-.278.248.035.3.213.257.295.071.035-.079.166-.134.275-.169a1.625,1.625,0,0,0,.125.329.62.62,0,0,1-.2.091c-.1.006-.16-.005-.05.124.067.078.092.043.109-.035.007-.031.085-.088.158-.136a1.561,1.561,0,0,0,.155.224c-.064.081-.149.166-.23.164-.193,0-.416.012-.067.366.211.215.326.073.277-.125a.461.461,0,0,1,.114-.3,1.577,1.577,0,0,0,.6.39.266.266,0,0,1-.109.164c-.176.08-.37.191.1.359.283.1.325-.076.195-.232a.367.367,0,0,1-.036-.243,1.677,1.677,0,0,0,.323.046.719.719,0,0,1-.034.25c-.063.119-.114.173.1.139.131-.021.11-.073.035-.145a.551.551,0,0,1-.042-.245,1.485,1.485,0,0,0,.324-.033.256.256,0,0,1,.01.185c-.09.171-.174.378.3.224.286-.094.21-.26.011-.3a.321.321,0,0,1-.157-.141,1.506,1.506,0,0,0,.285-.121,1.485,1.485,0,0,0,.166-.115.262.262,0,0,1,.057.183c-.048.188-.082.409.342.148.256-.158.144-.3-.06-.3a.36.36,0,0,1-.216-.126,1.561,1.561,0,0,0,.4-.565.319.319,0,0,1,.207.129c.078.177.187.372.361-.093.1-.282-.072-.327-.23-.2a.417.417,0,0,1-.286.03,1.512,1.512,0,0,0,.069-.319.743.743,0,0,1,.255.069c.11.079.157.136.152-.084,0-.133-.057-.119-.139-.055a.581.581,0,0,1-.263.008,1.571,1.571,0,0,0-.015-.335A.27.27,0,0,1,247.548,105.738Z" fill="#407bff"/>
          <path id="Path_99" data-name="Path 99" d="M274.047,90.412c.11.094.245.19.212-.178-.02-.223-.153-.2-.218-.059a.291.291,0,0,1-.164.106,1.2,1.2,0,0,0-.109-.291,1.241,1.241,0,0,0-.12-.173.222.222,0,0,1,.148-.089c.143.007.31,0,.057-.271-.153-.164-.241-.061-.208.087a.3.3,0,0,1-.071.194,1.164,1.164,0,0,0-.417-.274c.018-.079.055-.2.126-.23.135-.05.284-.124-.055-.271-.2-.089-.245.04-.156.163.047.066.014.218-.009.3a1.166,1.166,0,0,0-.276-.042.764.764,0,0,1,.008-.259c.041-.091.076-.134-.084-.1-.1.022-.078.06-.019.11a.581.581,0,0,1,.049.247,1.157,1.157,0,0,0-.219.019.193.193,0,0,1,0-.144c.076-.122.149-.272-.21-.18-.217.055-.169.182-.023.224.044.013.083.067.117.124a1.15,1.15,0,0,0-.243.1,1.169,1.169,0,0,0-.229.169.153.153,0,0,1-.034-.1c.015-.143.015-.309-.267-.071-.172.144-.074.237.076.212a.226.226,0,0,1,.137.047,1.186,1.186,0,0,0-.16.228.464.464,0,0,1-.112-.107c-.033-.07-.041-.111-.1,0-.035.068,0,.075.055.065a.353.353,0,0,1,.142.074,1.147,1.147,0,0,0-.078.209.174.174,0,0,1-.112-.06c-.076-.122-.178-.254-.255.108-.047.219.088.232.191.121a.241.241,0,0,1,.153-.049,1.182,1.182,0,0,0,0,.38.253.253,0,0,1-.2-.012c-.111-.09-.25-.183-.207.184.027.223.159.192.22.054.026-.059.123-.1.2-.126a1.218,1.218,0,0,0,.093.245.461.461,0,0,1-.147.067c-.077.005-.119,0-.037.093.05.057.068.031.081-.027.005-.023.063-.065.117-.1a1.178,1.178,0,0,0,.116.167c-.048.06-.111.124-.171.122-.144,0-.31.009-.05.273.157.159.242.054.206-.093a.339.339,0,0,1,.085-.225,1.179,1.179,0,0,0,.447.29.2.2,0,0,1-.081.122c-.131.059-.275.142.073.267.21.076.242-.056.145-.173a.275.275,0,0,1-.027-.181,1.148,1.148,0,0,0,.241.034.548.548,0,0,1-.026.187c-.047.088-.085.129.077.1.1-.015.082-.054.027-.108a.393.393,0,0,1-.032-.182,1.223,1.223,0,0,0,.241-.024.184.184,0,0,1,.008.137c-.067.128-.13.281.221.167.213-.07.157-.193.009-.226a.243.243,0,0,1-.117-.105,1.188,1.188,0,0,0,.212-.091.96.96,0,0,0,.123-.085.194.194,0,0,1,.043.137c-.035.139-.061.3.254.11.191-.118.107-.225-.044-.222a.274.274,0,0,1-.161-.094,1.16,1.16,0,0,0,.3-.42.239.239,0,0,1,.155.095c.058.132.138.277.268-.069.079-.21-.053-.243-.171-.147a.321.321,0,0,1-.213.023,1.22,1.22,0,0,0,.052-.238.546.546,0,0,1,.189.051c.082.059.117.1.114-.062,0-.1-.043-.089-.1-.041a.429.429,0,0,1-.2.006,1.167,1.167,0,0,0-.011-.25A.205.205,0,0,1,274.047,90.412Z" fill="#407bff"/>
          <path id="Path_100" data-name="Path 100" d="M269.825,77.968c.109.094.245.19.212-.179-.02-.222-.153-.2-.218-.058a.288.288,0,0,1-.165.1,1.043,1.043,0,0,0-.228-.463.227.227,0,0,1,.148-.09c.143.007.309,0,.057-.271-.153-.163-.241-.06-.208.088a.3.3,0,0,1-.071.194,1.155,1.155,0,0,0-.417-.274c.018-.079.055-.2.126-.23.135-.051.284-.124-.055-.271-.205-.09-.245.04-.156.163.047.065.014.217-.009.3a1.174,1.174,0,0,0-.276-.042.759.759,0,0,1,.008-.258c.041-.092.076-.135-.084-.1-.1.022-.078.059-.019.109a.605.605,0,0,1,.049.247,1.177,1.177,0,0,0-.22.02.2.2,0,0,1,0-.144c.075-.123.148-.272-.21-.181-.217.056-.169.182-.023.225a.252.252,0,0,1,.116.124,1.159,1.159,0,0,0-.242.1,1.174,1.174,0,0,0-.229.17.157.157,0,0,1-.034-.1c.015-.143.015-.31-.268-.072-.171.144-.073.238.077.213a.224.224,0,0,1,.137.047,1.187,1.187,0,0,0-.16.228.445.445,0,0,1-.112-.107c-.033-.07-.041-.112-.1,0-.035.068,0,.076.054.066a.347.347,0,0,1,.142.074,1.19,1.19,0,0,0-.077.209.184.184,0,0,1-.112-.06c-.076-.122-.178-.254-.255.107-.047.219.088.233.19.121a.25.25,0,0,1,.154-.048,1.183,1.183,0,0,0,0,.38.255.255,0,0,1-.2-.012c-.111-.091-.25-.183-.207.184.026.222.159.192.22.053.026-.059.123-.1.205-.125a1.184,1.184,0,0,0,.092.244.455.455,0,0,1-.146.068c-.078,0-.119,0-.037.092.05.058.068.032.081-.026.005-.023.063-.066.117-.1a1.234,1.234,0,0,0,.115.167c-.047.06-.11.123-.17.122-.144,0-.31.009-.051.272.157.16.243.055.206-.093a.353.353,0,0,1,.085-.225,1.178,1.178,0,0,0,.448.29.194.194,0,0,1-.081.122c-.131.06-.275.143.072.267.211.076.243-.056.146-.172a.269.269,0,0,1-.027-.181,1.139,1.139,0,0,0,.241.034.538.538,0,0,1-.026.186c-.047.089-.085.129.077.1.1-.016.082-.054.027-.108a.4.4,0,0,1-.032-.182,1.16,1.16,0,0,0,.241-.025.192.192,0,0,1,.008.138c-.067.127-.13.281.221.166.213-.069.157-.193.009-.226a.236.236,0,0,1-.117-.1,1.265,1.265,0,0,0,.212-.091,1.212,1.212,0,0,0,.123-.085.193.193,0,0,1,.043.136c-.036.14-.061.3.254.11.19-.117.107-.224-.045-.221A.275.275,0,0,1,269.3,79a1.176,1.176,0,0,0,.3-.421.236.236,0,0,1,.155.1c.057.132.138.277.268-.069.078-.21-.053-.243-.171-.148a.309.309,0,0,1-.213.023,1.2,1.2,0,0,0,.052-.238.566.566,0,0,1,.189.052c.082.058.117.1.113-.063,0-.1-.042-.088-.1-.04a.434.434,0,0,1-.2,0,1.155,1.155,0,0,0-.011-.249A.2.2,0,0,1,269.825,77.968Z" fill="#407bff"/>
          <path id="Path_101" data-name="Path 101" d="M252.689,73.82c.219.19.493.382.426-.359-.041-.449-.308-.395-.439-.118a.58.58,0,0,1-.331.212,2.139,2.139,0,0,0-.46-.933.445.445,0,0,1,.3-.18c.289.014.624,0,.116-.546-.308-.329-.486-.122-.42.176a.608.608,0,0,1-.142.391,2.355,2.355,0,0,0-.84-.553c.035-.158.111-.408.254-.462.271-.1.572-.25-.111-.546-.413-.18-.494.081-.315.328.1.132.028.438-.018.6a2.42,2.42,0,0,0-.556-.085,1.568,1.568,0,0,1,.016-.52c.083-.184.153-.271-.169-.2-.195.045-.157.121-.038.221a1.211,1.211,0,0,1,.1.5,2.447,2.447,0,0,0-.443.038.393.393,0,0,1,0-.289c.152-.247.3-.548-.423-.364-.436.112-.34.367-.047.453.09.026.169.134.235.249a2.318,2.318,0,0,0-.488.2,2.383,2.383,0,0,0-.461.341.311.311,0,0,1-.069-.193c.03-.288.031-.623-.538-.144-.346.29-.148.478.153.428a.459.459,0,0,1,.276.094,2.331,2.331,0,0,0-.321.46.908.908,0,0,1-.226-.216c-.067-.141-.083-.225-.2,0-.071.136-.008.152.11.132a.717.717,0,0,1,.286.149,2.368,2.368,0,0,0-.156.421.364.364,0,0,1-.226-.121c-.153-.246-.357-.511-.513.217-.1.44.177.468.384.243a.492.492,0,0,1,.309-.1,2.345,2.345,0,0,0,.005.766.506.506,0,0,1-.4-.024c-.224-.183-.5-.369-.416.371.053.447.318.386.442.107.053-.119.248-.2.413-.253a2.418,2.418,0,0,0,.186.493.93.93,0,0,1-.3.136c-.156.009-.24-.007-.074.186.1.116.137.064.163-.053.011-.047.128-.132.236-.2a2.412,2.412,0,0,0,.232.336c-.1.12-.223.248-.343.245-.29-.007-.624.018-.1.549.316.321.489.109.415-.188a.7.7,0,0,1,.171-.453,2.346,2.346,0,0,0,.9.584.4.4,0,0,1-.164.246c-.264.12-.554.287.146.539.425.152.488-.114.293-.349a.549.549,0,0,1-.054-.364,2.383,2.383,0,0,0,.484.069,1.079,1.079,0,0,1-.051.375c-.1.178-.171.26.155.208.2-.031.165-.108.054-.217a.8.8,0,0,1-.064-.366,2.342,2.342,0,0,0,.485-.05.376.376,0,0,1,.016.277c-.135.256-.262.566.446.335.428-.14.315-.389.017-.455a.48.48,0,0,1-.235-.211,2.3,2.3,0,0,0,.427-.182,2.271,2.271,0,0,0,.248-.171.4.4,0,0,1,.086.274c-.072.281-.122.612.511.222.384-.237.216-.452-.089-.447a.557.557,0,0,1-.324-.189,2.349,2.349,0,0,0,.6-.846c.132.038.269.1.311.192.116.266.279.558.54-.139.158-.422-.107-.489-.345-.3a.63.63,0,0,1-.428.046,2.38,2.38,0,0,0,.1-.479,1.146,1.146,0,0,1,.382.1c.164.119.235.2.227-.126,0-.2-.085-.178-.208-.081a.873.873,0,0,1-.394.011,2.351,2.351,0,0,0-.023-.5A.41.41,0,0,1,252.689,73.82Z" fill="#407bff"/>
          <path id="Path_102" data-name="Path 102" d="M221.28,86.9a.6.6,0,0,1-.021.394,2.921,2.921,0,0,0-.51-.282,2.865,2.865,0,0,0-.363-.113.48.48,0,0,1,.209-.291c.329-.144.691-.347-.174-.668-.523-.195-.605.133-.367.427a.685.685,0,0,1,.066.461,2.929,2.929,0,0,0-1.289.06.586.586,0,0,1-.047-.451c.17-.315.332-.7-.548-.421-.533.168-.4.478-.027.563.137.032.272.212.371.383a2.962,2.962,0,0,0-.547.264,1.441,1.441,0,0,1-.19-.452c-.009-.25.02-.385-.3-.126-.192.157-.108.22.079.266.073.018.2.2.312.375a3,3,0,0,0-.477.41.5.5,0,0,1-.18-.33c.017-.358,0-.773-.676-.141-.407.382-.15.6.219.519a.709.709,0,0,1,.461.159,2.645,2.645,0,0,0-.563,1.165.56.56,0,0,1-.4-.156c-.206-.293-.477-.608-.621.3-.087.552.251.567.492.276a.751.751,0,0,1,.49-.161,2.915,2.915,0,0,0,.1,1.245c-.183.085-.486.2-.646.1-.306-.187-.68-.368-.449.525.14.541.456.42.561.057.056-.194.4-.362.6-.444a3.009,3.009,0,0,0,.342.608,1.933,1.933,0,0,1-.52.38c-.244.06-.382.058-.065.316.192.156.237.062.245-.131,0-.093.241-.325.409-.477a2.883,2.883,0,0,0,.382.408.489.489,0,0,1-.288.217c-.357.04-.763.126-.033.689.442.342.618.053.478-.3a.636.636,0,0,1,.06-.423,2.961,2.961,0,0,0,.57.329,2.9,2.9,0,0,0,.686.19.38.38,0,0,1-.137.214c-.3.191-.633.445.27.636.546.116.579-.221.3-.477a.553.553,0,0,1-.124-.341,2.92,2.92,0,0,0,.7-.036,1.125,1.125,0,0,1-.039.385c-.086.172-.156.252.154.194.187-.035.154-.108.045-.208a.89.89,0,0,1-.074-.393,2.935,2.935,0,0,0,.536-.171.444.444,0,0,1,.049.315c-.123.337-.227.739.6.337.5-.244.322-.53-.055-.561a.611.611,0,0,1-.338-.225,2.906,2.906,0,0,0,.751-.591c.14.115.282.266.279.406-.008.359.024.773.679.124.4-.392.134-.605-.233-.513a.867.867,0,0,1-.562-.209,2.916,2.916,0,0,0,.34-.559,1.179,1.179,0,0,1,.358.185c.128.145.176.239.238-.069.038-.187-.043-.184-.176-.12a.855.855,0,0,1-.378-.074,3.014,3.014,0,0,0,.151-.485.668.668,0,0,1,.5.149c.214.288.493.6.613-.319.073-.553-.266-.56-.5-.262a.87.87,0,0,1-.573.18,2.928,2.928,0,0,0-.119-1.334.489.489,0,0,1,.367-.02c.318.166.7.322.413-.554-.174-.53-.482-.389-.563-.02-.026.121-.165.238-.312.334a2.959,2.959,0,0,0-.3-.529,1.347,1.347,0,0,1,.4-.236c.247-.042.384-.031.086-.31-.181-.169-.233-.078-.253.113-.008.072-.159.215-.31.342a2.887,2.887,0,0,0-.423-.441.468.468,0,0,1,.263-.221c.353-.064.753-.177-.012-.691C221.273,86.257,221.117,86.557,221.28,86.9Z" fill="#407bff"/>
          <path id="Path_103" data-name="Path 103" d="M229.5,92.119c.21-.1.44-.245-.132-.43-.346-.112-.39.1-.227.289a.47.47,0,0,1,.053.313,1.729,1.729,0,0,0-.839.045.362.362,0,0,1-.039-.278c.1-.21.2-.463-.369-.258-.342.124-.245.321,0,.367.088.016.176.124.245.229a1.906,1.906,0,0,0-.677.449c-.106-.077-.268-.212-.262-.335.01-.234,0-.5-.441-.091-.265.25-.1.392.144.338.128-.029.334.118.443.2a1.942,1.942,0,0,0-.239.386,1.257,1.257,0,0,1-.381-.177c-.111-.12-.153-.2-.2.063-.029.159.039.155.151.1a.985.985,0,0,1,.4.084,1.917,1.917,0,0,0-.112.341.318.318,0,0,1-.215-.091c-.136-.191-.313-.4-.4.2-.055.36.165.37.322.179a.416.416,0,0,1,.259-.1,1.783,1.783,0,0,0,.1.876.24.24,0,0,1-.165-.01c-.205-.113-.453-.22-.278.355.106.348.308.261.367.021a.363.363,0,0,1,.157-.174,1.962,1.962,0,0,0,.239.384.719.719,0,0,1-.231.1c-.126,0-.194-.009-.063.149.079.1.11.054.133-.04.009-.039.11-.109.2-.165a1.935,1.935,0,0,0,.263.249.289.289,0,0,1-.161.129c-.231.036-.493.1,0,.451.3.21.4.017.3-.208a.4.4,0,0,1,.025-.261,1.926,1.926,0,0,0,.57.239.412.412,0,0,1-.144.288c-.207.108-.433.257.144.426.349.1.387-.114.219-.294a.565.565,0,0,1-.057-.387,1.887,1.887,0,0,0,.426.018.794.794,0,0,1,.007.263c-.043.118-.081.176.114.114.119-.038.092-.082.013-.139a.535.535,0,0,1-.076-.239,1.927,1.927,0,0,0,.323-.066.43.43,0,0,1,.073.333c-.1.213-.184.469.375.249.339-.132.236-.328-.007-.367-.1-.016-.208-.153-.282-.271a1.905,1.905,0,0,0,.719-.484.324.324,0,0,1,.131.2c.005.233.037.5.446.062.248-.267.071-.4-.166-.328a.443.443,0,0,1-.287-.075A1.973,1.973,0,0,0,230.61,95a.931.931,0,0,1,.262.157c.1.128.139.21.2-.049.039-.156-.029-.157-.145-.108a.646.646,0,0,1-.292-.069,1.865,1.865,0,0,0,.117-.376.311.311,0,0,1,.211.076c.147.182.337.374.39-.225.032-.363-.189-.357-.332-.157a.391.391,0,0,1-.232.108,1.564,1.564,0,0,0-.048-.614.312.312,0,0,1,.231.024c.185.142.415.284.326-.31-.054-.36-.267-.3-.359-.075a.455.455,0,0,1-.244.18,1.9,1.9,0,0,0-.438-.713c.07-.087.157-.17.241-.17.234,0,.5-.03.068-.445-.263-.252-.4-.076-.33.161a.5.5,0,0,1-.1.333,1.871,1.871,0,0,0-.323-.229.934.934,0,0,1,.2-.251c.14-.084.226-.11-.021-.209-.15-.06-.16.007-.127.129a.69.69,0,0,1-.116.3,1.926,1.926,0,0,0-.38-.142A.334.334,0,0,1,229.5,92.119Z" fill="#407bff"/>
          <path id="Path_104" data-name="Path 104" d="M241.042,86.833c.21-.1.44-.246-.132-.431-.346-.112-.391.1-.227.289a.47.47,0,0,1,.053.313,1.878,1.878,0,0,0-.5-.023,1.96,1.96,0,0,0-.336.068.369.369,0,0,1-.039-.277c.1-.21.2-.464-.368-.259-.343.124-.245.322,0,.367.088.017.177.124.245.229a1.915,1.915,0,0,0-.676.449c-.106-.076-.268-.212-.263-.335.01-.234,0-.5-.441-.091-.265.25-.1.393.144.338.129-.029.334.118.444.206a1.935,1.935,0,0,0-.24.386,1.274,1.274,0,0,1-.38-.177c-.111-.12-.153-.2-.2.062-.029.159.039.155.152.1a.962.962,0,0,1,.4.084,1.906,1.906,0,0,0-.112.34.314.314,0,0,1-.215-.091c-.135-.191-.312-.395-.4.2-.056.36.165.369.321.178a.416.416,0,0,1,.26-.095,1.77,1.77,0,0,0,.1.876.252.252,0,0,1-.165-.01c-.2-.113-.453-.221-.278.354.106.348.309.261.367.022a.373.373,0,0,1,.158-.175,1.872,1.872,0,0,0,.239.384.722.722,0,0,1-.232.1c-.126.006-.193-.009-.063.149.079.1.111.054.133-.04.01-.038.111-.108.2-.165a1.884,1.884,0,0,0,.263.25.291.291,0,0,1-.162.129c-.231.036-.493.1,0,.45.3.21.4.017.3-.208a.4.4,0,0,1,.026-.261,1.881,1.881,0,0,0,.57.24c-.022.116-.063.245-.144.287-.207.109-.434.257.143.427.349.1.388-.114.22-.295a.552.552,0,0,1-.057-.386,2,2,0,0,0,.425.018.737.737,0,0,1,.007.262c-.042.119-.081.176.115.114.118-.037.091-.082.012-.138a.558.558,0,0,1-.076-.239,1.92,1.92,0,0,0,.324-.067.436.436,0,0,1,.073.334c-.1.212-.185.468.375.249.338-.133.236-.328-.008-.368-.1-.016-.207-.152-.282-.27a1.911,1.911,0,0,0,.72-.485.327.327,0,0,1,.131.2c0,.234.037.5.446.062.247-.267.07-.4-.166-.328a.439.439,0,0,1-.288-.075,1.9,1.9,0,0,0,.205-.338.88.88,0,0,1,.262.157c.1.127.139.209.2-.049.04-.157-.028-.157-.144-.109a.652.652,0,0,1-.293-.069,1.911,1.911,0,0,0,.118-.376.306.306,0,0,1,.21.076c.148.182.338.374.39-.224.032-.363-.188-.358-.332-.157a.388.388,0,0,1-.231.107,1.957,1.957,0,0,0,0-.375,1.857,1.857,0,0,0-.049-.238.317.317,0,0,1,.231.023c.186.142.416.285.327-.31-.054-.36-.267-.3-.36-.075a.445.445,0,0,1-.243.181,1.906,1.906,0,0,0-.438-.714c.07-.086.157-.169.241-.17.234,0,.5-.03.068-.445-.264-.251-.4-.076-.33.162a.5.5,0,0,1-.1.332,1.926,1.926,0,0,0-.323-.229.909.909,0,0,1,.2-.25c.139-.085.226-.11-.022-.21-.15-.059-.159.008-.127.129a.689.689,0,0,1-.116.3,1.929,1.929,0,0,0-.38-.143A.325.325,0,0,1,241.042,86.833Z" fill="#407bff"/>
        </g>
      </g>
    </g>
  </g>
</svg>
