<svg width="512" height="512" viewBox="0 0 484.559 484.559" xmlns="http://www.w3.org/2000/svg" class=""><g transform="translate(300, 300)"><path d="M102.9,-144.1C145.9,-132.4,202.10000000000002,-125.2,207.59999999999997,-99C213.10000000000002,-72.8,167.9,-27.6,149.1,13.100000000000001C130.2,53.7,137.6,89.7,124.2,110.8C110.8,131.8,76.5,137.9,41.7,153.4C6.800000000000001,168.9,-28.7,193.8,-49.9,182.1C-71,170.3,-77.8,121.8,-109,91.4C-140.2,60.9,-195.8,48.5,-215.4,21C-234.89999999999998,-6.6,-218.4,-49.4,-203,-96.7C-187.6,-143.9,-173.3,-195.6,-139.6,-211.6C-106,-227.59999999999997,-53,-207.8,-11.5,-189.8C29.9,-171.9,59.8,-155.8,102.9,-144.1Z" fill="#FFFCEF" stroke="none" stroke-width="0"></path></g></svg>