<svg xmlns="http://www.w3.org/2000/svg" width="273.083" height="273.091" viewBox="0 0 273.083 273.091">
  <g id="character" transform="translate(-85.154 -87.593)">
    <path id="Path_28" data-name="Path 28" d="M358.237,224a136.426,136.426,0,0,1-62.31,114.76v.009c-.475.3-.959.611-1.444.916q-2.649,1.673-5.389,3.236c-1.848,1.052-3.731,2.059-5.632,3.021A135.474,135.474,0,0,1,250.676,357.6,136.551,136.551,0,1,1,236.152,88.35l1.256.133c1,.116,2.01.25,3.006.383a135.6,135.6,0,0,1,22.528,5.065q2.949.939,5.826,1.986c.88.331,1.75.662,2.621.993l.054.027A136.6,136.6,0,0,1,358.237,224Z" fill="#fffcef"/>
    <g id="Group_28" data-name="Group 28">
      <path id="Path_29" data-name="Path 29" d="M306.78,156.38a52.519,52.519,0,0,1-4.99,18.73,1.716,1.716,0,0,1-.27,1.51c-.7,1.05-1.43,2.09-2.17,3.12a64.636,64.636,0,0,1-10.66,13.62,1.843,1.843,0,0,1-1.65.54c-.74.69-1.48,1.37-2.23,2.03-11.4,10-25.41,16.99-40.64,18.33a59.171,59.171,0,0,1-26.28-3.6c.22,2.15.46,4.29.67,6.43.58,5.92.83,12.37-2.51,17.29a14.93,14.93,0,0,1-4.98,4.54,25.479,25.479,0,0,1-10.04,3.1,39.168,39.168,0,0,1-5.08.21,36.454,36.454,0,0,1-6.59-.75c-.44-.09-.88-.19-1.31-.29-3.72-.91-7.41-2.48-10.01-5.3a15.116,15.116,0,0,1-3.47-12.84,19.193,19.193,0,0,1,7.22-11.42,21.665,21.665,0,0,1-16.5-16.94,24.994,24.994,0,0,1,.63-10.97,38.239,38.239,0,0,1,2.97-7.58,31.921,31.921,0,0,1,6.87-9.24c4.21-3.75,9.59-5.85,14.93-7.64s10.81-3.38,15.62-6.3a23.859,23.859,0,0,0,7.46-6.99c.59-1.46,1.17-2.92,1.76-4.36a55.935,55.935,0,0,1,11.1-17.78,49.952,49.952,0,0,1,32.92-15.4,46.449,46.449,0,0,1,33.12,12.11A43.945,43.945,0,0,1,306.78,156.38Z" fill="#090e3f"/>
      <path id="Path_30" data-name="Path 30" d="M323.38,243.2c.314.3.638.69.531,1.1a.7.7,0,0,1-.305.422,130.112,130.112,0,0,0-17.4-2.719,46.118,46.118,0,0,0-17.3,1.8,114.363,114.363,0,0,1,10.781-5.3l.27.619a88.875,88.875,0,0,1,11.665.114C315.821,239.574,320.29,240.333,323.38,243.2Z" fill="#da7b5e"/>
      <path id="Path_31" data-name="Path 31" d="M305.232,247.778l-14.49,2.276.036.224a143.032,143.032,0,0,1,23.612,2.785,5.381,5.381,0,0,1-2.036.962c-3.7.874-21.576,4.607-34.145,7.429-3.974.883-7.419,1.685-9.715,2.271a66.547,66.547,0,0,0-10.325-14.086,17.29,17.29,0,0,0-2.5-2.232,54.679,54.679,0,0,1,26.315-21.132c.314-.117.628-.234.951-.351h.009a22.388,22.388,0,0,1,6.235-1.361,14.459,14.459,0,0,1,1.974.042c.377.027.808.125.952.466a.9.9,0,0,1,.009.556,5.846,5.846,0,0,1-1.908,2.784c-1.659,1.59-3.4,3.1-5.128,4.6q-3.309,2.869-6.617,5.731l.027.036a142.046,142.046,0,0,1,31.045-20.634,2.85,2.85,0,0,1-.2.5,11.7,11.7,0,0,1-3.532,3.746q-5.9,4.623-11.9,9.12-4.574,3.45-9.2,6.82l.126.278a108.7,108.7,0,0,1,26.786-8.283,36.484,36.484,0,0,1,7.106-.671c.17.009.386.044.431.215v.018l.233-.009a2.526,2.526,0,0,1-.913,1.894,6.806,6.806,0,0,1-2.727,1.169,115.855,115.855,0,0,0-16.065,5.571,114.363,114.363,0,0,0-10.781,5.3,46.118,46.118,0,0,1,17.3-1.8,130.112,130.112,0,0,1,17.4,2.719,2.126,2.126,0,0,1-.906.306Q313.966,246.4,305.232,247.778Z" fill="#e49477"/>
      <path id="Path_32" data-name="Path 32" d="M319.391,229.88l-.233.009v-.018c-.045-.171-.261-.206-.431-.215a36.484,36.484,0,0,0-7.106.671,108.7,108.7,0,0,0-26.786,8.283l-.126-.278q4.627-3.369,9.2-6.82l.269.359a93.775,93.775,0,0,1,13.151-4.231c3.669-.892,7.823-1.48,10.966.608a2.717,2.717,0,0,1,.889.86A1.675,1.675,0,0,1,319.391,229.88Z" fill="#da7b5e"/>
      <path id="Path_33" data-name="Path 33" d="M315.132,250.944c.4.789-.016,1.544-.742,2.119a143.032,143.032,0,0,0-23.612-2.785l-.036-.224,14.49-2.276a33.63,33.63,0,0,1,8.455,2.082A2.69,2.69,0,0,1,315.132,250.944Z" fill="#da7b5e"/>
      <path id="Path_34" data-name="Path 34" d="M294.6,152.035h.009a12.025,12.025,0,0,1,3.3,2.312,33.55,33.55,0,0,1,5.264,6.114h.314a34.138,34.138,0,0,0-1.319-9.51.221.221,0,0,1,.062.036,16.427,16.427,0,0,1,5.787,7.271,24.409,24.409,0,0,1,1.783,6.5,23.538,23.538,0,0,1-.136,7.735,30.5,30.5,0,0,1-3.275,8.33,86.271,86.271,0,0,1-12.751,17.933c-3.514,3.817-7.467,7.428-9.58,12.168v.009c-.206-.062-.4-.125-.61-.187q5.2-12.429,9.728-25.144c.26-.44.5-.88.734-1.329-.062-.054-.125-.117-.188-.179a47.352,47.352,0,0,1-10.171-12.8,6.93,6.93,0,0,1-1.153-4.252,2.55,2.55,0,0,1,1.21-1.877,2.9,2.9,0,0,1,2.782.312,9.188,9.188,0,0,1,.978.645,36.463,36.463,0,0,1,8.7,9.179l.081-.009a30.572,30.572,0,0,0-9.1-16.51l.107-.108c1-.88,2.593-.415,3.76.239.117.062.234.134.342.206,3.25,1.917,5.756,4.866,8.191,7.762l.251-.045a30.387,30.387,0,0,0-6.961-15.149A4.253,4.253,0,0,1,294.6,152.035Z" fill="#e49477"/>
      <path id="Path_35" data-name="Path 35" d="M309.166,216.628a1.3,1.3,0,0,1,.37,1.516,142.046,142.046,0,0,0-31.045,20.634l-.027-.036q3.309-2.87,6.617-5.731c1.73-1.5,3.469-3.01,5.128-4.6a5.846,5.846,0,0,0,1.908-2.784.9.9,0,0,0-.009-.556c-.144-.341-.575-.439-.952-.466a14.459,14.459,0,0,0-1.974-.042c2.556-1.627,5.264-3.057,7.937-4.432,3.524-1.808,7.219-3.633,11.177-3.673A1.679,1.679,0,0,1,309.166,216.628Z" fill="#da7b5e"/>
      <path id="Path_36" data-name="Path 36" d="M299.11,149.644a8.124,8.124,0,0,1,3.062,1.307,34.138,34.138,0,0,1,1.319,9.51h-.314a33.55,33.55,0,0,0-5.264-6.114,12.025,12.025,0,0,0-3.3-2.312H294.6a3.684,3.684,0,0,1,3.345-2.462A4.572,4.572,0,0,1,299.11,149.644Z" fill="#da7b5e"/>
      <path id="Path_37" data-name="Path 37" d="M299.7,166.827l-.251.045c-2.435-2.9-4.941-5.845-8.191-7.762l.241-.4a7.343,7.343,0,0,1-.938-4.98,2.933,2.933,0,0,1,.43-1.193,2.147,2.147,0,0,1,1.748-.855A30.387,30.387,0,0,1,299.7,166.827Z" fill="#da7b5e"/>
      <path id="Path_38" data-name="Path 38" d="M296.767,332.323a1.992,1.992,0,0,1,.513,1.579,1.907,1.907,0,0,1-1.085,1.042,123.76,123.76,0,0,1-34.92,12.607,4.877,4.877,0,0,1-3-.05c-1.167-.538-1.725-1.865-2.166-3.076a162.937,162.937,0,0,1-6.881-25.333,21.423,21.423,0,0,0,6.112-7.087l.081.045c7.608-1.425,13.138-8.17,16.325-15.226a62.83,62.83,0,0,0,4.445-14.766A127.772,127.772,0,0,0,296.767,332.323Z" fill="#b8a691" opacity="0.695"/>
      <path id="Path_39" data-name="Path 39" d="M286.12,161.3a6.236,6.236,0,0,1,.259-1.274,3.153,3.153,0,0,1,.672-1.257,30.572,30.572,0,0,1,9.1,16.51l-.081.009a36.463,36.463,0,0,0-8.7-9.179,9.188,9.188,0,0,0-.978-.645l.457-.037A7.22,7.22,0,0,1,286.12,161.3Z" fill="#da7b5e"/>
      <path id="Path_40" data-name="Path 40" d="M293.726,184.089c.063.062.126.125.188.179-.232.449-.474.889-.734,1.329C293.368,185.094,293.547,184.591,293.726,184.089Z" fill="#ffc33e"/>
      <path id="Path_41" data-name="Path 41" d="M289.05,192.51a1.472,1.472,0,0,1-.55.41,87.286,87.286,0,0,1-14.66,16.05c-1.48,1.28-3,2.49-4.56,3.65a25.707,25.707,0,0,1-6.61,3.81,18.968,18.968,0,0,1-6.48.95c-.55-.01-1.1-.03-1.63-.09a25.248,25.248,0,0,1-6.7-1.46,25.57,25.57,0,0,1-16.83-26.86l-.08-.01a12.848,12.848,0,0,1-.85,2.88,55.281,55.281,0,0,0-2.49,13.04,38.881,38.881,0,0,1-3.72-11.3c-.96-5.3-1.2-10.7-1.74-16.07a24.117,24.117,0,0,1,6.32-7.06,18.406,18.406,0,0,1-1.99-10.02,13.328,13.328,0,0,1,2.87-7.46,8.617,8.617,0,0,1,7.15-3.15,6.668,6.668,0,0,1,4.96,3.08,52.822,52.822,0,0,0,33.1-12.13,2.138,2.138,0,0,1,.86-.44C276,139.82,294.2,185.96,289.05,192.51Z" fill="#e49477"/>
      <path id="Path_42" data-name="Path 42" d="M286.888,212.784c-.527,2.127-2.736,9.532-3.953,13.141-.323.117-.637.234-.951.351a54.672,54.672,0,0,0-26.314,21.132,17.387,17.387,0,0,1,2.5,2.231,66.542,66.542,0,0,1,10.325,14.087c2.3-.586,5.741-1.388,9.716-2.272a162.888,162.888,0,0,1-2.016,20.6,62.832,62.832,0,0,1-4.445,14.766,36.425,36.425,0,0,1-3.421,6.015,25.023,25.023,0,0,1-1.587,2.057c-2.993,3.565-6.786,6.306-11.316,7.154l-.081-.045a21.424,21.424,0,0,1-6.113,7.086,15.289,15.289,0,0,1-6.8,2.834,9.492,9.492,0,0,1-1.525,17.409,7.4,7.4,0,0,1,5.944,3.889c1.016,2.26-.012,5.411-2.39,6.1a35.891,35.891,0,0,1,6.218,8.276,136.813,136.813,0,0,1-128.5-39.972q-3.447-3.667-6.623-7.583c.555-.826,12.738-29.9,12.89-30.288,3.825-9.7,10.92-20.711,8.063-30.879-3.9-13.9-6.942-37.442,3.324-49.574,9.346-11.046,16.471-10.647,20.13-11.118,2.549-.328,5.255-1.739,5.9-4.228-2.592,9.388.651,19.347,8.924,24.746a20.489,20.489,0,0,0,7,2.927,19.194,19.194,0,0,0-7.212,11.412,15.11,15.11,0,0,0,3.468,12.847c2.6,2.814,6.286,4.39,10.011,5.292.431.108.87.206,1.31.295a35.88,35.88,0,0,0,4.38.624c.736.071,1.472.106,2.207.123a38.465,38.465,0,0,0,5.079-.211,25.435,25.435,0,0,0,10.038-3.1,30.409,30.409,0,0,0,9.1,5.311,30.807,30.807,0,0,0,17.383,1.284q.484-.108.968-.243c3.6-.946,7.078-2.718,9.219-5.726,2.168-3.044,2.676-6.984,2.259-10.734-.045-.4-.1-.808-.162-1.2a6.141,6.141,0,0,0,4.718-10.316c.538.054,1.086.08,1.633.089a19.281,19.281,0,0,0,6.029-.8c.153-.045.3-.09.449-.144a16,16,0,0,0,2.09-.909,29.652,29.652,0,0,0,4.035-2.552l.484-.351c.565-.413,1.121-.835,1.668-1.276.986-.763,1.946-1.554,2.9-2.371a45.313,45.313,0,0,1,9.612,1.766c.206.063.4.126.61.188.763.242,1.517.5,2.271.779a.957.957,0,0,1,.557.385A.922.922,0,0,1,286.888,212.784Z" fill="#eee4c0"/>
      <path id="Path_43" data-name="Path 43" d="M283.452,210.741c.206.062.4.125.61.187.763.242,1.517.5,2.271.779a.957.957,0,0,1,.557.385.922.922,0,0,1,0,.691c-.528,2.127-2.736,9.532-3.944,13.141h-.009c-.323.117-.637.234-.951.351a54.679,54.679,0,0,0-26.315,21.132,7,7,0,0,0-2.612-1.2,169.61,169.61,0,0,0-1.418-17.568l-1.642.172c-.045-.4-.1-.807-.163-1.2a6.14,6.14,0,0,0,4.719-10.315c.538.053,1.086.079,1.633.088a19.057,19.057,0,0,0,6.478-.949,25.753,25.753,0,0,0,6.609-3.811q2.34-1.74,4.564-3.648A45.378,45.378,0,0,1,283.452,210.741Z" fill="#decc90"/>
      <path id="Path_44" data-name="Path 44" d="M273.84,208.974A87.611,87.611,0,0,0,293.18,185.6q-4.536,12.7-9.728,25.144A45.378,45.378,0,0,0,273.84,208.974Z" fill="#da7b5e"/>
      <path id="Path_45" data-name="Path 45" d="M278.209,261.454a162.692,162.692,0,0,1-2.015,20.6c-.928,5.08-2.33,15.758-4.47,20.471-3.187,7.056-8.692,8.1-16.3,9.521l-.081-.045a24.581,24.581,0,0,0,1.88-4.407c1.9-6.05,1.764-12.5,1.372-18.872q6.456-4.665,12.588-9.74a5.339,5.339,0,0,0,2.106-2.775,5.171,5.171,0,0,0-.415-2.683,66.585,66.585,0,0,0-4.38-9.8C270.79,263.139,274.235,262.337,278.209,261.454Z" fill="#decc90"/>
      <path id="Path_46" data-name="Path 46" d="M260.949,195.128a.435.435,0,0,1,.053-.05c.181-.171.365-.326.559-.483a1.618,1.618,0,0,0,.162-.13,6.683,6.683,0,0,1,4.351-1.486,5.16,5.16,0,0,1,4.906,4.267,6.988,6.988,0,0,1-1.517,4.6,17.389,17.389,0,0,1-5.892,5.365,7.505,7.505,0,0,0,.248-3.692,6.963,6.963,0,0,0-1-2.206,16.761,16.761,0,0,0-2.151-2.726,3.332,3.332,0,0,0-1.776-1.11l-.022-.013A14.485,14.485,0,0,1,260.949,195.128Z" fill="#252849"/>
      <path id="Path_47" data-name="Path 47" d="M262.816,201.316a6.963,6.963,0,0,1,1,2.206,7.505,7.505,0,0,1-.248,3.692c-.171.1-.333.19-.506.277a5.536,5.536,0,0,1-3.674.762,4.11,4.11,0,0,1-2.88-3.272,7.924,7.924,0,0,1,.66-4.483,14.837,14.837,0,0,1,1.7-3.031l.022.013a3.332,3.332,0,0,1,1.776,1.11A16.761,16.761,0,0,1,262.816,201.316Z" fill="#da7b5e"/>
      <path id="Path_48" data-name="Path 48" d="M227.614,204.875a24.542,24.542,0,0,0,3.685,5.264c4.159,4.5,10.613,7.2,16.552,5.708l.009-.018a25.629,25.629,0,0,0,6.7,1.465,6.14,6.14,0,0,1-4.719,10.315c.064.4.118.8.163,1.2.417,3.75-.091,7.69-2.259,10.734-2.33,3.278-6.258,5.086-10.188,5.969a31.088,31.088,0,0,1-26.486-6.6,14.989,14.989,0,0,0,4.984-4.537c3.342-4.92,3.093-11.372,2.513-17.294-.834-8.443-2.1-16.939-1.094-25.366a36.012,36.012,0,0,1,4.679-14.209c.543,5.365.782,10.767,1.739,16.069A38.86,38.86,0,0,0,227.614,204.875Z" fill="#b8a691" opacity="0.697"/>
      <path id="Path_49" data-name="Path 49" d="M247.86,215.829l-.009.018c-5.939,1.5-12.393-1.208-16.552-5.708a24.542,24.542,0,0,1-3.685-5.264,54.65,54.65,0,0,1,2.491-13.031,12.757,12.757,0,0,0,.84-2.882l.081.009a25.574,25.574,0,0,0,16.834,26.858Z" fill="#da7b5e"/>
      <path id="Path_50" data-name="Path 50" d="M204.951,269.039l.027.063a44.511,44.511,0,0,0-7.247,3.938,9.971,9.971,0,0,0-.551-4.307,3.483,3.483,0,0,0-3.43-2.213c-1.31.19-2.233,1.34-3.022,2.4q-2.568,3.422-5.117,6.852c.734-2.038-2.166-3.838-4.166-3s-2.985,3.054-3.674,5.1a55.624,55.624,0,0,0-2.038,7.979,67.984,67.984,0,0,1,13.63-44.369,36.748,36.748,0,0,0,6.587.747A151.221,151.221,0,0,1,204.951,269.039Z" fill="#decc90"/>
      <path id="Path_51" data-name="Path 51" d="M257.074,289.262q-13.157,8.382-27.026,15.564-6.929,3.582-14.013,6.848a116.337,116.337,0,0,1-14.222,5.8c-4.852,1.5-10.049,2.374-15.1,1.393a26.529,26.529,0,0,1-12.2-6.274,55.62,55.62,0,0,1-9.546-11.461c-2.87-4.332-5.58-8.779-8.236-13.246q-9.05-15.221-16.77-31.178c-.5-1.039-2.051-.128-1.549.908q7.069,14.592,15.254,28.605,4.072,6.963,8.417,13.767a70.84,70.84,0,0,0,9.262,12.1,31.745,31.745,0,0,0,11.426,7.548,27.51,27.51,0,0,0,14.551.821,68.033,68.033,0,0,0,14.634-4.99q7.325-3.226,14.487-6.807a346.3,346.3,0,0,0,31.537-17.854C258.953,290.192,258.052,288.639,257.074,289.262Z" fill="#decc90"/>
      <path id="Path_52" data-name="Path 52" d="M251.284,246.3a220.872,220.872,0,0,0-45.8,21.453c-.981.606-.079,2.158.907,1.549a218.756,218.756,0,0,1,45.377-21.272C252.852,247.666,252.383,245.932,251.284,246.3Z" fill="#decc90"/>
      <path id="Path_53" data-name="Path 53" d="M255.031,250.471q-4.113,2.342-8.017,5.026a.919.919,0,0,0-.32,1.228.905.905,0,0,0,1.228.321q3.9-2.682,8.016-5.026A.9.9,0,0,0,255.031,250.471Z" fill="#decc90"/>
      <path id="Path_54" data-name="Path 54" d="M257.737,255.643a55.3,55.3,0,0,1-7.108,5.626.918.918,0,0,0-.321,1.228.906.906,0,0,0,1.228.32,58.037,58.037,0,0,0,7.471-5.906C259.853,256.121,258.581,254.855,257.737,255.643Z" fill="#decc90"/>
      <path id="Path_55" data-name="Path 55" d="M263.149,262.011a35.439,35.439,0,0,1-6.736,5.248.9.9,0,0,0,.907,1.549,37.5,37.5,0,0,0,7.1-5.529A.9.9,0,0,0,263.149,262.011Z" fill="#decc90"/>
      <path id="Path_56" data-name="Path 56" d="M268.371,267.657a.925.925,0,0,0-1.228.324c-.175.236-.293.389-.516.659q-.294.355-.6.7-.636.7-1.336,1.338a17.948,17.948,0,0,1-2.928,2.174.9.9,0,0,0,.908,1.548,21.061,21.061,0,0,0,6.027-5.512A.9.9,0,0,0,268.371,267.657Z" fill="#decc90"/>
      <path id="Path_57" data-name="Path 57" d="M272.793,274.715a.917.917,0,0,0-1.269,0l-5.83,4.812a.9.9,0,0,0,0,1.269.918.918,0,0,0,1.269,0l5.829-4.813A.9.9,0,0,0,272.793,274.715Z" fill="#decc90"/>
      <path id="Path_58" data-name="Path 58" d="M156.013,209.444a3.066,3.066,0,0,0-.949-1.779,17.333,17.333,0,0,0-1.654-1.632,18.837,18.837,0,0,0-3.854-2.575c-1.03-.517-1.938,1.032-.9,1.55a17.282,17.282,0,0,1,2.954,1.851A16.765,16.765,0,0,1,153,208.092a5.362,5.362,0,0,1,1.125,1.251c.108.227.14.226-.109.378a2.04,2.04,0,0,1-.776.223,6.389,6.389,0,0,1-1.628-.07,10.619,10.619,0,0,0-3.452-.109.9.9,0,0,0-.4,1.5,27.165,27.165,0,0,1,3.6,3.5c.286.337.565.681.832,1.033.105.14.2.3.314.438a11.621,11.621,0,0,1-1.719-.476,34.847,34.847,0,0,1-9.1-4.986c-.922-.7-1.816.863-.9,1.551a35.836,35.836,0,0,0,5.6,3.484c.945.472,1.913.9,2.9,1.291a13.748,13.748,0,0,0,2.8.938,2.02,2.02,0,0,0,2.152-.751c.583-.965-.136-1.932-.713-2.682a27.819,27.819,0,0,0-2.761-3.067,11.73,11.73,0,0,0,2.265.215C154.347,211.688,156.1,211.048,156.013,209.444Z" fill="#decc90"/>
      <path id="Path_59" data-name="Path 59" d="M239.07,320.291q-9.608.77-19.147,2.172c-.612.09-.765.863-.535,1.319.579,1.146,1.935,1.383,3.062,1.692q2.262.623,4.546,1.157t4.585.985a20.3,20.3,0,0,1,2.975.665c-2.471,1.252-5.761,1.57-7.232,4.087-1.005,1.721,1.273,2.66,2.553,3.034a18.28,18.28,0,0,0,6.056.388c1.149-.057,1.154-1.852,0-1.794a19.566,19.566,0,0,1-4.824-.139,5.055,5.055,0,0,1-2.107-.742l.034-.044c.112-.127.231-.248.355-.364a5.018,5.018,0,0,1,.719-.545c2.17-1.391,4.8-1.719,6.87-3.324.507-.393.218-1.105-.183-1.409a8.152,8.152,0,0,0-3.522-1.312c-1.469-.279-2.935-.57-4.395-.9q-2.114-.471-4.209-1.013c-.5-.129-.991-.265-1.486-.4q7.92-1.08,15.889-1.724C240.215,321.994,240.223,320.2,239.07,320.291Z" fill="#decc90"/>
      <path id="Path_60" data-name="Path 60" d="M137.918,301.223a34.495,34.495,0,0,0-10.313-7.932c-1.023-.533-1.93,1.016-.9,1.551a35.631,35.631,0,0,1,8.374,6.019,13.258,13.258,0,0,1,1.69,1.785,1.205,1.205,0,0,1,.239.441c.015.192.111.061-.024.138a3.393,3.393,0,0,1-1.293.036,22.593,22.593,0,0,1-5.743-.84c-.829-.229-1.563.9-.871,1.5a38.2,38.2,0,0,1,3.447,3.064c.252.282.868,1,.323,1.268-.447.218-1.165-.063-1.594-.2a20.249,20.249,0,0,1-7.408-4.315c-.854-.775-2.125.492-1.268,1.271a22.5,22.5,0,0,0,4.724,3.322,12.41,12.41,0,0,0,5.149,1.77,2.222,2.222,0,0,0,2.128-3.27,6.463,6.463,0,0,0-1.7-1.962l-.016-.013a20.441,20.441,0,0,0,3.815.192,2.009,2.009,0,0,0,2.117-1.407A2.935,2.935,0,0,0,137.918,301.223Z" fill="#decc90"/>
      <path id="Path_61" data-name="Path 61" d="M263.435,165.191a.919.919,0,0,0-1.105-.625.9.9,0,0,0-.625,1.1,30.1,30.1,0,0,1,1.443,6.693l-6.25-.977a.926.926,0,0,0-1.1.628.905.905,0,0,0,.628,1.1l7.489,1.171a.91.91,0,0,0,1.135-.867A31.828,31.828,0,0,0,263.435,165.191Z" fill="#090e3f"/>
      <path id="Path_62" data-name="Path 62" d="M287.807,183.281a20.368,20.368,0,0,1-1.768-1.566c-.275-.273-.541-.555-.8-.843-.065-.074-.129-.15-.194-.224l.089-.056.848-.525a.9.9,0,0,0-.907-1.549l-.887.55a5.838,5.838,0,0,0-.942.622,1.1,1.1,0,0,0-.137,1.415,9.621,9.621,0,0,0,.7.851,20.2,20.2,0,0,0,2.732,2.6.921.921,0,0,0,1.269,0A.906.906,0,0,0,287.807,183.281Z" fill="#090e3f"/>
      <path id="Path_63" data-name="Path 63" d="M293.99,184.467a34.89,34.89,0,0,1-6.044-8.457,33.45,33.45,0,0,1-1.983-4.78c-.5-1.52-1.031-3.308.031-4.7.7-.919-.859-1.812-1.55-.9a5.683,5.683,0,0,0-.555,4.929,30.525,30.525,0,0,0,2.086,5.508,36.464,36.464,0,0,0,6.747,9.678C293.527,186.569,294.793,185.3,293.99,184.467Z" fill="#da7b5e"/>
      <path id="Path_64" data-name="Path 64" d="M268.92,157.435a26.087,26.087,0,0,0-9.047-1.686,2.78,2.78,0,0,0-3,2.346,2.71,2.71,0,0,0,2.345,3,21.955,21.955,0,0,1,7.7,1.339C270.153,163.636,272.181,158.646,268.92,157.435Z" fill="#090e3f"/>
      <path id="Path_65" data-name="Path 65" d="M276.978,177.986c-3.557-1.573-8.549-2.567-12.472-.878a2.822,2.822,0,0,0-1.793,3.677,6.43,6.43,0,0,0,.9,1.317c1.825,2.3,5.263,1.575,8.052,2.065,2.85.5,4.044,2.951,6.867,3.3a3.575,3.575,0,0,0,2.945-1.211C284.332,182.968,280.1,179.363,276.978,177.986Z" fill="#e23d69" opacity="0.31"/>
      <path id="Path_66" data-name="Path 66" d="M251.179,162.056c.151-.557-.732-.719-.882-.164-.444,1.64-.96,4-2.867,4.54a1.861,1.861,0,0,1-2.05-.608,2.8,2.8,0,0,1-.165-2.336c.56-1.906,2.162-2.829,3.605-4.007a4.67,4.67,0,0,0,2.084-3.972c-.064-.572-.96-.507-.9.069.191,1.713-1.3,2.889-2.528,3.8a7.7,7.7,0,0,0-3.07,3.7,3.459,3.459,0,0,0,.612,3.692,3.006,3.006,0,0,0,3.651.045C250.24,165.722,250.709,163.791,251.179,162.056Z" fill="#fff"/>
      <path id="Path_67" data-name="Path 67" d="M238.476,174.957a4.218,4.218,0,0,1-1.957,2.195,1.284,1.284,0,0,1-1.84-1.087,2.3,2.3,0,0,1,1.4-2.109c.709-.39,1.74-.461,2.116-1.284.307-.671-.066-1.31-.3-1.935-.367-.987.266-1.747,1.086-2.247,1.386-.847,3.579-1.59,3.275-3.649-.084-.568-.98-.505-.9.068.276,1.87-2.495,2.372-3.553,3.338a2.678,2.678,0,0,0-.947,1.854,2.592,2.592,0,0,0,.213,1,2.979,2.979,0,0,1,.34.964c0,.456-.474.576-.833.705a6.285,6.285,0,0,0-1.081.487,3.487,3.487,0,0,0-1.538,1.68,2.326,2.326,0,0,0,1.377,3.16c1.908.486,3.161-1.318,3.946-2.747C239.562,174.842,238.754,174.451,238.476,174.957Z" fill="#fff"/>
      <path id="Path_68" data-name="Path 68" d="M247.375,172.079a.454.454,0,0,0-.633.041c-.147.175-.295.35-.452.515a2.616,2.616,0,0,1-.438.389,1.473,1.473,0,0,1-.514.258c-.017.006-.035.01-.053.015h0c-.045.005-.089.012-.133.014s-.078,0-.116,0c.086,0-.044,0-.077-.01s-.076-.013-.114-.021l-.091-.026c-.023-.01-.074-.03-.083-.035-.04-.018-.077-.045-.117-.061h0l-.035-.027c-.029-.022-.054-.048-.082-.071l-.009-.008-.021-.026c-.011-.016-.047-.075-.057-.09s-.018-.049-.022-.06l-.01-.036,0-.014a.879.879,0,0,1,.026-.274,1.316,1.316,0,0,1,.091-.239c.055-.121.117-.238.177-.357l.858-1.678a.449.449,0,1,0-.807-.392l-.886,1.732a1.949,1.949,0,0,0-.27,1.619,1.608,1.608,0,0,0,1.1.906,1.982,1.982,0,0,0,1.482-.213,4.809,4.809,0,0,0,1.328-1.22A.459.459,0,0,0,247.375,172.079Z" fill="#fff"/>
      <path id="Path_69" data-name="Path 69" d="M265.511,220.438l-1.149-6.934a1.351,1.351,0,0,0-1.656-.938,1.386,1.386,0,0,0-.939,1.657q.574,3.466,1.148,6.933a1.352,1.352,0,0,0,1.657.939A1.386,1.386,0,0,0,265.511,220.438Z" fill="#fff"/>
      <path id="Path_70" data-name="Path 70" d="M278.041,219.62l-4.244-6.472a1.347,1.347,0,0,0-2.324,1.361l4.245,6.472a1.346,1.346,0,1,0,2.323-1.361Z" fill="#fff"/>
      <path id="Path_71" data-name="Path 71" d="M280.831,205.832l-7.34-2.421a1.355,1.355,0,0,0-1.654.941,1.376,1.376,0,0,0,.941,1.655l7.34,2.421a1.356,1.356,0,0,0,1.655-.942A1.377,1.377,0,0,0,280.831,205.832Z" fill="#fff"/>
      <path id="Path_72" data-name="Path 72" d="M285.187,119.025a46.108,46.108,0,0,1-13.328,12.458,47.649,47.649,0,0,1-17.735,6.447c-6.888,1.091-14.062,1.21-20.642,3.742-5.2,2-10.182,5.477-12.412,10.758-2.264,5.358-1.124,11.293-2.03,16.893a12.188,12.188,0,0,1-3.39,7.088,19.515,19.515,0,0,1-6.487,3.654c-4.5,1.77-9.717,3.456-11.486,8.479-1.033,2.932-.513,6.153.35,9.057.965,3.25,2.43,6.321,3.473,9.544,2.1,6.491,2.81,13.77-.287,20.073a15.809,15.809,0,0,1-6.091,6.787,13.594,13.594,0,0,1-8.406,1.783,11.084,11.084,0,0,1-4.12-1.373.5.5,0,0,0-.5.863c5.182,2.957,11.892,1.583,16.159-2.359,4.742-4.379,6.476-11.136,6-17.4a39.5,39.5,0,0,0-2.479-10.641,69.107,69.107,0,0,1-3.3-9.595c-.644-3.064-.5-6.362,1.528-8.9a14.5,14.5,0,0,1,5.978-3.987c4.567-1.908,9.847-3.269,12.433-7.914,2.793-5.019,1.728-11.176,2.355-16.655a16.528,16.528,0,0,1,2.949-8.019,20.045,20.045,0,0,1,6.6-5.565c6.044-3.327,12.988-3.925,19.711-4.743a68.921,68.921,0,0,0,10.432-1.891,46.753,46.753,0,0,0,8.5-3.334,47.411,47.411,0,0,0,14.37-11.241c.966-1.121,1.876-2.29,2.734-3.5C286.424,119,285.558,118.5,285.187,119.025Z" fill="#242c6b"/>
      <path id="Path_73" data-name="Path 73" d="M278.016,113.378c-2.218,4.678-6.581,7.853-11.356,9.594-5.823,2.123-12.122,2.053-18.223,1.65-6.29-.416-12.612-1.2-18.912-.477a27.271,27.271,0,0,0-15.08,6.217,25.208,25.208,0,0,0-7.815,12.584c-.729,2.827-.715,5.761-1.305,8.61a12.23,12.23,0,0,1-3.828,6.721c-3.732,3.4-8.7,5.073-12.941,7.714a39.732,39.732,0,0,0-11.571,10.659,26.907,26.907,0,0,0-5.037,14.213,22.426,22.426,0,0,0,3.84,13.969,19.1,19.1,0,0,0,2.32,2.688c.465.445,1.173-.261.708-.707a20.046,20.046,0,0,1-5.841-13.2,25.077,25.077,0,0,1,3.614-14.515,36.4,36.4,0,0,1,10.995-11.282,63.223,63.223,0,0,1,6.6-3.789,45.526,45.526,0,0,0,6.476-3.784,14.566,14.566,0,0,0,4.538-5.154c1.307-2.67,1.433-5.664,1.785-8.563a24.269,24.269,0,0,1,6.359-13.713,24.955,24.955,0,0,1,14.228-7.386c6.093-1.052,12.312-.446,18.43.022,6.176.471,12.549.849,18.6-.778a23.088,23.088,0,0,0,12.4-7.724,16.687,16.687,0,0,0,1.88-3.062C279.154,113.305,278.292,112.8,278.016,113.378Z" fill="#242c6b"/>
      <path id="Path_74" data-name="Path 74" d="M310.56,113.3a25.251,25.251,0,0,0-20.92,3.23c-.532.356-.032,1.223.5.863a24.274,24.274,0,0,1,20.15-3.129A.5.5,0,0,0,310.56,113.3Z" fill="#242c6b"/>
      <path id="Path_75" data-name="Path 75" d="M310.16,121.4a36.068,36.068,0,0,0-15.643-3.8.5.5,0,0,0,0,1,34.9,34.9,0,0,1,15.139,3.666C310.23,122.554,310.737,121.692,310.16,121.4Z" fill="#242c6b"/>
      <path id="Path_76" data-name="Path 76" d="M311.015,138.019a27.526,27.526,0,0,0-9.839-12.474,44.228,44.228,0,0,0-7.959-4.606c-.581-.265-1.09.6-.505.863a38.083,38.083,0,0,1,12.588,8.77,22.4,22.4,0,0,1,6.019,14.036,16.872,16.872,0,0,1-1.842,8.525c-.3.569.563,1.075.863.5A19.464,19.464,0,0,0,311.015,138.019Z" fill="#242c6b"/>
      <path id="Path_77" data-name="Path 77" d="M294.627,148.357a32.78,32.78,0,0,1-5.287-23.92c.108-.629-.855-.9-.964-.266a33.791,33.791,0,0,0,5.387,24.69C294.126,149.388,294.993,148.889,294.627,148.357Z" fill="#242c6b"/>
      <path id="Path_78" data-name="Path 78" d="M278.975,110.844a53.9,53.9,0,0,0-20.365-8.609,35.521,35.521,0,0,0-19.9,1.959,27.784,27.784,0,0,0-14.064,12.419c-3.439,6.527-4.081,14-5.3,21.148-1.126,6.579-2.891,13.584-7.656,18.535-4.22,4.387-10.127,6.227-15.939,7.392-6,1.2-12.178,1.775-17.981,3.817a26.85,26.85,0,0,0-7.805,4.163,23.611,23.611,0,0,0-7.764,25.247,24.053,24.053,0,0,0,11.647,13.67,22.573,22.573,0,0,0,4.132,1.642.5.5,0,0,0,.265-.964A22.8,22.8,0,0,1,164.585,200a21.768,21.768,0,0,1-.984-17.9,22.252,22.252,0,0,1,12.353-12.824c5.47-2.385,11.507-3.09,17.332-4.118,5.62-.992,11.454-2.263,16.178-5.644,5.334-3.817,8.14-9.806,9.705-16.014,1.713-6.793,2.023-13.871,4.028-20.6a28.566,28.566,0,0,1,4.525-9.271,26.24,26.24,0,0,1,6.961-6.251,32.556,32.556,0,0,1,18.413-4.744,46.851,46.851,0,0,1,20.811,6.271c1.56.868,3.079,1.806,4.563,2.8C279.006,112.066,279.507,111.2,278.975,110.844Z" fill="#242c6b"/>
      <path id="Path_79" data-name="Path 79" d="M228.007,170.241c.469-.443-.239-1.149-.707-.707a31.086,31.086,0,0,0-8.647,14.836,31.96,31.96,0,0,0,.621,17.519c1.872,6.056,4.9,11.785,6,18.07a20.13,20.13,0,0,1-.337,9.042,17.978,17.978,0,0,1-4.419,7.534,17.787,17.787,0,0,1-19.263,3.886c-.6-.242-.855.725-.266.964a18.793,18.793,0,0,0,17.848-2.089,19,19,0,0,0,7.787-14.843c.163-6.461-2.634-12.518-4.858-18.436a50.155,50.155,0,0,1-2.712-9.233,28.932,28.932,0,0,1-.08-8.938A30.329,30.329,0,0,1,228.007,170.241Z" fill="#242c6b"/>
      <path id="Path_80" data-name="Path 80" d="M248.937,218.334c-.473-.434-1.182.271-.707.708a3.316,3.316,0,0,1,.183,4.224c-1,1.5-2.741,2.329-4.3,3.1a.507.507,0,0,0-.1.785,6.835,6.835,0,0,1-5.309,11.162.5.5,0,0,0,0,1,7.8,7.8,0,0,0,6.4-12.323c1.718-.859,3.546-1.889,4.433-3.652A4.219,4.219,0,0,0,248.937,218.334Z" fill="#b8a691"/>
      <path id="Path_81" data-name="Path 81" d="M239.667,217.391c-.584-.254-1.094.607-.505.863a3.325,3.325,0,0,1,1.591,3.908c-.425,1.884-2.074,3.2-3.578,4.257a21.032,21.032,0,0,0-4.513,3.63,6.643,6.643,0,0,0-1.255,2.282,9.634,9.634,0,0,0-.228,3.212,7.218,7.218,0,0,1-.44,3.712,2.122,2.122,0,0,1-2.587,1.157c-.6-.237-.858.729-.265.964,2.019.8,3.8-1.075,4.176-2.914.488-2.39-.494-4.919.887-7.115,2.25-3.581,8-4.563,8.813-9.148C242.09,220.364,241.505,218.19,239.667,217.391Z" fill="#b8a691"/>
      <path id="Path_82" data-name="Path 82" d="M227.185,236.489a.506.506,0,0,0-.707,0,10.028,10.028,0,0,1-3.135,2.259.5.5,0,0,0-.179.684.51.51,0,0,0,.684.179,10.972,10.972,0,0,0,3.337-2.415A.51.51,0,0,0,227.185,236.489Z" fill="#b8a691"/>
      <path id="Path_83" data-name="Path 83" d="M225.057,235.8a.508.508,0,0,0-.707,0l-2.169,2.145a.5.5,0,0,0,.707.707l2.169-2.145A.506.506,0,0,0,225.057,235.8Z" fill="#b8a691"/>
      <path id="Path_84" data-name="Path 84" d="M254.973,324.119l-1.478-4.317a.512.512,0,0,0-.615-.349.506.506,0,0,0-.349.615l1.478,4.317a.512.512,0,0,0,.615.349A.5.5,0,0,0,254.973,324.119Z" fill="#b8a691"/>
      <path id="Path_85" data-name="Path 85" d="M258.978,322.779l-1.728-3.787a.5.5,0,0,0-.684-.179.512.512,0,0,0-.179.684l1.728,3.787a.5.5,0,0,0,.684.179A.512.512,0,0,0,258.978,322.779Z" fill="#b8a691"/>
      <path id="Path_86" data-name="Path 86" d="M263.829,320.085l-1.621-3.775a.5.5,0,0,0-.684-.179.513.513,0,0,0-.179.684l1.62,3.774a.5.5,0,0,0,.684.18A.513.513,0,0,0,263.829,320.085Z" fill="#b8a691"/>
      <path id="Path_87" data-name="Path 87" d="M258.965,329.127q-.533-1.418-1.066-2.836a.5.5,0,1,0-.964.266q.533,1.418,1.066,2.836a.512.512,0,0,0,.615.349A.5.5,0,0,0,258.965,329.127Z" fill="#b8a691"/>
      <path id="Path_88" data-name="Path 88" d="M263.957,326.557l-1.591-2.98a.5.5,0,0,0-.684-.18.511.511,0,0,0-.18.684l1.592,2.981a.5.5,0,0,0,.684.179A.51.51,0,0,0,263.957,326.557Z" fill="#b8a691"/>
      <path id="Path_89" data-name="Path 89" d="M263.4,332.767q-.672-1.418-1.346-2.833a.5.5,0,0,0-.684-.179.513.513,0,0,0-.179.684q.672,1.416,1.346,2.832a.5.5,0,0,0,.684.18A.513.513,0,0,0,263.4,332.767Z" fill="#b8a691"/>
      <path id="Path_90" data-name="Path 90" d="M263.86,350.881a31.68,31.68,0,0,1-2.776-6.683.5.5,0,0,0-.964.265A32.832,32.832,0,0,0,263,351.385C263.31,351.948,264.174,351.444,263.86,350.881Z" fill="#b8a691"/>
      <path id="Path_91" data-name="Path 91" d="M268.27,348.813q-1.213-3.034-2.425-6.068a.516.516,0,0,0-.615-.35.5.5,0,0,0-.35.615q1.213,3.034,2.426,6.068a.515.515,0,0,0,.615.35A.5.5,0,0,0,268.27,348.813Z" fill="#b8a691"/>
      <path id="Path_92" data-name="Path 92" d="M273.945,347.648q-1.446-3.252-2.89-6.506a.506.506,0,0,0-.685-.179.512.512,0,0,0-.179.684q1.446,3.254,2.89,6.506a.5.5,0,0,0,.685.179A.512.512,0,0,0,273.945,347.648Z" fill="#b8a691"/>
      <path id="Path_93" data-name="Path 93" d="M280.047,345.085a35.117,35.117,0,0,1-2.959-5.732.516.516,0,0,0-.615-.349.5.5,0,0,0-.35.615,36.424,36.424,0,0,0,3.061,5.97C279.528,346.13,280.394,345.629,280.047,345.085Z" fill="#b8a691"/>
      <path id="Path_94" data-name="Path 94" d="M284.838,342.612l-2.831-4.989a.5.5,0,0,0-.864.505l2.832,4.989A.5.5,0,0,0,284.838,342.612Z" fill="#b8a691"/>
      <path id="Path_95" data-name="Path 95" d="M289.764,340.35q-1.257-2.64-2.516-5.281a.5.5,0,0,0-.684-.179.511.511,0,0,0-.179.684l2.516,5.28a.5.5,0,0,0,.684.18A.511.511,0,0,0,289.764,340.35Z" fill="#b8a691"/>
      <path id="Path_96" data-name="Path 96" d="M294.763,336.987l-3.034-4.1a.515.515,0,0,0-.684-.179.5.5,0,0,0-.179.684l3.034,4.1a.514.514,0,0,0,.684.179A.5.5,0,0,0,294.763,336.987Z" fill="#b8a691"/>
      <path id="Path_97" data-name="Path 97" d="M284.049,320.89l-1.877-2.7a.5.5,0,1,0-.863.5l1.877,2.7a.5.5,0,1,0,.863-.5Z" fill="#b8a691"/>
      <path id="Path_98" data-name="Path 98" d="M280.21,322.273l-1.509-3.224a.5.5,0,0,0-.684-.179.511.511,0,0,0-.18.684l1.509,3.224a.5.5,0,0,0,.684.179A.511.511,0,0,0,280.21,322.273Z" fill="#b8a691"/>
      <path id="Path_99" data-name="Path 99" d="M278.77,315.241l-1.617-2.7a.5.5,0,0,0-.864.505l1.618,2.7a.5.5,0,0,0,.863-.505Z" fill="#b8a691"/>
      <path id="Path_100" data-name="Path 100" d="M228.083,208.821a.506.506,0,0,0-.684.179l-1.2,2.411a.5.5,0,0,0,.863.505l1.2-2.411A.51.51,0,0,0,228.083,208.821Z" fill="#b8a691"/>
      <path id="Path_101" data-name="Path 101" d="M231.425,211.247a.5.5,0,0,0-.914.119,6.018,6.018,0,0,1-.274,1.047c-.03.083-.06.169-.1.25l-.011.022c-.02.045-.04.09-.061.134-.079.166-.167.328-.26.486a.5.5,0,1,0,.863.505,6.4,6.4,0,0,0,.8-2.178A.548.548,0,0,0,231.425,211.247Z" fill="#b8a691"/>
      <path id="Path_102" data-name="Path 102" d="M228.816,212.784a.508.508,0,0,0-.684.179l-1.176,2.154a.5.5,0,0,0,.864.5L229,213.468A.508.508,0,0,0,228.816,212.784Z" fill="#b8a691"/>
      <path id="Path_103" data-name="Path 103" d="M222.345,219.075a.507.507,0,0,0-.684.179l-1.008,2.059a.5.5,0,0,0,.864.5q.5-1.029,1.007-2.058A.51.51,0,0,0,222.345,219.075Z" fill="#b8a691"/>
      <path id="Path_104" data-name="Path 104" d="M224.224,221.6a.514.514,0,0,0-.5.495v.005l0,.016-.008.056c-.009.055-.019.109-.029.164-.022.108-.046.216-.075.323a5.337,5.337,0,0,1-.2.588l-.032.072c-.023.05-.047.1-.072.149-.043.087-.088.172-.136.256a5.089,5.089,0,0,1-.369.551.5.5,0,0,0,.18.684.516.516,0,0,0,.684-.179,5.455,5.455,0,0,0,1.056-2.68A.5.5,0,0,0,224.224,221.6Z" fill="#b8a691"/>
      <path id="Path_105" data-name="Path 105" d="M221.981,225.1a.507.507,0,0,0-.684.179l-1.617,3.147a.5.5,0,0,0,.864.505q.807-1.573,1.616-3.147A.509.509,0,0,0,221.981,225.1Z" fill="#b8a691"/>
      <path id="Path_106" data-name="Path 106" d="M242.741,229.21a.5.5,0,0,0-.684-.179.509.509,0,0,0-.179.684c.022.041.042.082.063.124l.005.01.011.03a2.1,2.1,0,0,1,.072.233c.011.045.021.09.029.136l.007.041c.007.086.013.172.012.258a.8.8,0,0,1-.017.26c.01-.075.011-.085,0-.029,0,.022-.008.045-.013.068-.008.04-.017.079-.028.118s-.021.078-.034.117a.4.4,0,0,1-.046.131q.042-.1.009-.024c-.009.021-.019.042-.029.063-.021.042-.043.082-.066.123a.5.5,0,1,0,.863.5A2.762,2.762,0,0,0,242.741,229.21Z" fill="#b8a691"/>
      <g id="Group_27" data-name="Group 27">
        <path id="Path_107" data-name="Path 107" d="M241.15,233.622c.013-.033.027-.075,0,0Z" fill="#b8a691"/>
        <path id="Path_108" data-name="Path 108" d="M241.789,233.212a.514.514,0,0,0-.615.349c-.011.028-.023.056-.033.084l.009-.023-.006.015c-.023.05-.047.1-.072.149q-.077.147-.165.288c-.03.046-.06.092-.092.138-.018.024-.036.048-.053.073h0c-.069.084-.138.166-.213.244s-.157.157-.24.23c-.039.034-.08.067-.121.1h0c-.02.015-.04.03-.061.044a3.54,3.54,0,0,1-.6.344.5.5,0,0,0-.23.3.508.508,0,0,0,.051.385.515.515,0,0,0,.684.179,4.106,4.106,0,0,0,2.108-2.284A.5.5,0,0,0,241.789,233.212Z" fill="#b8a691"/>
      </g>
    </g>
    <path id="Path_109" data-name="Path 109" d="M127.168,235.313a22.747,22.747,0,0,1-1.839-13.267c.1-.63-.86-.9-.964-.266a23.928,23.928,0,0,0,1.94,14.038C126.577,236.4,127.439,235.893,127.168,235.313Z" fill="#090e3f"/>
    <path id="Path_110" data-name="Path 110" d="M125.094,238.087a15.5,15.5,0,0,1-4.019-9.513c-.038-.64-1.038-.644-1,0a16.6,16.6,0,0,0,4.312,10.22C124.822,239.271,125.528,238.562,125.094,238.087Z" fill="#090e3f"/>
    <path id="Path_111" data-name="Path 111" d="M319.7,149.942l-6.64,4.512c-.529.36-.029,1.227.505.864l6.639-4.512C320.739,150.446,320.239,149.579,319.7,149.942Z" fill="#090e3f"/>
    <path id="Path_112" data-name="Path 112" d="M322.52,156.9a42.98,42.98,0,0,1-7.733,1.784.5.5,0,0,0-.349.615.513.513,0,0,0,.615.35,43.067,43.067,0,0,0,7.733-1.785C323.394,157.667,323.134,156.7,322.52,156.9Z" fill="#090e3f"/>
    <path id="Path_113" data-name="Path 113" d="M320.99,166.412l-7.013-1.428c-.629-.128-.9.836-.266.965l7.013,1.428C321.352,167.505,321.621,166.541,320.99,166.412Z" fill="#090e3f"/>
    <path id="Path_114" data-name="Path 114" d="M328.724,244.029a11.234,11.234,0,0,1-2.524,7.517c-.407.493.3,1.2.707.707a12.288,12.288,0,0,0,2.817-8.224C329.7,243.388,328.7,243.385,328.724,244.029Z" fill="#090e3f"/>
    <path id="Path_115" data-name="Path 115" d="M333.4,246.189a11.16,11.16,0,0,1-2.662,7.367c-.417.486.287,1.2.707.707a12.22,12.22,0,0,0,2.955-8.074A.5.5,0,0,0,333.4,246.189Z" fill="#090e3f"/>
    <path id="Path_116" data-name="Path 116" d="M298.3,263.175a9.687,9.687,0,0,1-5.682.945.5.5,0,0,0-.5.5.513.513,0,0,0,.5.5,10.582,10.582,0,0,0,6.186-1.082C299.376,263.746,298.87,262.883,298.3,263.175Z" fill="#090e3f"/>
    <path id="Path_117" data-name="Path 117" d="M300.3,269.069a.5.5,0,0,0-.615-.349,13.279,13.279,0,0,1-5.08.881.5.5,0,0,0,0,1,14.041,14.041,0,0,0,5.346-.917A.513.513,0,0,0,300.3,269.069Z" fill="#090e3f"/>
    <g id="nose">
      <g id="Group_62" data-name="Group 62">
        <path id="Path_267" data-name="Path 267" d="M276.894,173.565a16.821,16.821,0,0,0-3.9,5.926c-.67,1.732-1.679,4.614-.281,6.247.712.833,1.779.99,2.713,1.457a2.316,2.316,0,0,1,1.24,3.114c-.676,1.2-2.46,1.046-3.62.79a3.341,3.341,0,0,1-2.607-1.841c-.283-.745-1.492-.422-1.205.332.856,2.256,3.469,3.042,5.7,2.9a3.2,3.2,0,0,0,2.776-4.816,5.072,5.072,0,0,0-2.9-2.06c-.695-.276-1.295-.6-1.473-1.387a4.916,4.916,0,0,1,.149-2.041,15.4,15.4,0,0,1,4.285-7.737c.574-.565-.31-1.449-.884-.884Z" fill="#da7b5e"/>
      </g>
      <g id="Group_63" data-name="Group 63">
        <path id="Path_268" data-name="Path 268" d="M231.546,156.1a5.267,5.267,0,0,1,2.984-.064,1.53,1.53,0,0,1,1.026,1.744l.436-.436c-2.443.518-5.59.724-6.869,3.272a2.783,2.783,0,0,0,.3,3.271,1.805,1.805,0,0,0,2.779-.381c.357-.718-.721-1.352-1.079-.631a.458.458,0,0,1-.517.247.73.73,0,0,1-.579-.59,2.264,2.264,0,0,1,.757-2.091c1.435-1.434,3.667-1.5,5.536-1.892a.626.626,0,0,0,.436-.436,2.706,2.706,0,0,0-1.4-3.051c-1.266-.723-2.8-.443-4.152-.167-.788.16-.454,1.365.332,1.2Z" fill="#da7b5e"/>
      </g>
    </g>
  </g>
</svg>
