<svg xmlns="http://www.w3.org/2000/svg" width="165.073" height="165.073" viewBox="0 0 165.073 165.073">
  <g id="Group_12" data-name="Group 12" transform="translate(-591.112 -349.347)">
    <circle id="Ellipse_13" data-name="Ellipse 13" cx="63.46" cy="63.46" r="63.46" transform="translate(591.112 396.641) rotate(-21.878)" fill="#f5f2ed"/>
    <g id="Group_11" data-name="Group 11" transform="translate(-7 -6)">
      <path id="Path_149" data-name="Path 149" d="M646.032,476.144h68.495s2.4-39.382-6.326-45.146-47.646-3.787-56.146,2.024C630.5,447.759,646.032,476.144,646.032,476.144Z" transform="translate(1.014 6.186)" fill="#e6b56f"/>
      <path id="Path_150" data-name="Path 150" d="M655.9,426.331a.437.437,0,0,1-.281-.1c-.189-.153-4.581-3.85-2.179-11.3a55.8,55.8,0,0,1,2.388-6.078,21.982,21.982,0,0,0,2.432-9.581.453.453,0,0,1,.463-.429.448.448,0,0,1,.429.464,22.982,22.982,0,0,1-2.509,9.91,55.648,55.648,0,0,0-2.355,5.988c-2.207,6.848,1.727,10.2,1.9,10.336a.447.447,0,0,1-.285.792Z" transform="translate(2.545 2.555)" fill="#3e2d4a"/>
      <path id="Path_151" data-name="Path 151" d="M678.388,384.452A5.6,5.6,0,1,1,673,378.644,5.6,5.6,0,0,1,678.388,384.452Z" transform="translate(4.375 0)" fill="#3e2d4a"/>
      <path id="Path_152" data-name="Path 152" d="M655.2,425s1.642,3.389,8.354,4.581,11.978-1.237,17.159.643,12.665-.57,14.149-2.746,1.173-26.285-2.912-30.328-25.489-7.417-30.128-2.686S652.259,422.286,655.2,425Z" transform="translate(2.746 1.71)" fill="#3e2d4a"/>
      <path id="Path_153" data-name="Path 153" d="M693.641,406.58a18.46,18.46,0,1,1-17.756-19.138A18.46,18.46,0,0,1,693.641,406.58Z" transform="translate(3.053 1.112)" fill="#3e2d4a"/>
      <path id="Path_154" data-name="Path 154" d="M681.3,418.291s1.2,14.376,0,15.974-8.786.4-10.782,0-2.8-15.974-1.6-15.974S681.067,415.085,681.3,418.291Z" transform="translate(4.522 4.836)" fill="#df9f85"/>
      <path id="Path_155" data-name="Path 155" d="M659.769,404.52s.759,22.407,15.908,23.375,15.133-30.6,9.651-33.607S656.968,391.848,659.769,404.52Z" transform="translate(3.406 1.788)" fill="#df9f85"/>
      <path id="Path_156" data-name="Path 156" d="M673.726,407.465s2.893,6.9,2.148,7.354a4.426,4.426,0,0,1-3.51-.132C671.777,414.18,672.542,406.694,673.726,407.465Z" transform="translate(5.004 3.639)" fill="#c05c5d"/>
      <path id="Path_157" data-name="Path 157" d="M672.051,392.594s-5.432,2.627-6.466,7.559-.5,17.558-6.253,16.979C659.332,417.131,648.187,392.142,672.051,392.594Z" transform="translate(3.052 1.764)" fill="#3e2d4a"/>
      <path id="Path_158" data-name="Path 158" d="M672.875,392.817c-.492.354,5.6.339,9.085,4.562s4.311,14.777,4.851,14.975,2.689-13.08-1.13-17.068S675.68,390.81,672.875,392.817Z" transform="translate(5.091 1.648)" fill="#3e2d4a"/>
      <path id="Path_159" data-name="Path 159" d="M669.069,422.138s5.895,3.351,12.014.22c0,0,.477,3.761,0,4.63s-10.169,1.487-12.077-2.789C669.006,424.2,668.519,421.952,669.069,422.138Z" transform="translate(4.58 5.501)" fill="#c05c5d"/>
      <path id="Path_160" data-name="Path 160" d="M684.164,411.283s1.45-5.609,3.98-3.613.241,7.858-2.26,8.39S682.783,414.175,684.164,411.283Z" transform="translate(6.431 3.618)" fill="#df9f85"/>
      <path id="Path_161" data-name="Path 161" d="M663.435,410.511s-1.026-5.7-3.7-3.9-.828,7.818,1.625,8.536S664.6,413.5,663.435,410.511Z" transform="translate(3.266 3.494)" fill="#df9f85"/>
      <path id="Path_162" data-name="Path 162" d="M678.6,404.739s2.514-1.687,4.37.157c1.632,1.622-1.816.533-3,.892S677.165,406.216,678.6,404.739Z" transform="translate(5.747 3.212)" fill="#3e2d4a"/>
      <path id="Path_163" data-name="Path 163" d="M669.776,405.109s-2.41-1.833-4.372-.1c-1.725,1.523,1.781.64,2.947,1.068S671.122,406.668,669.776,405.109Z" transform="translate(4.09 3.241)" fill="#3e2d4a"/>
      <path id="Path_164" data-name="Path 164" d="M668.716,416.012l-.19,0a4.932,4.932,0,0,1,.181-9.861l.19,0a4.932,4.932,0,0,1-.181,9.861Zm-.009-9.27a4.337,4.337,0,0,0-.158,8.672l.167,0a4.337,4.337,0,0,0,.158-8.672Z" transform="translate(3.944 3.48)" fill="#fffcf6"/>
      <path id="Path_165" data-name="Path 165" d="M679.643,415.4l-.189,0a4.932,4.932,0,0,1,.181-9.861l.189,0a4.933,4.933,0,0,1-.181,9.862Zm-.008-9.271a4.337,4.337,0,0,0-.159,8.672l.167,0a4.337,4.337,0,0,0,.158-8.672Z" transform="translate(5.326 3.402)" fill="#fffcf6"/>
      <path id="Path_166" data-name="Path 166" d="M664.411,409.9a.29.29,0,0,1-.109-.021l-1.8-.712a.3.3,0,1,1,.219-.553l1.8.712a.3.3,0,0,1-.109.575Z" transform="translate(3.758 3.79)" fill="#fffcf6"/>
      <path id="Path_167" data-name="Path 167" d="M683.078,409.206a.3.3,0,0,1-.081-.584l2.506-.716a.3.3,0,0,1,.163.572l-2.508.716A.288.288,0,0,1,683.078,409.206Z" transform="translate(6.347 3.701)" fill="#fffcf6"/>
      <path id="Path_168" data-name="Path 168" d="M673.113,391.71s.684,12.146,4.031,13.248,11.58.8,11.977-.527-6.383-12.02-11.248-13.734c-8.532-3.005-15.9,10.867-14.924,14.21s8.306.417,9.869-.012S672.8,394.111,673.113,391.71Z" transform="translate(3.828 1.472)" fill="#3e2d4a"/>
      <path id="Path_169" data-name="Path 169" d="M672.305,410.806a.3.3,0,0,1-.023-.594l3.053-.238a.278.278,0,0,1,.32.273.3.3,0,0,1-.274.32l-3.053.238Z" transform="translate(4.985 3.963)" fill="#fffcf6"/>
      <path id="Path_170" data-name="Path 170" d="M669.414,389.777a.436.436,0,0,1-.2-.049,5.034,5.034,0,0,1-2.9-3.5c-.631-3.243,2.315-6.721,2.442-6.867a.445.445,0,1,1,.676.58c-.027.033-2.792,3.3-2.241,6.119a4.191,4.191,0,0,0,2.435,2.877.446.446,0,0,1-.205.843Z" transform="translate(4.252 0.071)" fill="#3e2d4a"/>
      <path id="Path_171" data-name="Path 171" d="M674.84,390.654a.447.447,0,0,1-.286-.789c.033-.028,3.3-2.8,3.216-5.669a4.184,4.184,0,0,0-1.93-3.236.447.447,0,0,1,.535-.716,5.032,5.032,0,0,1,2.287,3.93c.091,3.305-3.387,6.251-3.537,6.376A.443.443,0,0,1,674.84,390.654Z" transform="translate(5.286 0.192)" fill="#3e2d4a"/>
      <path id="Path_172" data-name="Path 172" d="M689.192,425.955a.447.447,0,0,1-.276-.8,8.268,8.268,0,0,0,2.822-7.86,56.45,56.45,0,0,0-1.767-6.235c-1.254-3.884-2.55-7.9-2.572-11.779a.446.446,0,0,1,.444-.448h0a.446.446,0,0,1,.446.444c.021,3.739,1.3,7.69,2.528,11.508a56.92,56.92,0,0,1,1.8,6.341,9.166,9.166,0,0,1-3.151,8.734A.441.441,0,0,1,689.192,425.955Z" transform="translate(6.932 2.555)" fill="#3e2d4a"/>
      <path id="Path_173" data-name="Path 173" d="M691.911,406.946a.464.464,0,0,1-.054,0,.446.446,0,0,1-.389-.5c.6-4.9-.332-8.916-2.779-11.925-3.94-4.847-10.547-5.45-10.614-5.455a.446.446,0,0,1,.073-.89c.286.023,7.042.633,11.228,5.774,2.61,3.2,3.612,7.446,2.979,12.6A.447.447,0,0,1,691.911,406.946Z" transform="translate(5.7 1.206)" fill="#3e2d4a"/>
      <path id="Path_174" data-name="Path 174" d="M674.374,420.431a4.314,4.314,0,0,1-1.525-.282.447.447,0,0,1-.239-.582.454.454,0,0,1,.582-.242,3.084,3.084,0,0,0,2.291-.032.447.447,0,0,1,.4.8A3.359,3.359,0,0,1,674.374,420.431Z" transform="translate(5.057 5.137)" fill="#c05c5d"/>
      <path id="Path_175" data-name="Path 175" d="M661.7,413.565a.431.431,0,0,1-.131-.019.446.446,0,0,1-.3-.558,4.465,4.465,0,0,0-1.15-4.455.447.447,0,0,1,.595-.667,5.313,5.313,0,0,1,1.408,5.382A.443.443,0,0,1,661.7,413.565Z" transform="translate(3.462 3.683)" fill="#c05c5d"/>
      <path id="Path_176" data-name="Path 176" d="M685.047,414.725h-.039a.448.448,0,0,1-.406-.486,8.894,8.894,0,0,1,2.024-5.182.447.447,0,0,1,.646.617,8.164,8.164,0,0,0-1.78,4.645A.449.449,0,0,1,685.047,414.725Z" transform="translate(6.578 3.83)" fill="#c05c5d"/>
      <path id="Path_177" data-name="Path 177" d="M662,432.292s10.134,12.116,17.95,8.873,15.137-12.03,11.209-13.2S655.856,427.417,662,432.292Z" transform="translate(3.618 6.176)" fill="#df9f85"/>
      <path id="Path_178" data-name="Path 178" d="M687.84,417.425s3.057,22.158.2,24.663-6.473.312-11.324,1.971-5.017-5.077-4.685-8.533S673.946,410.118,687.84,417.425Z" transform="translate(4.974 4.719)" fill="#fff"/>
      <path id="Path_179" data-name="Path 179" d="M638.6,447.7l-6,17.707,43.706,14.8s6.685-16.97,5.844-17.255S638.6,447.7,638.6,447.7Z" transform="translate(0 8.736)" fill="#3e2d4a"/>
      <path id="Path_180" data-name="Path 180" d="M645.689,467.173s7.473-5.163,7.212-3.849-3.151,3.849-3.151,3.849,5.249-4.063,5.592-2.031-1.5,3.96-1.5,3.96,3.693-2.944,4.289-1.421-4.169,8.254-8.381,8.059S643.628,468.55,645.689,467.173Z" transform="translate(1.55 10.685)" fill="#df9f85"/>
      <path id="Path_181" data-name="Path 181" d="M648.05,458.913l16.361,6.664s2.849-8.659,2.313-9.661-6.435-1.374-8.052-2.964-1.033-3.532-3.734-3.195S648.05,458.913,648.05,458.913Z" transform="translate(1.954 8.992)" fill="#fff"/>
      <path id="Path_182" data-name="Path 182" d="M674.761,419.441a.457.457,0,0,1-.152-.027c-1.291-.467-1.931-1.044-1.955-1.76-.038-1.143,1.6-1.923,1.927-2.068a.447.447,0,0,1,.359.818c-.594.262-1.408.832-1.4,1.22,0,.108.114.5,1.369.951a.447.447,0,0,1-.153.866Z" transform="translate(5.066 4.669)" fill="#c05c5d"/>
      <path id="Path_183" data-name="Path 183" d="M670.216,411.693a.45.45,0,0,1-.3-.112c-1.869-1.651-3.178-1.209-3.232-1.191a.452.452,0,0,1-.571-.262.444.444,0,0,1,.252-.572c.073-.029,1.834-.683,4.142,1.355a.447.447,0,0,1-.3.782Z" transform="translate(4.236 3.895)" fill="#3e2d4a"/>
      <path id="Path_184" data-name="Path 184" d="M677.944,411.782a.446.446,0,0,1-.3-.781c2.3-2.034,4.067-1.386,4.14-1.355a.446.446,0,0,1-.318.834c-.065-.024-1.374-.451-3.232,1.191A.445.445,0,0,1,677.944,411.782Z" transform="translate(5.679 3.907)" fill="#3e2d4a"/>
      <path id="Path_185" data-name="Path 185" d="M703.631,470.933s4.762,2.751,13.092-4.516,11.3-12.974,6.911-20.6-15.241-16.052-18.019-16.036S692.92,460.1,703.631,470.933Z" transform="translate(8.37 6.469)" fill="#e6b56f"/>
      <path id="Path_186" data-name="Path 186" d="M695.989,419.93s-11.592-4.962-15.877-3.812,4.033,2.241,5.727,3.062-6.21-.537-7.2.09,7.187,2.944,7.187,2.944-7.247-.212-7.741.885,6.671,2.34,6.671,2.34-5.459.908-5.31,2.073,10.224.8,13.515,4.973,7.96,26.913,21.781,24.828,13.689-10.6,3.722-21.54S700.01,421.85,695.989,419.93Z" transform="translate(5.751 4.719)" fill="#df9f85"/>
    </g>
  </g>
</svg>
