<svg xmlns="http://www.w3.org/2000/svg" width="153.11" height="153.11" viewBox="0 0 153.11 153.11">
  <g id="Group_10" data-name="Group 10" transform="translate(-453.787 -355.107)">
    <circle id="Ellipse_12" data-name="Ellipse 12" cx="63.46" cy="63.46" r="63.46" transform="translate(453.787 478.499) rotate(-76.458)" fill="#f5f2ed"/>
    <g id="Group_9" data-name="Group 9" transform="translate(-2 -4)">
      <path id="Path_108" data-name="Path 108" d="M499.8,473.059h64.12S566.168,436.191,558,430.8s-46.369-4.268-54.836.341S499.8,473.059,499.8,473.059Z" transform="translate(0.693 2.649)" fill="#e6b56f"/>
      <path id="Path_109" data-name="Path 109" d="M510,424.575a.412.412,0,0,1-.265-.095c-.176-.143-4.288-3.6-2.037-10.579a52.383,52.383,0,0,1,2.236-5.691,20.573,20.573,0,0,0,2.277-8.967.415.415,0,0,1,.433-.4.419.419,0,0,1,.4.434,21.53,21.53,0,0,1-2.347,9.275,51.927,51.927,0,0,0-2.206,5.608c-2.075,6.437,1.734,9.645,1.773,9.676a.418.418,0,0,1-.265.741Z" transform="translate(1.17 1.102)" fill="#3e2d4a"/>
      <path id="Path_110" data-name="Path 110" d="M531.97,384.081a5.244,5.244,0,1,1-5.044-5.436A5.243,5.243,0,0,1,531.97,384.081Z" transform="translate(1.959 0)" fill="#3e2d4a"/>
      <path id="Path_111" data-name="Path 111" d="M509.443,422.9s1.538,3.172,7.821,4.289,11.213-1.158,16.063.6,11.857-.534,13.245-2.571,1.1-24.606-2.726-28.391-23.862-6.943-28.2-2.514S506.689,420.362,509.443,422.9Z" transform="translate(1.257 0.738)" fill="#3e2d4a"/>
      <path id="Path_112" data-name="Path 112" d="M545.583,405.357a17.281,17.281,0,1,1-16.622-17.916A17.281,17.281,0,0,1,545.583,405.357Z" transform="translate(1.389 0.479)" fill="#3e2d4a"/>
      <path id="Path_113" data-name="Path 113" d="M534.768,418.2s1.122,13.458,0,14.954-8.224.373-10.093,0-2.617-14.954-1.5-14.954S534.553,415.2,534.768,418.2Z" transform="translate(2.023 2.086)" fill="#df9f85"/>
      <path id="Path_114" data-name="Path 114" d="M514.052,403.77s.711,20.976,14.893,21.882,14.167-28.649,9.034-31.461S511.43,391.907,514.052,403.77Z" transform="translate(1.541 0.771)" fill="#df9f85"/>
      <path id="Path_115" data-name="Path 115" d="M527.924,407.462s2.708,6.456,2.011,6.884a4.143,4.143,0,0,1-3.286-.123C526.1,413.748,526.815,406.739,527.924,407.462Z" transform="translate(2.231 1.57)" fill="#c05c5d"/>
      <path id="Path_116" data-name="Path 116" d="M523.958,411.619a1.332,1.332,0,1,1-1.266-1.4A1.332,1.332,0,0,1,523.958,411.619Z" transform="translate(1.949 1.723)" fill="#3e2d4a"/>
      <path id="Path_117" data-name="Path 117" d="M534.807,411.024a1.332,1.332,0,1,1-1.267-1.4A1.333,1.333,0,0,1,534.807,411.024Z" transform="translate(2.541 1.691)" fill="#3e2d4a"/>
      <path id="Path_118" data-name="Path 118" d="M525.371,392.593s-5.085,2.459-6.053,7.076-.467,16.436-5.854,15.894C513.464,415.564,503.031,392.17,525.371,392.593Z" transform="translate(1.389 0.761)" fill="#3e2d4a"/>
      <path id="Path_119" data-name="Path 119" d="M527.171,392.744c-.461.331,5.243.317,8.505,4.271s4.036,13.834,4.541,14.018,2.517-12.244-1.058-15.978S529.8,390.865,527.171,392.744Z" transform="translate(2.268 0.711)" fill="#3e2d4a"/>
      <path id="Path_120" data-name="Path 120" d="M523.351,422.138s5.519,3.137,11.247.206c0,0,.446,3.521,0,4.334s-9.519,1.392-11.306-2.611C523.292,424.066,522.835,421.964,523.351,422.138Z" transform="translate(2.048 2.373)" fill="#c05c5d"/>
      <path id="Path_121" data-name="Path 121" d="M538.416,411.025s1.357-5.251,3.726-3.382.226,7.357-2.115,7.854S537.123,413.732,538.416,411.025Z" transform="translate(2.846 1.56)" fill="#df9f85"/>
      <path id="Path_122" data-name="Path 122" d="M517.413,410.24s-.961-5.338-3.462-3.651-.775,7.319,1.522,7.99S518.5,413.037,517.413,410.24Z" transform="translate(1.481 1.507)" fill="#df9f85"/>
      <path id="Path_123" data-name="Path 123" d="M532.934,404.434s2.538-1.263,4.038.674c1.319,1.7-1.75.275-2.9.464S531.423,405.631,532.934,404.434Z" transform="translate(2.549 1.385)" fill="#3e2d4a"/>
      <path id="Path_124" data-name="Path 124" d="M523.668,404.666s-2.543-1.254-4.036.689c-1.312,1.707,1.752.269,2.9.455S525.184,405.857,523.668,404.666Z" transform="translate(1.841 1.398)" fill="#3e2d4a"/>
      <path id="Path_125" data-name="Path 125" d="M522.7,415.382l-.178,0a4.617,4.617,0,0,1,.17-9.232l.177,0a4.617,4.617,0,0,1-.169,9.232Zm-.008-8.678a4.06,4.06,0,0,0-.148,8.118l.156,0a4.06,4.06,0,0,0,.148-8.118Z" transform="translate(1.773 1.501)" fill="#fffcf6"/>
      <path id="Path_126" data-name="Path 126" d="M533.625,414.769l-.177,0a4.617,4.617,0,0,1,.17-9.232l.177,0a4.618,4.618,0,0,1-.17,9.233Zm-.007-8.679a4.06,4.06,0,0,0-.149,8.118l.156,0a4.06,4.06,0,0,0,.148-8.118Z" transform="translate(2.369 1.467)" fill="#fffcf6"/>
      <path id="Path_127" data-name="Path 127" d="M518.575,409.821a.272.272,0,0,1-.1-.02l-1.688-.667a.278.278,0,1,1,.2-.518l1.689.666a.279.279,0,0,1-.1.538Z" transform="translate(1.693 1.634)" fill="#fffcf6"/>
      <path id="Path_128" data-name="Path 128" d="M537.357,409.122a.279.279,0,0,1-.077-.546l2.347-.671a.278.278,0,1,1,.152.536l-2.346.671A.275.275,0,0,1,537.357,409.122Z" transform="translate(2.81 1.596)" fill="#fffcf6"/>
      <path id="Path_129" data-name="Path 129" d="M526.757,391.619s.64,11.37,3.773,12.4,10.841.75,11.212-.493-5.975-11.252-10.53-12.857c-7.987-2.814-14.882,10.173-13.971,13.3s7.775.39,9.239-.012S526.463,393.866,526.757,391.619Z" transform="translate(1.723 0.635)" fill="#3e2d4a"/>
      <path id="Path_130" data-name="Path 130" d="M526.584,410.752a.278.278,0,0,1-.022-.556l2.859-.223a.262.262,0,0,1,.3.255.279.279,0,0,1-.256.3l-2.858.223Z" transform="translate(2.222 1.709)" fill="#fffcf6"/>
      <path id="Path_131" data-name="Path 131" d="M523.508,389.1a.415.415,0,0,1-.192-.046,4.714,4.714,0,0,1-2.718-3.279c-.591-3.036,2.167-6.292,2.286-6.429a.417.417,0,1,1,.633.543c-.025.031-2.613,3.089-2.1,5.728a3.921,3.921,0,0,0,2.28,2.693.418.418,0,0,1-.192.789Z" transform="translate(1.906 0.03)" fill="#3e2d4a"/>
      <path id="Path_132" data-name="Path 132" d="M529.11,389.984a.418.418,0,0,1-.268-.738c.031-.026,3.087-2.62,3.011-5.307a3.918,3.918,0,0,0-1.807-3.03.419.419,0,1,1,.5-.671,4.71,4.71,0,0,1,2.141,3.679c.085,3.094-3.172,5.852-3.311,5.969A.414.414,0,0,1,529.11,389.984Z" transform="translate(2.353 0.083)" fill="#3e2d4a"/>
      <path id="Path_133" data-name="Path 133" d="M543.376,424.224a.418.418,0,0,1-.258-.748,7.743,7.743,0,0,0,2.642-7.358,52.825,52.825,0,0,0-1.655-5.837c-1.174-3.636-2.387-7.4-2.407-11.026a.417.417,0,0,1,.415-.42h0a.417.417,0,0,1,.418.415c.02,3.5,1.214,7.2,2.366,10.773a53.3,53.3,0,0,1,1.681,5.936,8.581,8.581,0,0,1-2.95,8.176A.413.413,0,0,1,543.376,424.224Z" transform="translate(3.062 1.102)" fill="#3e2d4a"/>
      <path id="Path_134" data-name="Path 134" d="M545.3,405.747a.423.423,0,0,1-.051,0,.416.416,0,0,1-.364-.465c.564-4.591-.311-8.347-2.6-11.164-3.689-4.538-9.874-5.1-9.936-5.106a.418.418,0,0,1,.069-.833c.268.021,6.592.593,10.511,5.406,2.442,3,3.381,6.971,2.788,11.8A.418.418,0,0,1,545.3,405.747Z" transform="translate(2.531 0.52)" fill="#3e2d4a"/>
      <path id="Path_135" data-name="Path 135" d="M528.618,420.153c-.469,0-.969-.015-1.344-.028a.42.42,0,0,1-.4-.434.4.4,0,0,1,.435-.4,16.4,16.4,0,0,0,2.338-.018.427.427,0,0,1,.523.271.407.407,0,0,1-.245.517A5.505,5.505,0,0,1,528.618,420.153Z" transform="translate(2.253 2.216)" fill="#c05c5d"/>
      <path id="Path_136" data-name="Path 136" d="M515.886,413.194a.4.4,0,0,1-.122-.018.418.418,0,0,1-.277-.522,4.176,4.176,0,0,0-1.078-4.171.419.419,0,1,1,.558-.624,4.974,4.974,0,0,1,1.318,5.039A.414.414,0,0,1,515.886,413.194Z" transform="translate(1.566 1.588)" fill="#c05c5d"/>
      <path id="Path_137" data-name="Path 137" d="M539.317,414.354h-.037a.419.419,0,0,1-.38-.454,8.325,8.325,0,0,1,1.9-4.851.418.418,0,0,1,.6.578,7.642,7.642,0,0,0-1.666,4.348A.42.42,0,0,1,539.317,414.354Z" transform="translate(2.909 1.652)" fill="#c05c5d"/>
      <path id="Path_138" data-name="Path 138" d="M516.247,431.984s9.487,11.342,16.8,8.307,14.17-11.262,10.493-12.353S510.5,427.42,516.247,431.984Z" transform="translate(1.633 2.664)" fill="#df9f85"/>
      <path id="Path_139" data-name="Path 139" d="M542.1,446.118s-5.529-4.964-11.309-2.158-4.021,8.634-9.3,7.554-14.841.552-12.566,6.26-12.278,10.173-6.749,17.512,20.45,1.7,25.034,3.209,15.391,2.158,16.647-2.159,9.3-4.965,8.042-10.576S549.389,452.378,542.1,446.118Z" transform="translate(0.837 3.517)" fill="#fff"/>
      <path id="Path_140" data-name="Path 140" d="M524.47,458.679s5.645,6.777,5.63,13.3c-.01,4.153-3.067-2.847-4.116-4.264s2.261,4.684,1.164,6.638c-.536.955-3.953-6.1-3.953-6.1s1.45,6.63.526,7.274-3.309-5.732-3.309-5.732.112,5.179-.986,5.244-.7-5.259-5.11-7.564-24.484,13.649-24.96.574,5.413-17.606,19.059-15.231C519.184,454.693,520.882,455.881,524.47,458.679Z" transform="translate(0.205 4.014)" fill="#df9f85"/>
      <path id="Path_141" data-name="Path 141" d="M534.847,458.674s-5.645,6.777-5.63,13.3c.008,4.153,3.067-2.847,4.116-4.264s-2.261,4.684-1.164,6.638c.536.955,3.952-6.1,3.952-6.1s-1.45,6.63-.526,7.274,3.308-5.732,3.308-5.732-.111,5.179.987,5.244.7-5.259,5.11-7.564,27.03,15.217,27.507,2.142-7.96-19.174-21.606-16.8C540.134,454.688,538.435,455.875,534.847,458.674Z" transform="translate(2.381 4.019)" fill="#df9f85"/>
      <path id="Path_142" data-name="Path 142" d="M540.514,469.742s.12-11.471,6.39-11.4,9.249,5.679,3.348,8.984S540.348,471.98,540.514,469.742Z" transform="translate(2.997 4.349)" fill="#fff"/>
      <path id="Path_143" data-name="Path 143" d="M545.273,462.382a4.472,4.472,0,0,0,3.366,2.567c2.365.233,7.741,0,8.208,3.388s-2.342,8.064-5.787,7.6-6.98-1.171-9.885.776S541.177,460.985,545.273,462.382Z" transform="translate(2.969 4.565)" fill="#fff"/>
      <path id="Path_144" data-name="Path 144" d="M550.946,445.288a2.8,2.8,0,1,1-2.8-2.8A2.805,2.805,0,0,1,550.946,445.288Z" transform="translate(3.261 3.483)" fill="#fff"/>
      <path id="Path_145" data-name="Path 145" d="M520.11,445.288a2.8,2.8,0,1,1-2.805-2.8A2.805,2.805,0,0,1,520.11,445.288Z" transform="translate(1.578 3.483)" fill="#fff"/>
      <path id="Path_146" data-name="Path 146" d="M528.5,417.7a7.464,7.464,0,0,1-4.113-1.552.417.417,0,1,1,.52-.653c.022.017,2.14,1.674,4.2,1.318a3.686,3.686,0,0,0,2.488-1.872.418.418,0,0,1,.712.438,4.484,4.484,0,0,1-3.059,2.258A4.424,4.424,0,0,1,528.5,417.7Z" transform="translate(2.109 1.969)" fill="#c05c5d"/>
      <path id="Path_147" data-name="Path 147" d="M513.8,428.948s-7.831,10.757-8.06,17.079-7.236,8.988-5.25,18.1c.781,3.587,4.427,8.84.63,10.675-4.495,2.172-11.91,1.171-12.826-.269-6.623-10.406.088-34.391,7.063-39.868C500.642,430.512,513.8,428.948,513.8,428.948Z" transform="translate(0 2.745)" fill="#e6b56f"/>
      <path id="Path_148" data-name="Path 148" d="M547.412,428.948s7.832,10.757,8.061,17.079,7.236,8.988,5.25,18.1c-.782,3.587-4.427,8.84-.63,10.675,4.495,2.172,11.91,1.171,12.826-.269,6.622-10.406-.088-34.391-7.063-39.868C560.568,430.512,547.412,428.948,547.412,428.948Z" transform="translate(3.374 2.745)" fill="#e6b56f"/>
    </g>
  </g>
</svg>
