<svg xmlns="http://www.w3.org/2000/svg" width="179.493" height="179.493" viewBox="0 0 179.493 179.493">
  <g id="Group_8" data-name="Group 8" transform="translate(-294 -357)">
    <circle id="Ellipse_10" data-name="Ellipse 10" cx="63.46" cy="63.46" r="63.46" transform="translate(294 446.746) rotate(-45)" fill="#f5f2ed"/>
    <g id="Group_7" data-name="Group 7" transform="translate(-3.919 10.36)">
      <path id="Path_69" data-name="Path 69" d="M356.161,473.473h64.7s2.265-37.2-5.977-42.644-46.788-4.306-55.332.344S356.161,473.473,356.161,473.473Z" transform="translate(0.814 3.112)" fill="#e6b56f"/>
      <g id="Group_6" data-name="Group 6" transform="translate(362.32 378.64)">
        <path id="Path_70" data-name="Path 70" d="M366.372,424.808a.416.416,0,0,1-.267-.1c-.178-.145-4.327-3.637-2.057-10.675A52.914,52.914,0,0,1,366.3,408.3a20.793,20.793,0,0,0,2.3-9.049.452.452,0,0,1,.437-.405.422.422,0,0,1,.4.438,21.7,21.7,0,0,1-2.37,9.36,52.332,52.332,0,0,0-2.224,5.658c-2.086,6.469,1.63,9.632,1.79,9.763a.424.424,0,0,1,.057.594A.418.418,0,0,1,366.372,424.808Z" transform="translate(-360.945 -377.346)" fill="#3e2d4a"/>
        <path id="Path_71" data-name="Path 71" d="M388.411,384.13a5.291,5.291,0,1,1-5.088-5.485A5.29,5.29,0,0,1,388.411,384.13Z" transform="translate(-360.018 -378.64)" fill="#3e2d4a"/>
        <path id="Path_72" data-name="Path 72" d="M365.8,423.181s1.551,3.2,7.891,4.328,11.314-1.168,16.208.608,11.964-.538,13.365-2.594,1.108-24.828-2.751-28.647-24.077-7.006-28.459-2.537S363.017,420.617,365.8,423.181Z" transform="translate(-360.843 -377.774)" fill="#3e2d4a"/>
        <circle id="Ellipse_11" data-name="Ellipse 11" cx="17.437" cy="17.437" r="17.437" transform="translate(0 31.884) rotate(-56.926)" fill="#3e2d4a"/>
        <path id="Path_73" data-name="Path 73" d="M391.223,418.212s1.132,13.58,0,15.089-8.3.377-10.184,0-2.641-15.089-1.509-15.089S391.006,415.184,391.223,418.212Z" transform="translate(-359.943 -376.191)" fill="#df9f85"/>
        <path id="Path_74" data-name="Path 74" d="M370.4,403.869s.717,21.166,15.027,22.08,14.295-28.908,9.116-31.745S367.754,391.9,370.4,403.869Z" transform="translate(-360.509 -377.734)" fill="#df9f85"/>
        <path id="Path_75" data-name="Path 75" d="M384.283,407.462s2.733,6.514,2.029,6.946a4.181,4.181,0,0,1-3.316-.125C382.442,413.805,383.165,406.733,384.283,407.462Z" transform="translate(-359.699 -376.797)" fill="#c05c5d"/>
        <path id="Path_76" data-name="Path 76" d="M380.328,409.593a1.344,1.344,0,1,1-1.277-1.409A1.344,1.344,0,0,1,380.328,409.593Z" transform="translate(-360.03 -376.747)" fill="#3e2d4a"/>
        <path id="Path_77" data-name="Path 77" d="M391.177,409a1.344,1.344,0,1,1-1.278-1.409A1.345,1.345,0,0,1,391.177,409Z" transform="translate(-359.335 -376.785)" fill="#3e2d4a"/>
        <path id="Path_78" data-name="Path 78" d="M381.846,392.593s-5.131,2.481-6.108,7.14-.471,16.585-5.907,16.038C369.832,415.771,359.3,392.167,381.846,392.593Z" transform="translate(-360.688 -377.747)" fill="#3e2d4a"/>
        <path id="Path_79" data-name="Path 79" d="M383.518,392.754c-.465.334,5.291.32,8.582,4.31s4.072,13.959,4.582,14.145,2.541-12.355-1.067-16.122S386.167,390.857,383.518,392.754Z" transform="translate(-359.655 -377.806)" fill="#3e2d4a"/>
        <path id="Path_80" data-name="Path 80" d="M379.7,422.138s5.567,3.166,11.347.208c0,0,.45,3.553,0,4.373s-9.606,1.4-11.408-2.635C379.639,424.084,379.18,421.962,379.7,422.138Z" transform="translate(-359.914 -375.853)" fill="#c05c5d"/>
        <path id="Path_81" data-name="Path 81" d="M394.768,411.059s1.37-5.3,3.759-3.413.228,7.423-2.135,7.925S393.464,413.79,394.768,411.059Z" transform="translate(-358.976 -376.807)" fill="#df9f85"/>
        <path id="Path_82" data-name="Path 82" d="M373.8,410.276s-.969-5.386-3.493-3.684-.782,7.385,1.535,8.063S374.9,413.1,373.8,410.276Z" transform="translate(-360.58 -376.87)" fill="#df9f85"/>
        <path id="Path_83" data-name="Path 83" d="M389.286,404.438s2.561-1.275,4.075.68c1.33,1.717-1.766.278-2.923.468S387.761,405.645,389.286,404.438Z" transform="translate(-359.325 -377.013)" fill="#3e2d4a"/>
        <path id="Path_84" data-name="Path 84" d="M380.054,404.669s-2.566-1.265-4.072.695c-1.324,1.723,1.767.271,2.925.459S381.583,405.872,380.054,404.669Z" transform="translate(-360.157 -376.998)" fill="#3e2d4a"/>
        <path id="Path_85" data-name="Path 85" d="M379.087,415.465l-.179,0a4.659,4.659,0,0,1,.171-9.315l.178,0a4.659,4.659,0,0,1-.17,9.315Zm-.007-8.756a4.1,4.1,0,0,0-.15,8.191l.157,0a4.1,4.1,0,0,0,.15-8.191Z" transform="translate(-360.236 -376.878)" fill="#fffcf6"/>
        <path id="Path_86" data-name="Path 86" d="M390.012,414.852l-.178,0a4.659,4.659,0,0,1,.17-9.315l.179,0a4.66,4.66,0,0,1-.171,9.316ZM390,406.095a4.1,4.1,0,0,0-.149,8.191l.156,0a4.1,4.1,0,0,0,.15-8.191Z" transform="translate(-359.536 -376.917)" fill="#fffcf6"/>
        <path id="Path_87" data-name="Path 87" d="M374.939,409.832a.274.274,0,0,1-.1-.02l-1.7-.673a.281.281,0,0,1,.206-.522l1.7.672a.281.281,0,0,1-.1.543Z" transform="translate(-360.331 -376.721)" fill="#fffcf6"/>
        <path id="Path_88" data-name="Path 88" d="M393.706,409.134a.281.281,0,0,1-.077-.551l2.367-.677a.281.281,0,0,1,.154.541l-2.368.677A.266.266,0,0,1,393.706,409.134Z" transform="translate(-359.019 -376.766)" fill="#fffcf6"/>
        <path id="Path_89" data-name="Path 89" d="M383.189,391.631s.646,11.473,3.807,12.514,10.939.757,11.313-.5-6.029-11.354-10.625-12.973c-8.059-2.839-15.016,10.265-14.1,13.422s7.845.394,9.322-.012S382.893,393.9,383.189,391.631Z" transform="translate(-360.295 -377.895)" fill="#3e2d4a"/>
        <path id="Path_90" data-name="Path 90" d="M375.209,414.3s7.325-4,10.482-3.339,8.72.881,8.946,2.025-7.071.458-9.325.622S374.368,416.156,375.209,414.3Z" transform="translate(-360.19 -376.574)" fill="#c05c5d" opacity="0.21"/>
        <path id="Path_91" data-name="Path 91" d="M379.1,411.8a.422.422,0,0,1-.15-.816,1.86,1.86,0,0,0,.8-.45.394.394,0,0,1,.53-.223.443.443,0,0,1,.237.566c-.067.18-.32.536-1.268.9A.411.411,0,0,1,379.1,411.8Z" transform="translate(-359.964 -376.613)" fill="#c05c5d"/>
        <path id="Path_92" data-name="Path 92" d="M389.564,411.492a2.827,2.827,0,0,1-1.238-.391.421.421,0,0,1,.386-.749,1.81,1.81,0,0,0,.87.295.4.4,0,0,1,.52.245.445.445,0,0,1-.264.555A.753.753,0,0,1,389.564,411.492Z" transform="translate(-359.36 -376.611)" fill="#c05c5d"/>
        <path id="Path_93" data-name="Path 93" d="M382.932,410.759a.281.281,0,0,1-.021-.561l2.885-.225a.268.268,0,0,1,.3.258.28.28,0,0,1-.258.3l-2.884.225Z" transform="translate(-359.709 -376.633)" fill="#fffcf6"/>
        <path id="Path_94" data-name="Path 94" d="M379.88,389.191a.418.418,0,0,1-.193-.047,4.753,4.753,0,0,1-2.742-3.308c-.6-3.064,2.188-6.348,2.306-6.487a.422.422,0,0,1,.641.548c-.027.031-2.639,3.117-2.119,5.78a3.961,3.961,0,0,0,2.3,2.718.421.421,0,0,1-.194.8Z" transform="translate(-360.08 -378.604)" fill="#3e2d4a"/>
        <path id="Path_95" data-name="Path 95" d="M385.459,390.072a.422.422,0,0,1-.27-.745c.031-.027,3.115-2.643,3.038-5.353a3.954,3.954,0,0,0-1.823-3.058.422.422,0,0,1,.5-.677,4.751,4.751,0,0,1,2.161,3.713c.086,3.122-3.2,5.9-3.34,6.023A.419.419,0,0,1,385.459,390.072Z" transform="translate(-359.556 -378.543)" fill="#3e2d4a"/>
        <path id="Path_96" data-name="Path 96" d="M399.737,424.453a.421.421,0,0,1-.26-.754,7.813,7.813,0,0,0,2.666-7.424,53.464,53.464,0,0,0-1.671-5.887c-1.185-3.67-2.409-7.466-2.43-11.129a.421.421,0,0,1,.419-.424h0a.421.421,0,0,1,.421.419c.02,3.533,1.225,7.265,2.39,10.874a53.9,53.9,0,0,1,1.7,5.987,8.663,8.663,0,0,1-2.976,8.25A.42.42,0,0,1,399.737,424.453Z" transform="translate(-358.723 -377.346)" fill="#3e2d4a"/>
        <path id="Path_97" data-name="Path 97" d="M401.766,405.906a.433.433,0,0,1-.052,0,.42.42,0,0,1-.366-.469c.568-4.635-.316-8.428-2.63-11.27-3.73-4.582-9.959-5.143-10.021-5.147a.422.422,0,0,1,.069-.841c.269.021,6.651.6,10.606,5.455,2.464,3.027,3.41,7.034,2.812,11.906A.421.421,0,0,1,401.766,405.906Z" transform="translate(-359.346 -378.029)" fill="#3e2d4a"/>
        <path id="Path_98" data-name="Path 98" d="M384.98,420.311c-.439,0-.92-.014-1.352-.03a.562.562,0,0,1-.539-.584.59.59,0,0,1,.583-.541,17.357,17.357,0,0,0,2.319-.014.554.554,0,0,1,.711.341.57.57,0,0,1-.347.723A5.564,5.564,0,0,1,384.98,420.311Z" transform="translate(-359.681 -376.047)" fill="#c05c5d"/>
        <path id="Path_99" data-name="Path 99" d="M372.245,413.243a.41.41,0,0,1-.122-.018.422.422,0,0,1-.281-.527,4.215,4.215,0,0,0-1.085-4.208.422.422,0,0,1,.561-.63,5.017,5.017,0,0,1,1.332,5.084A.423.423,0,0,1,372.245,413.243Z" transform="translate(-360.48 -376.775)" fill="#c05c5d"/>
        <path id="Path_100" data-name="Path 100" d="M395.665,414.4h-.037a.423.423,0,0,1-.383-.459,8.406,8.406,0,0,1,1.913-4.895.422.422,0,0,1,.61.583,7.734,7.734,0,0,0-1.682,4.387A.422.422,0,0,1,395.665,414.4Z" transform="translate(-358.902 -376.7)" fill="#c05c5d"/>
        <path id="Path_101" data-name="Path 101" d="M373.7,410.5s3.665,3.059,3.952,3.525.172,6.423-.4,6.35-4.065-5.748-4.448-5.737-.213.624-.213.624,2.993,4.943,4.791,6.338,13.019,1.459,15.306.167,4.223-6.13,4.049-6.23-.611-.5-.683-.33c-.062.143-3.165,5.671-3.553,5.5s.044-6.311,0-6.892,4.494-4.981,4.494-4.981l.328-.552-.459-.126s-4.448,4.439-5.562,4.414-12.795.818-13.335.622-4.155-4.113-4.606-3.952S373.578,410.154,373.7,410.5Z" transform="translate(-360.356 -376.749)" fill="#fffcf6"/>
      </g>
      <path id="Path_102" data-name="Path 102" d="M372.6,432.025s9.573,11.444,16.955,8.382,14.3-11.363,10.588-12.465S366.8,427.419,372.6,432.025Z" transform="translate(1.918 3.129)" fill="#df9f85"/>
      <path id="Path_103" data-name="Path 103" d="M412.964,426.029s-1.3-10.1-1.732-10.757-3.726,4.314-2.837,7.129-11.409,2.887-10.45,7,.371,9.67,5.472,9.956,10.92-1.1,12.113-2.993S412.964,426.029,412.964,426.029Z" transform="translate(3.587 2.344)" fill="#df9f85"/>
      <path id="Path_104" data-name="Path 104" d="M418.832,433.98s13.218,16.727,10.639,27.729-15.153,12.783-17.732,11.358S410.126,424.447,418.832,433.98Z" transform="translate(4.394 3.465)" fill="#e6b56f"/>
      <path id="Path_105" data-name="Path 105" d="M358.1,432.015s-17.251,18.53-16.132,35.07c.924,13.654,21.883,11.577,24.462,10.288S366.807,423.387,358.1,432.015Z" transform="translate(0 3.36)" fill="#e6b56f"/>
      <path id="Path_106" data-name="Path 106" d="M413.39,427.645s17.316,34.253,12.559,40.116-13.211,6.535-16.586,1.671c-1.97-2.839.781-27.921-2.128-31S412.467,426.032,413.39,427.645Z" transform="translate(4.146 3.129)" fill="#df9f85"/>
      <path id="Path_107" data-name="Path 107" d="M390.425,461.174s11.774,4.443,13.658,8.186-5.1-.821-6.748-1.5,4.282,4.041,4.462,5.133-6.593-3.218-6.593-3.218,4.7,4.977,4.24,6.015-5.843-3.234-5.843-3.234,2.792,4.42,1.877,5.047-6.992-6.7-12-6.4-23.979,11.3-31.2.249-1.127-16.319,12.848-16.164S386.545,459.546,390.425,461.174Z" transform="translate(0.468 4.912)" fill="#df9f85"/>
    </g>
  </g>
</svg>
