<svg xmlns="http://www.w3.org/2000/svg" xmlns:xlink="http://www.w3.org/1999/xlink" width="402.493" height="358.682" viewBox="0 0 402.493 358.682">
  <defs>
    <clipPath id="clip-path">
      <path id="Path_11" data-name="Path 11" d="M134.321,393.352c1.743-6.167,2.944-14.894,1.481-21.233-1.09-4.721-3.98-7.858-5.354-12.768-1.542-5.51-4.224-10.647-5.771-16.156-5.767-20.541,2.558-44.456,3.774-65.357.687-11.8.268-42.614-12.622-47.176-3.067-1.086-6.841-.686-11.474,1.812-5.459,2.942-9.548,8.161-12.3,13.893s-4.289,12-5.708,18.241c-4.56,20.038-9.392,40.081-11.531,60.56-1.662,15.912-.936,31.927-.111,47.866.509,9.818-1.77,28.642,7.586,35.423,4,2.9,9.131,3.669,14.059,3.989C113.13,413.537,128.906,412.5,134.321,393.352Z" fill="none"/>
    </clipPath>
  </defs>
  <g id="OBJECTS" transform="translate(-48.754 -70.66)">
    <g id="Group_9" data-name="Group 9">
      <path id="Path_1" data-name="Path 1" d="M411.034,428.853c-7.5.907-15.717.273-22.978.273H79.017a42.056,42.056,0,0,1-13.371-2.32c-3.072-1.039-7.982-3.647-5.407-6.555,2.352-2.656,13.013-4.035,16.9-4.7,12.936-2.226,26.262-1.691,39.422-2q21.678-.512,43.371-.472c11.662.022,23.322.164,34.983.228,30.79.171,61.568-1.335,92.277-1.335,27.634-.432,55.388,1.268,82.969,2.051l46.628,1.324c4.687.133,15.011,1.557,11.7,6.865C426.169,425.928,415.789,428.278,411.034,428.853Z" fill="#6e6969" opacity="0.13"/>
      <path id="Path_2" data-name="Path 2" d="M399.911,335.694c20.38-22.772,36.186-51.473,43.585-81.414,6.664-26.961,5.955-56.3-5.117-81.711C402.325,89.805,276.314,82.03,201.616,98.157c-32.562,7.03-63.991,21.939-88.943,44.549-28.2,25.558-42.22,59.236-48.432,96.75-6.877,41.532,1.1,85.758,23.356,121.411,32.8,52.537,100.187,50.567,155.167,47.146,44.088-2.743,87.853-16.674,123.97-42.552A204.181,204.181,0,0,0,399.911,335.694Z" fill="#e6b56f"/>
      <path id="Path_3" data-name="Path 3" d="M308.654,397.745c30.881-5.447,62.14-18.337,87.7-37.326,23.019-17.1,41.893-40.555,50.137-67.253,26.845-86.942-65.711-169.872-134.308-202.757-29.9-14.335-64.143-21.795-98.461-19.261-38.792,2.863-71.959,20.751-101.615,46.408-32.832,28.4-55.933,67.978-62.28,109.533-9.353,61.235,44.2,100.773,89.094,131.608,36,24.727,79.159,40.476,124.3,42.185A215.15,215.15,0,0,0,308.654,397.745Z" fill="#f9ebc4"/>
      <g id="Group_3" data-name="Group 3">
        <path id="Path_4" data-name="Path 4" d="M161.523,275.733c.171-3.9.167-7.806.108-11.707-.049-3.32.374-6.641-.2-9.885-.643-3.661-1.673-7.241-2.165-10.932a61.881,61.881,0,0,1-.948-9.6c.06-2.349.806-3.365-1.231-5.277a53.177,53.177,0,0,1-12.955-19.012c-3.394-8.515-2.214-17.26-1.173-26.162.293-2.506.819-5.187,2.656-6.915a7.5,7.5,0,0,1,6.539-1.6,15.278,15.278,0,0,1,6.194,3.105c9.59,7.353,14.294,19.413,16.965,31.2,4.374,19.309,5.013,40.508-.152,59.68-.79,2.932-1.837,5.789-2.839,8.655-.774,2.215-1.63,4.41-2.362,6.639-.6,1.822-.744,3.552-2,5.139a7.885,7.885,0,0,1-2.45,2.073.538.538,0,0,1-.318.09.378.378,0,0,1-.276-.4,1.163,1.163,0,0,1,.19-.506c.639-1.119,2.185-2.855,2-4.246-.043-.323-.343-.629-.655-.545a.915.915,0,0,0-.476.473q-1.209,2.052-2.458,4.07c-.408.664-1.756,3.395-2.684,2.654s2.027-5.1,2.493-5.98c.387-.732,1.045-1.814.73-2.61a1.621,1.621,0,0,0-.935,1.054A23.937,23.937,0,0,1,161,289.556c-.376.523-.765,1.29-1.4.767s1.691-10.643,1.784-12.08Q161.468,276.989,161.523,275.733Z" fill="#df9f85"/>
        <path id="Path_5" data-name="Path 5" d="M105.716,388.529c-1.792,7.207-3.683,14.362-5.539,21.454-.581,2.218-1.251,4.584-2.958,6.038A5.356,5.356,0,0,1,90,415.562c-.436-.474.85-7.562.817-8.725C89.888,374.012,80.86,341,88.39,308.33c1.155-5.012,2.77-10.075,6-13.978,4.895-5.921,16.118,2.589,18.486,7.847,1.76,3.908,2.207,8.307,2.43,12.618C116.592,339.7,111.713,364.406,105.716,388.529Z" fill="#df9f85"/>
        <path id="Path_6" data-name="Path 6" d="M98.573,418.582a6.835,6.835,0,0,1-.878.923c-4.966,1.631-9.854,3.515-14.912,4.838l-1.775.463a3.137,3.137,0,0,1-3.727-1.763,2.464,2.464,0,0,1-.167-1.363A5.207,5.207,0,0,1,78.5,419.2a31.831,31.831,0,0,1,6.215-4.951,31.121,31.121,0,0,0,2.992-2.062,9.5,9.5,0,0,0,1.944-3.269c.252-.523.675-1.135,1.22-1,.452.114.629.674.73,1.148q.505,2.367,1.01,4.734c3.14-.167,5.243-1.965,7.92-2.766-.3,1.549-.348,3.125-.675,4.679A6.958,6.958,0,0,1,98.573,418.582Z"/>
        <path id="Path_7" data-name="Path 7" d="M151.169,396.259q-.335,1.974-.672,3.947c-.437,2.554-.392,9.238-1.923,11.183s-4.25,1.064-6.512,1.058a1.888,1.888,0,0,1-.931-.162c-.515-.289-.617-.98-.774-1.568-7.1-26.545-12.643-43.317-12.111-65.334.171-7.081.493-14.206,2.169-21.07,1.247-5.11,3.258-10.264,7.1-13.695,14.33-12.809,21.614,9.971,21.225,20.878a413.213,413.213,0,0,1-4.509,45.614C153.283,383.506,152.245,389.886,151.169,396.259Z" fill="#df9f85"/>
        <path id="Path_8" data-name="Path 8" d="M125.463,317.456c.294,11.575,1.687,22.754,2.187,34.309.562,13.019,2.906,25.886,5.244,38.7l2.7,14.794c1.205,6.61,10.115,3.364,14.886,2.077a353.753,353.753,0,0,0,11.5-64.651c.9-10.823,1.76-21.986,1.207-32.849-.469-9.192,0-18.911-1.24-28.118-1.915-14.191-7.961-30.327-24.035-30.366a10.837,10.837,0,0,0-3.2.449c-8.884,2.71-9.1,17.183-9.285,24.882Q124.935,297.068,125.463,317.456Z" fill="#b33e37"/>
        <g id="Group_2" data-name="Group 2">
          <g id="Group_1" data-name="Group 1" clip-path="url(#clip-path)">
            <path id="Path_9" data-name="Path 9" d="M118.319,340c2.576-13.531,5.9-26.851,7.98-40.672.9-5.984,1.8-11.979,2.152-18.025.687-11.8.268-42.614-12.622-47.177-3.067-1.086-6.841-.685-11.474,1.812-5.459,2.942-9.548,8.161-12.3,13.893-10.713,22.31-9,50.825-9.366,75.114a678.388,678.388,0,0,0,3.854,83.271,131.276,131.276,0,0,0,16.976,1.067,391.952,391.952,0,0,0,12.821-57.6C116.906,347.756,117.582,343.868,118.319,340Z" fill="#b33e37"/>
            <path id="Path_10" data-name="Path 10" d="M92.054,246.367c-5.136,25.676-7.422,114.051-1.237,160.47" fill="none" stroke="#fff" stroke-linecap="round" stroke-miterlimit="10" stroke-width="1"/>
          </g>
        </g>
        <path id="Path_12" data-name="Path 12" d="M163.387,222.093c-.128,16.59-1.524,33.376.062,49.9.175,1.836-39.878-1.282-43.539-1.457-1.279-.06-2.558-.142-3.837-.209-10.322-1.22-20.644-2.395-30.948-2.9C86.6,254.7,86.6,240.541,87.873,227.719c1.424-14.356,3.6-27.255,5.614-41.521,1.148-8.123-1.2-11.353,5.565-15.867,3.578-2.388,13.334-4.248,17.558-3.882.358.031,3.111.6,3.459.631a40.646,40.646,0,0,0,10.155-.617c1.6-.245,3.226-.41,4.849-.548,1.287-.109,2.432-.451,3.674-.617a19.681,19.681,0,0,1,9.234,1.559c5.565,2.275,8.048,6.787,9.846,12.051C162.623,192.942,163.5,207.441,163.387,222.093Z"/>
        <path id="Path_13" data-name="Path 13" d="M88.056,219.1q.449-.585.908-1.19a64.639,64.639,0,0,0,7.346-12.361,25.942,25.942,0,0,0,2.742-10.495c.011-4.352-3.766-14.305-8.956-14.632a7.206,7.206,0,0,0-4.214,1.461c-5.718,3.681-9.948,9.279-13.756,14.968q-4,5.983-7.564,12.266c-1.728,3.05-3.4,6.223-3.963,9.715a29.818,29.818,0,0,0,.619,10.219,241.827,241.827,0,0,0,7,27.2c1.419,4.53,2.93,9.032,4.5,13.514.774,2.215,1.631,4.41,2.362,6.638.6,1.823.744,3.552,1.995,5.139a7.87,7.87,0,0,0,2.45,2.073.536.536,0,0,0,.319.09.377.377,0,0,0,.276-.4,1.157,1.157,0,0,0-.191-.507c-.638-1.118-2.184-2.855-2-4.245.042-.324.343-.629.655-.546a.912.912,0,0,1,.475.474q1.21,2.05,2.458,4.069c.408.664,1.757,3.395,2.684,2.655.942-.752-2.027-5.1-2.493-5.98-.387-.732-1.045-1.814-.73-2.611a1.625,1.625,0,0,1,.936,1.054,23.846,23.846,0,0,0,2.132,4.366c.375.522.764,1.29,1.4.767.725-.6-.421-2.959-.649-3.55a12.911,12.911,0,0,1-1.214-3.5c-.019-.271.194-2.5.176-2.495.219-.071.372.047.467.276q.374.909.748,1.818c.318.772,1.027,1.705,1.522.549a3.537,3.537,0,0,0-.288-2.264c-.679-1.95-1.987-3.532-2.67-5.427a11.684,11.684,0,0,1-.5-3.474c-.4-9.386.29-19.465-1.271-28.736C80.537,228.756,83.915,224.5,88.056,219.1Z" fill="#df9f85"/>
        <path id="Path_14" data-name="Path 14" d="M111.616,203.628c5.8-7.778,10.582-15.384,8.141-26.364-3.744-16.842-18.121-8.977-28.079-2.651L74.34,185.625c4.9,8.884,9.4,22.308,16.377,29.612,6.054,6.339,12.962-.7,17.016-6.445C109.032,207.038,110.348,205.329,111.616,203.628Z"/>
        <path id="Path_15" data-name="Path 15" d="M140.245,144.613c-1.581,2.315-2.92,1.563-3.152,4.569a77.962,77.962,0,0,0,.274,10.633,7,7,0,0,0,1.153,4.166c.941,1.137,2.4,1.138,3.862,1.367-2.319,3.643-6.213,7.365-9.065,10.649a1.779,1.779,0,0,1-.9.667,1.828,1.828,0,0,1-1.219-.328q-4.619-2.542-9.175-5.19c-1.247-.725-6.624-5.055-8.1-4.549a12.229,12.229,0,0,0,2.832-1.326c4.163-2.764,3.936-7.67,3.662-12.061-.429-6.865-2.736-16.5.388-22.972a11.651,11.651,0,0,1,7.38-6.268,14.059,14.059,0,0,1,6.344-.273,8.023,8.023,0,0,1,2.893,1.182c.358.247.516.449.959.47a9.435,9.435,0,0,0,1.934-.356.608.608,0,0,1,.413.021.548.548,0,0,1,.2.258,6.5,6.5,0,0,1,.418,2.531c.215,5.459,2.251,11.548-.939,16.556C140.358,144.444,140.3,144.529,140.245,144.613Z" fill="#df9f85"/>
        <path id="Path_16" data-name="Path 16" d="M127.3,132.52a4.022,4.022,0,0,1,.29-.776c1.113-2.229,5.419-1.581,7.577-1.561a9.437,9.437,0,0,0,4.994-1.047,7.168,7.168,0,0,0,1.609-1.6,9.321,9.321,0,0,0,1.686-2.3,4.48,4.48,0,0,0,.207-3.6,2.956,2.956,0,0,0-2.934-1.842c-1.288.162-2.225,1.29-3.418,1.8a1.335,1.335,0,0,0,.444-1.876,2.047,2.047,0,0,0-1.909-.818,4.648,4.648,0,0,0-2.013.794,11.755,11.755,0,0,1-3.794,2.029c-1.392.267-2.859-.024-4.233.343a14.853,14.853,0,0,0-3.694,1.557,10.87,10.87,0,0,0-4.356,4.968c-1.384,3.2-.871,6.63.151,9.841q.544,1.718,1.1,3.432c.11.342.167.909.487,1.116.359.232,1.24-.008,1.593-.159a7.913,7.913,0,0,0,2.057-1.845c.856-.814,1.971-1.323,2.788-2.176C127.811,136.84,126.754,134.606,127.3,132.52Z" fill="#7f5287"/>
        <path id="Path_17" data-name="Path 17" d="M95.6,303.3V302.8" fill="#eaaf98"/>
        <path id="Path_18" data-name="Path 18" d="M141.392,417.049a7.116,7.116,0,0,0,.872.991c5.066,1.895,10.042,4.049,15.216,5.63l1.815.553a3.233,3.233,0,0,0,3.919-1.664,2.551,2.551,0,0,0,.225-1.4,5.4,5.4,0,0,0-1.335-2.619,33.083,33.083,0,0,0-6.227-5.378,32.206,32.206,0,0,1-3.01-2.257,9.846,9.846,0,0,1-1.881-3.459c-.24-.55-.653-1.2-1.221-1.082-.472.1-.677.669-.8,1.154l-1.227,4.848c-3.238-.3-5.34-2.252-8.074-3.193.249,1.613.238,3.243.515,4.862A7.23,7.23,0,0,0,141.392,417.049Z"/>
        <path id="Path_19" data-name="Path 19" d="M122.382,142.355a1.881,1.881,0,0,0,.588.153c1.548.129,3.45-2.226,4.053-3.4a2.951,2.951,0,0,0,.4-1.451,3.777,3.777,0,0,0-.419-1.361,2.53,2.53,0,0,0-.883-1.212,2.149,2.149,0,0,0-.976-.239c-2.524-.15-5.158.911-5.241,3.817A4.721,4.721,0,0,0,122.382,142.355Z" fill="#eb9d83"/>
        <path id="Path_20" data-name="Path 20" d="M124.346,137.534c-.532-.6-1.647-.182-1.96.55a3.469,3.469,0,0,0,.142,2.326"/>
        <path id="Path_21" data-name="Path 21" d="M60.57,219.456a2.735,2.735,0,0,0,1.293,3.188,8.149,8.149,0,0,0,3.618.944" fill="#2e2b2d"/>
        <path id="Path_22" data-name="Path 22" d="M126.116,313a56.3,56.3,0,0,1,2.261-9.372c.01-.078.021-.157.031-.235-.788-3.225-1.454-6.48-2.075-9.747-.059.438-.116.87-.168,1.272-.419,3.215-.773,6.444-1.184,9.662a25.488,25.488,0,0,0,1.041,8.47C126.058,313.039,126.082,313.01,126.116,313Z"/>
        <path id="Path_23" data-name="Path 23" d="M97.823,340.389a2.523,2.523,0,0,1-2.11,1.751,2.478,2.478,0,0,1-2.368-1.346"/>
        <path id="Path_24" data-name="Path 24" d="M133.555,147.13c.371.007.743.007,1.115,0a26.3,26.3,0,0,0,3.244-.27c-.109.016-.288.378-.336.466a1.664,1.664,0,0,0-.172.515,12.534,12.534,0,0,0-.2,1.339q-.143,1.8-.207,3.614a12.317,12.317,0,0,0-.98-1.579,19.632,19.632,0,0,0-1.356-1.612,13.037,13.037,0,0,0-3.124-2.6,6.111,6.111,0,0,1,.692.068c.27.019.542.034.813.044C133.212,147.121,133.384,147.126,133.555,147.13Z"/>
        <path id="Path_25" data-name="Path 25" d="M142.184,138.364c.064.345-4.216.736-4.475.757q-.471.039-.944.054a18.487,18.487,0,0,1-4.548-.422,5.464,5.464,0,0,1-2.648-1.2l-.036.084-.342-.349-2.92-2.979c-.536-.547-1.376.294-.84.841l3.174,3.237c.589.6.18,1.522.25,2.288a12.765,12.765,0,0,0,.382,2.143,6.817,6.817,0,0,0,1.631,3.057,5.17,5.17,0,0,0,3.791,1.626,6.705,6.705,0,0,0,4.156-1.024A9.017,9.017,0,0,0,142.184,138.364Z" fill="#fff"/>
        <path id="Path_26" data-name="Path 26" d="M167.608,182.537c5.122,8.714,7.2,18.831,9.195,28.739a79.982,79.982,0,0,1-23.221,8.842,241.692,241.692,0,0,0-8.333-40.8c-2.134-7.209-10.351-18.4,6.923-11.093C158.738,171.006,164.028,176.446,167.608,182.537Z"/>
        <path id="Path_27" data-name="Path 27" d="M90.961,215.225l1.93,2.335a117.385,117.385,0,0,0,15.519-15.7" fill="none" stroke="#b33e37" stroke-miterlimit="10" stroke-width="0.5"/>
        <path id="Path_28" data-name="Path 28" d="M163.206,217.634a75.926,75.926,0,0,0-3.046-18.955" fill="none" stroke="#b33e37" stroke-miterlimit="10" stroke-width="0.5"/>
      </g>
      <g id="Group_5" data-name="Group 5">
        <path id="Path_29" data-name="Path 29" d="M214.224,293.7A172.779,172.779,0,0,0,224.912,191c-.732-3.572-1.63-7.235-3.823-10.149-9.349-12.42-12.263,3.661-13.081,10.62a290.285,290.285,0,0,0,.173,69.066q1.043,8.517,2.588,16.961C211.373,280.793,215.4,290.987,214.224,293.7Z" fill="#df9f85"/>
        <g id="Group_4" data-name="Group 4">
          <path id="Path_30" data-name="Path 30" d="M211.818,399.369c-.151-4.129-.677-8.468-.747-12.737,1.441-.361,3.122-.345,4.568-.642,1.173-.242,3.262-.366,4.266-1.059.9-.623.948-1.948,2.457-1.639a2.6,2.6,0,0,1,1.826,1.845,7.369,7.369,0,0,1,.166,2.747c-.582,7.908-2.875,15.657-5.4,23.258-.764,2.3-3.066,2.049-4.988,2.211a7.134,7.134,0,0,1-1.3.03C212.324,408.718,211.99,404.055,211.818,399.369Z" fill="#df9f85"/>
          <path id="Path_31" data-name="Path 31" d="M235.379,334.419c.91,15.354-1.255,30.641-4.689,45.577-.82,3.569-1.5,7.318-2.673,10.792a72.679,72.679,0,0,0-19.808-.967c-.165-2.279.155-5.537.1-6.725q-.207-4.626-.4-9.251c-1.817-44.665-2-89.518,4.83-133.825.481-3.125,1.051-6.383,2.959-8.9,4.8-6.344,16.536-3.529,21.155,2.313,2.174,2.75,3.041,6.282,3.819,9.7,2.727,11.99,3.062,25.74,3.027,38.081a156.869,156.869,0,0,1-2.653,28.9C239.539,318.045,234.906,326.444,235.379,334.419Z" fill="#171616"/>
          <path id="Path_32" data-name="Path 32" d="M211.737,405.692l0,.045Z" fill="#282540"/>
          <path id="Path_33" data-name="Path 33" d="M211.526,403.426l.016.168Z" fill="#282540"/>
          <path id="Path_34" data-name="Path 34" d="M211.917,407.658c.011.11.02.217.03.325C211.937,407.875,211.928,407.767,211.917,407.658Z" fill="#282540"/>
        </g>
        <path id="Path_35" data-name="Path 35" d="M219.084,421.542a1.419,1.419,0,0,1-.3.576c-4.612-.32-9.221-.664-13.834-.97-3.139-.208-6.515-.731-9.887-1.012a1.494,1.494,0,0,1-.012-.395,2.547,2.547,0,0,1,1.19-1.506,19.3,19.3,0,0,1,7.584-2.967c1.71-.335,3.459-.549,5.176-.752-.114-1.832-.144-3.671-.088-5.506.049-1.59.391-3.285.283-4.853,4.217-.325,8.863.5,13.024,1.155q-.625,4.408-1.516,8.773C220.188,416.6,219.82,419.055,219.084,421.542Z" fill="#b33e37"/>
        <path id="Path_36" data-name="Path 36" d="M271.539,397.346q-2.079,8.471-4.542,16.831a1.925,1.925,0,0,1-2.5,1.817l-4.941-.569c.071-.974.116-1.948.15-2.923.011-.3.016-.6.023-.9q.025-1.041.026-2.083c0-.322,0-.644,0-.966q-.014-1.176-.056-2.352c-.007-.194-.009-.389-.017-.584-.039-.932-.093-1.864-.157-2.8-.025-.377-.057-.755-.086-1.132q-.069-.882-.15-1.765c-.039-.422-.079-.843-.123-1.264-.059-.576-.124-1.151-.191-1.727-.046-.392-.087-.785-.136-1.177v-.005C263.064,396.331,267.3,396.871,271.539,397.346Z" fill="#df9f85"/>
        <path id="Path_37" data-name="Path 37" d="M259.7,412.5c-.034.975-.079,1.949-.15,2.923C259.626,414.451,259.671,413.477,259.7,412.5Z" fill="#393d66"/>
        <path id="Path_38" data-name="Path 38" d="M259.521,402.82c.064.932.118,1.864.157,2.8C259.639,404.684,259.585,403.752,259.521,402.82Z" fill="#393d66"/>
        <path id="Path_39" data-name="Path 39" d="M259.7,406.2q.042,1.176.056,2.352Q259.738,407.376,259.7,406.2Z" fill="#393d66"/>
        <path id="Path_40" data-name="Path 40" d="M258.971,396.932c.067.576.132,1.151.191,1.727C259.1,398.083,259.038,397.508,258.971,396.932Z" fill="#393d66"/>
        <path id="Path_41" data-name="Path 41" d="M259.285,399.923q.081.882.15,1.765Q259.366,400.806,259.285,399.923Z" fill="#393d66"/>
        <path id="Path_42" data-name="Path 42" d="M267,414.177a2.569,2.569,0,0,1-1.082,1.711A2.569,2.569,0,0,0,267,414.177Z" fill="#393d66"/>
        <path id="Path_43" data-name="Path 43" d="M259.728,411.6q.025-1.041.026-2.083Q259.754,410.561,259.728,411.6Z" fill="#393d66"/>
        <path id="Path_44" data-name="Path 44" d="M259.162,398.659c.044.421.084.842.123,1.264C259.245,399.5,259.206,399.08,259.162,398.659Z" fill="#ea8056"/>
        <path id="Path_45" data-name="Path 45" d="M259.728,411.6c-.007.3-.012.6-.023.9C259.716,412.2,259.721,411.9,259.728,411.6Z" fill="#ea8056"/>
        <path id="Path_46" data-name="Path 46" d="M259.754,409.518c0-.322,0-.644,0-.966C259.754,408.874,259.754,409.2,259.754,409.518Z" fill="#ea8056"/>
        <path id="Path_47" data-name="Path 47" d="M218.254,232.466a11.058,11.058,0,0,1,3.872-6.181c4.049-3.356,9.506-5.078,14.67-5.692,6.319-.751,15.569-.144,20.06,4.689,8.438,9.08,13.239,21.1,15.274,33.324s1.468,24.739.282,37.077a82.014,82.014,0,0,0-.628,11.889,74.064,74.064,0,0,0,1.935,12.023c2.119,9.726,4.573,19.443,6.37,29.233,1.534,8.36-.68,18.739-1.395,27.273-.127,1.515-1.995,17.268-2.606,22.511-6.273-1.42-13.109-1.353-19.356-2.808-.391-3.879-.7-7.654-1.215-11.552-6.445-48.484-29.356-92.978-36.953-141.257C217.983,239.3,217.495,235.7,218.254,232.466Z" fill="#b33e37"/>
        <path id="Path_48" data-name="Path 48" d="M258.835,395.755c.049.392.09.785.136,1.177C258.925,396.54,258.884,396.147,258.835,395.755Z" fill="#ea8056"/>
        <path id="Path_49" data-name="Path 49" d="M259.435,401.688c.029.377.061.755.086,1.132C259.495,402.443,259.464,402.065,259.435,401.688Z" fill="#ea8056"/>
        <path id="Path_50" data-name="Path 50" d="M259.678,405.616c.008.2.01.39.017.584C259.688,406.006,259.686,405.811,259.678,405.616Z" fill="#ea8056"/>
        <path id="Path_51" data-name="Path 51" d="M269.045,419.364c-.053.459-.907,5.481-.518,5.455-.6.041-1.2.065-1.8.094q-8.551-.512-17.116-.795c-1.1-.155-2.2-.324-3.292-.52-.481-.087-1.04-.239-1.212-.7a1.238,1.238,0,0,1,.139-.957A6.668,6.668,0,0,1,248.85,419c.106-.044.213-.087.319-.129a19.274,19.274,0,0,1,8.286-1.277q.234-4.051.567-8.1a7.4,7.4,0,0,1,.516-2.561c.406-.86.79-.8,1.718-.824a43.662,43.662,0,0,1,5.469.3,43.425,43.425,0,0,1,4.86.506c-.149-.033-.883,6.486-.929,6.911C269.455,415.676,269.258,417.521,269.045,419.364Z" fill="#b33e37"/>
        <path id="Path_52" data-name="Path 52" d="M232.886,137.967c.035-.109-.17-.02-.181.093a1.851,1.851,0,0,0,1.707,1.811,5.753,5.753,0,0,0,2.722-.539" fill="#fff"/>
        <path id="Path_53" data-name="Path 53" d="M224.893,129.618c-.163,5.742,1.882,18.105,6.843,21.769,1.973,1.457,3.443,1.762,4.817,2.616a8.265,8.265,0,0,1,2.74,2.946c1.858,3.052,3.047,6.461,5.138,9.38,5.082,7.1,14.711,10.132,23.288,8.517s16.016-7.336,21.033-14.477c2.77-3.942,4.95-8.807,3.786-13.481-2.687-10.789-17.471-11.5-25.775-7.848a10.629,10.629,0,0,0,4.423-7.907,6.658,6.658,0,0,0-.571-3.378,6.42,6.42,0,0,0-3.078-2.813,12.282,12.282,0,0,0-8.055-.552,31.894,31.894,0,0,0-7.564,3.186c.069-1.492.61-3.022.145-4.441-.622-1.9-2.755-2.8-4.7-3.256a27.645,27.645,0,0,0-12.279-.087C230.154,120.885,225.054,123.991,224.893,129.618Z" fill="#171616"/>
        <path id="Path_54" data-name="Path 54" d="M214.49,206.27c-.162-8.129-1.136-16.12-1.8-24.207-.48-5.834.676-11.152,1.764-16.533.333-.185.67-.361,1.006-.534,6.878-3.544,13.005-7.454,20.805-7.436l19.07.043c2.715.006,5.556.043,7.9,1.329.184.1.346.232.52.346,2.037,17.127,9.107,34.786,7.279,52.055-1.039,9.814-9.708,17.482-6.194,26.129-1.181.176-2.378.444-3.51.618a221.339,221.339,0,0,1-27.073,1.971c-7.357.2-14.711.273-22.064.339A199.465,199.465,0,0,0,214.49,206.27Z" fill="#6ab1ba"/>
        <path id="Path_55" data-name="Path 55" d="M243.81,150.328a26.164,26.164,0,0,1,.594-7.408,18.265,18.265,0,0,0-6.035-17.528,8.3,8.3,0,0,0-4.921-2.083,17.2,17.2,0,0,0-6.426.6,2.05,2.05,0,0,0-1.191.694,2.144,2.144,0,0,0-.255,1.132c-.144,4.134-.451,8.781.732,12.782a10.888,10.888,0,0,0,2.144,4.2,9.261,9.261,0,0,1,1.237,1.473,5.231,5.231,0,0,1,.511,1.553,32.913,32.913,0,0,1,.386,9.118,3.363,3.363,0,0,1-1.85,3.52,14.182,14.182,0,0,1-3.285,1.445,16,16,0,0,0,1.633,1.916,13.249,13.249,0,0,0,2.545,1.515,13.862,13.862,0,0,0,7.607,1.773,14.82,14.82,0,0,0,6.117-.875,9.652,9.652,0,0,0,3.19-2.517,34.661,34.661,0,0,0,3.286-4.195,4.684,4.684,0,0,1-1.4.18,3.238,3.238,0,0,1-1.29-.451,5.111,5.111,0,0,1-1.918-1.929A11.9,11.9,0,0,1,243.81,150.328Z" fill="#df9f85"/>
        <path id="Path_56" data-name="Path 56" d="M223.972,122.551a6.468,6.468,0,0,1,1.85-1.381,12.021,12.021,0,0,1,5.218-1.09c2.972-.056,6.608-.322,9.288,1.177,3.181,1.78,5.883,4.295,8.7,6.573,2.39,1.932,5.734,7.32,3.413,10.389-1.756,2.322-5.8,1.415-7.656-.092-1.592-1.293-3.573-3.416-4.022-5.481-.2-.917-.428-1.969-1.253-2.414a3.069,3.069,0,0,0-.935-.271,19.994,19.994,0,0,0-4.714-.452c-2.058.129-4.036.891-6.093,1.031C222.426,130.9,221.083,125.681,223.972,122.551Z" fill="#171616"/>
        <path id="Path_57" data-name="Path 57" d="M243.543,132.118a3.342,3.342,0,0,1,3.385,3.368,3.632,3.632,0,0,1-3.493,3.487,3.343,3.343,0,0,1-3.385-3.369A3.631,3.631,0,0,1,243.543,132.118Z" fill="#eb9d83"/>
        <path id="Path_58" data-name="Path 58" d="M242.918,134.378a1.1,1.1,0,0,1,1.292.23,1.639,1.639,0,0,1,.447,1.489,1.763,1.763,0,0,1-1.015,1.233" fill="#171616"/>
        <path id="Path_59" data-name="Path 59" d="M229.471,144.045c-.159-.24-.367-.441-.523-.693a9.6,9.6,0,0,0,1.921,1.18,5.45,5.45,0,0,0,1.991.424,13.375,13.375,0,0,0,3.749-.508,37.383,37.383,0,0,1-6.435,3.527c-.075-.836-.189-1.665-.3-2.5a4.578,4.578,0,0,0-.263-1.169A1.639,1.639,0,0,0,229.471,144.045Z" fill="#171616"/>
        <path id="Path_60" data-name="Path 60" d="M273.324,222.744c-1.573-3.044-3.208-5.489-3.968-8.926q-.562-2.539-.989-5.107c-.222-1.338-.1-3.4-.673-4.614-1-2.1-3.362-4.416-4.738-6.414a73.807,73.807,0,0,1-5.078-8.341,77.187,77.187,0,0,1-6.476-17.866c-1.2-5.269-.048-12.044,6.315-13.1a10.6,10.6,0,0,1,7.885,2.306c3.041,2.278,5.844,5.628,8.363,8.46a90.13,90.13,0,0,1,8.356,10.778c6.2,9.56,9.952,21.46,9.135,32.92a13.417,13.417,0,0,1-2.061,7.036,10.094,10.094,0,0,1-6.711,3.748,21.982,21.982,0,0,1-7.832-.522C274.34,223,273.833,222.868,273.324,222.744Z" fill="#df9f85"/>
        <path id="Path_61" data-name="Path 61" d="M271.764,164.052a133.279,133.279,0,0,1,13.841,15.073l-28.365,9.181a39.183,39.183,0,0,1-6.556-19.579c-.265-4.823,1.562-10.557,7.03-11.626C262.794,156.109,268.381,160.894,271.764,164.052Z" fill="#6ab1ba"/>
        <path id="Path_62" data-name="Path 62" d="M287.052,207.825l3.432,57.205-56.061,1.144-1.144-57.205Z" fill="#fff"/>
        <path id="Path_63" data-name="Path 63" d="M252.188,161.608a18.191,18.191,0,0,0-3.059,4.728,31.944,31.944,0,0,0-2.308,8.441c-.8,5.284-.516,10.494-.628,15.789-.157,7.412.066,14.845.158,22.258.027,2.154.089,4.307.17,6.46a29.746,29.746,0,0,0-3.943.17c-.435-12.657.024-25.443.3-38.037.184-8.529,1.27-17.7,8.291-23.424a10.08,10.08,0,0,1,6.353-1.675,17.075,17.075,0,0,1,5.312,1.2,11.258,11.258,0,0,0-8.31,2.026A14.17,14.17,0,0,0,252.188,161.608Z" fill="#fff"/>
        <path id="Path_64" data-name="Path 64" d="M242.636,182.7a1.163,1.163,0,0,1,.569.5,9.893,9.893,0,0,1,1.171,2.2,1.639,1.639,0,0,0,.443.757c1.077.838,1.644-.859,1.538-1.634a10.476,10.476,0,0,1,2.938,6.743,4.684,4.684,0,0,0,.161,1.307,3.49,3.49,0,0,0,1.2,1.458c2.922,2.39,6.407,3.917,9.81,5.481,3.259,1.5,7.266,3.144,9.8,5.755a3.5,3.5,0,0,1,2.147-1.226c3.581-1,7.514-1.895,10.92-.4,3.313,1.454,5.35,4.88,6.41,8.34,1.793,5.856-.866,10.72-7.056,11.654a21.982,21.982,0,0,1-7.832-.522,54.488,54.488,0,0,1-16.668-6.622c-4.857-2.925-8.636-7.2-12.038-11.709a75.435,75.435,0,0,1-5.213-7.423c-1.184-2.046-1.326-4.925-1.443-7.322a10.611,10.611,0,0,1,1.983-6.674C241.753,182.969,242.179,182.56,242.636,182.7Z" fill="#df9f85"/>
        <path id="Path_65" data-name="Path 65" d="M221.856,191.11c-.071.653-.546,2.668-.791,4.364q-6.646-5.9-13.8-11.185c.011-.278.037-.557.075-.833l.024-.17a52.724,52.724,0,0,1,3.62-13.038,11.462,11.462,0,0,1,2.118-3.574,9.3,9.3,0,0,1,7.443-2.4c2.407.317,3.144,2.521,3.089,4.8-.116,4.86-2.089,6.939-2.547,11.776C220.853,183.343,222.128,188.622,221.856,191.11Z" fill="#6ab1ba"/>
        <path id="Path_66" data-name="Path 66" d="M213.93,188.075a116.439,116.439,0,0,1,1.149-13.434" fill="none" stroke="#000" stroke-miterlimit="10" stroke-width="0.5"/>
        <path id="Path_67" data-name="Path 67" d="M285.6,221.435a1.664,1.664,0,0,0,1.217-1.929,3.452,3.452,0,0,0-1.4-2.046" fill="#171616"/>
        <path id="Path_68" data-name="Path 68" d="M266.7,202.446a29.274,29.274,0,0,1,8.667,5.33" fill="none" stroke="#000" stroke-miterlimit="10" stroke-width="0.5"/>
      </g>
      <path id="Path_69" data-name="Path 69" d="M309.211,293.323a12.091,12.091,0,0,0,.153-2.183,1.156,1.156,0,0,0-.263-.852c-.824-.754-1.4,2.408-1.525,2.861-.534,1.855-.958,3.828-2.183,5.379a.979.979,0,0,1-.376.328.367.367,0,0,1-.447-.114.512.512,0,0,1-.041-.3c.119-1.451,1.088-2.746,1.145-4.2a1.012,1.012,0,0,0-.1-.561.429.429,0,0,0-.49-.209c-.2.077-.274.321-.32.531a16,16,0,0,1-1.993,5.4,1.207,1.207,0,0,1-.322.373.433.433,0,0,1-.466.032.606.606,0,0,1-.174-.563,12.918,12.918,0,0,1,.7-2.862,5.862,5.862,0,0,0,.3-2.9c-.051-.238-.189-.516-.432-.509s-.373.317-.426.567a24.443,24.443,0,0,0-.661,2.568,4.854,4.854,0,0,1-.776,2.17c-.124.186-.314.386-.531.337-.2-.045-.292-.277-.332-.479a6.52,6.52,0,0,1,.188-2.628c.219-1.048.32-2.136.438-3.2a.548.548,0,0,0-.077-.436.374.374,0,0,0-.536.081,1.086,1.086,0,0,0-.169.584q-.126,1.389-.253,2.778a.9.9,0,0,1-.09.377.309.309,0,0,1-.324.164c-.126-.033-.2-.166-.246-.286-1.283-3.045.018-6.509.81-9.536a63.019,63.019,0,0,1,3.609-10.438c.6-1.293,1.377-2.671,2.722-3.131,1.845-.631,3.21.845,3.54,2.558a8.986,8.986,0,0,1,.01,2.511l-.222,2.459a1.771,1.771,0,0,0,.032.7,2,2,0,0,0,.416.625c1.631,1.956,2.3,5.31,2.108,7.821a13.159,13.159,0,0,1-.585,2.668q-.288.984-.577,1.969a2.685,2.685,0,0,1-.709,1.363.561.561,0,0,1-.3.148.485.485,0,0,1-.465-.412,1.571,1.571,0,0,1,.065-.671C309.105,293.912,309.164,293.619,309.211,293.323Z" fill="#df9f85"/>
      <path id="Path_70" data-name="Path 70" d="M336.475,401.407c.618,3.361,1,5.516.962,5.52a48.378,48.378,0,0,0,6.33-.794c.08-5.106,3.1-9.988,3.674-15.026.733-6.453,2.876-12.895,4.086-19.3,2.493-13.2,3.806-26.858,1.245-40.159a7.488,7.488,0,0,1,.659-6.317c6.46-13.655,6.779-29.107,6-43.911a81.282,81.282,0,0,0-2.374-16.937c-1.434-5.315-4.208-10.907-9.368-12.823-4.435-1.647-9.611,0-13.119,3.171-6.6,5.975-8.137,17.455-9.131,25.941a130.806,130.806,0,0,0,.537,31.137,34.1,34.1,0,0,1,.417,6.656,50.3,50.3,0,0,1-.985,5.656c-1.915,10.071-.145,20.439,1.708,30.522C330,370.4,333.606,385.812,336.475,401.407Z" fill="#df9f85"/>
      <path id="Path_71" data-name="Path 71" d="M332.922,331.2c-1,1.036-.394,2.918.836,3.664a6.107,6.107,0,0,0,4.2.41"/>
      <path id="Path_72" data-name="Path 72" d="M364.184,288.213c-1.285,5.784-.788,11.8-.2,17.695,2.871,28.922,6.936,57.653,16.118,85.225.729,2.187,2.313,5.141,4.2,6.521a5.173,5.173,0,0,0,4.669.827c2.757-.972,3.769-4.284,4.31-7.158,3.209-17.052,4.211-35.949.849-53.08-1.361-6.934-2.426-12.913-1.853-19.981s.688-14.19,1.009-21.263c.211-4.442.4-9.023-1.119-13.2-2.106-5.781-7.869-10.265-14.261-10.107C370.019,273.884,365.741,281.208,364.184,288.213Z" fill="#df9f85"/>
      <path id="Path_73" data-name="Path 73" d="M388.443,393.677c-2.682-.265-5.462-.332-8.107-.854a65.271,65.271,0,0,0,1.31,6.4l1.518,7.538c.382,1.9,1.153,3.579,3,4.449a3.363,3.363,0,0,0,4.432-1.322c1.385-2.154,1.445-5.076,1.744-7.537l.753-6.206.257-2.114C391.7,393.948,390.062,393.836,388.443,393.677Z"/>
      <path id="Path_74" data-name="Path 74" d="M384.118,414.418a5.231,5.231,0,0,0,.462,1.217,7,7,0,0,0,1.914,2,64.809,64.809,0,0,0,10.854,6.906,2.243,2.243,0,0,0,1.434.349c1.125-.241,1.2-1.818.928-2.935A23.84,23.84,0,0,0,396,413.831c-1.26-1.771-2.827-3.529-2.975-5.7a17.02,17.02,0,0,0-.073-1.906A3.187,3.187,0,0,0,388.7,404c-1.725.863-2.192,2.717-2.767,4.391-4.127-.707-2.647,2.2-2.01,5.186C383.985,413.859,384.046,414.141,384.118,414.418Z" fill="#6ab1ba"/>
      <path id="Path_75" data-name="Path 75" d="M385.838,173.26q0-.9.009-1.8c.153-17.765-20.96-17.8-35.181-14.492C337,160.147,337.5,181.213,335.72,193.174c-.562,3.765-3.972,45.553-3.2,45.484a512.579,512.579,0,0,1,54.623-1.973C388.017,215.459,385.791,194.37,385.838,173.26Z" fill="#b33e37"/>
      <path id="Path_76" data-name="Path 76" d="M344.307,338.739a160.5,160.5,0,0,0,51.27-3.175c.985-.232,1.975-.447,2.964-.665,0-1.218.006-2.435,0-3.652-.07-13.188-.5-26.389-1.622-39.533-1.237-14.488-2.627-29.01-4.987-43.367-1.119-6.806-3.445-14.4-4.032-21.761a6.767,6.767,0,0,0-1.752-1.858c-1.715-1.2-3.92-1.38-6.009-1.5q-14.908-.884-29.853-.695c-3.024.039-6.126.126-8.926,1.269-7.6,3.1-11.1,10.753-13.1,17.612-2.885,9.857-3.514,23.99-5.4,34.086-.352,5.762-.6,11.524-.824,17.256-.134,3.481-.889,24.811-.738,42.312A176.475,176.475,0,0,0,344.307,338.739Z" fill="#6ab1ba"/>
      <path id="Path_77" data-name="Path 77" d="M361.094,151.385a7.071,7.071,0,0,1-.345-1.678,52.333,52.333,0,0,1-.163-6.915c.143-3.34.249-6.1-1.385-9.077a16.539,16.539,0,0,0-6.111-6.355,11.315,11.315,0,0,0-3.861-1.461c-3.266-.523-6.168,2.928-7.28,5.8a14.272,14.272,0,0,0,.583,10.883,10.206,10.206,0,0,0,2.677,3.8,16.94,16.94,0,0,0,2.025,1.315c.654.407.645.641.766,1.468.275,1.871.462,3.758.575,5.646.121,2-2.727,2.387-4.236,2.85a1.822,1.822,0,0,0-.693.33c-1.107.973,5.3,7.076,6.421,7.771a10.848,10.848,0,0,0,8.443,1.14c5.282-1.411,8.1-6.232,10.186-11l-1.548-.329C364.288,154.962,361.974,153.936,361.094,151.385Z" fill="#df9f85"/>
      <path id="Path_78" data-name="Path 78" d="M365.6,135.516a20.073,20.073,0,0,0-2.292-7.864,25.728,25.728,0,0,0-2.631-2.58,13.083,13.083,0,0,0-10.137-2.722,13.645,13.645,0,0,0-7.939,4.55c-.034.038-.069.075-.1.112a29.127,29.127,0,0,0-2.384,5.043,16.5,16.5,0,0,0,3.913.91c1.093.068,2.188.041,3.282.008.619-.019,2.2.183,2.711-.252a1.017,1.017,0,0,0,.2-.25l1.614-2.581-.951,2.919a7.91,7.91,0,0,0,2.893.1.575.575,0,0,0,.21-.128,1.026,1.026,0,0,0,.2-.572,3.674,3.674,0,0,1,.719-1.66c.81,1.116,1.565,2.308,2.426,3.381a16.441,16.441,0,0,0,1.636,1.484,2.445,2.445,0,0,1,.583,1.008,11.79,11.79,0,0,1,.3,1.185,22.333,22.333,0,0,1,.357,5.8c-.016.41.031.928.417,1.066.667.24,1.8-1.063,2.219-1.482a10.357,10.357,0,0,0,1.624-2.093A9.27,9.27,0,0,0,365.6,135.516Z"/>
      <path id="Path_79" data-name="Path 79" d="M351.137,141.5c1.131,2.579-4.172,4.418-5.347,1.652" fill="#fff"/>
      <path id="Path_80" data-name="Path 80" d="M359.136,133.147a3.187,3.187,0,0,1,3.828,2.758,3.927,3.927,0,0,1-3.1,4.1c-1.814.318-3.023-.849-3.139-2.738C356.617,135.416,357.192,133.489,359.136,133.147Z" fill="#eb9d83"/>
      <path id="Path_81" data-name="Path 81" d="M358.783,135.511a1.118,1.118,0,0,1,1.331,0,1.562,1.562,0,0,1,.634,1.406,1.906,1.906,0,0,1-.873,1.408"/>
      <path id="Path_82" data-name="Path 82" d="M348.238,150.868c-.018-.144.323-.264.415-.312.231-.123.453-.27.672-.413.556-.365,1.074-.782,1.6-1.181q1.377-1.047,2.648-2.223l.076-.07a1.98,1.98,0,0,1-.517.222c-.184.077-.37.152-.556.224-.373.143-.75.275-1.133.388a12.167,12.167,0,0,1-2.318.468,7.5,7.5,0,0,1-.791.052c-.12,0-.767.016-.822-.119a5.772,5.772,0,0,1,.235.562A15.93,15.93,0,0,1,348.238,150.868Z"/>
      <path id="Path_83" data-name="Path 83" d="M339.722,396.461c2.683-.265,5.463-.332,8.108-.854-.2,2.114-.9,4.344-1.31,6.4L345,409.547c-.383,1.9-1.153,3.578-3,4.449a3.364,3.364,0,0,1-4.432-1.322c-1.386-2.155-1.445-5.076-1.744-7.538l-.754-6.206-.256-2.114C336.463,396.732,338.1,396.621,339.722,396.461Z"/>
      <path id="Path_84" data-name="Path 84" d="M343.441,417.117a6.278,6.278,0,0,1-.825.83c-4.662,1.468-9.251,3.163-14,4.353l-1.666.416a2.985,2.985,0,0,1-3.5-1.586,2.132,2.132,0,0,1-.156-1.226,4.627,4.627,0,0,1,1.3-2.229,29.69,29.69,0,0,1,5.834-4.455,29.2,29.2,0,0,0,2.809-1.855,8.462,8.462,0,0,0,1.825-2.942c.236-.469.634-1.021,1.145-.9.425.1.591.606.686,1.032l.948,4.26c2.949-.15,4.923-1.768,7.436-2.489-.281,1.394-.326,2.812-.634,4.21A6.161,6.161,0,0,1,343.441,417.117Z" fill="#6ab1ba"/>
      <path id="Path_85" data-name="Path 85" d="M346.261,166.181a26.124,26.124,0,0,1,.305-6.6,23.57,23.57,0,0,1,.814-2.676c.053-.15.1-.3.157-.451a38.135,38.135,0,0,0-8.7,2.254,28.617,28.617,0,0,0-11.872,8.546c-6.971,8.01-11.673,18.148-14.859,28.188a187.407,187.407,0,0,0-5.736,24.817c-.969,5.613-10.19,58.527-7.948,58.966q8.388,1.644,16.573,4.081a79.7,79.7,0,0,1,2.38-16.636,65.192,65.192,0,0,0,17.7,5.108q4.38.7,8.707,1.414c.555-6.921.58-21.641.628-23.6q.248-10.2.5-20.406.459-18.894.92-37.788c.14-5.734.181-11.477.419-17.208.1-2.482.107-4.967.038-7.45C346.273,166.552,346.267,166.367,346.261,166.181Z" fill="#7f5287"/>
      <path id="Path_86" data-name="Path 86" d="M393.485,197.883c-.559-10.033,5.2-25.966-2.886-34.431-2.093-2.19-.373-2.209-3.254-3.143-5.889-1.908-17.931-6.025-24.118-6.046a13.273,13.273,0,0,1,5.323,7.247,39.244,39.244,0,0,1,1.33,10.24q.33,9.959.653,19.919c.426,13.276.822,26.553,1.116,39.833q.425,19.117.511,38.242c0,1-.007,2.029,0,3.048,5.95-.966,19.739-.48,25.81-6.353-.665-16.14-2.062-34.752-3.229-50.863C394.257,208.853,393.86,204.613,393.485,197.883Z" fill="#7f5287"/>
      <path id="Path_87" data-name="Path 87" d="M393.374,199.414c-.726-.51-1.03-2.246-1.268-3.067-.335-1.155-.594-2.331-.851-3.505l-1.521-6.941a28.151,28.151,0,0,1,3.085,3.971c.434.083.622-.1,1.056-.015-.028-.006-.313,4.671-.32,5.1q-.021,1.311.02,2.623C393.591,198.106,393.794,199.015,393.374,199.414Z"/>
      <path id="Path_88" data-name="Path 88" d="M317.278,266.945q4.546-34.481,10.977-68.677" fill="none" stroke="#171616" stroke-linecap="round" stroke-miterlimit="10" stroke-width="0.5"/>
      <path id="Path_89" data-name="Path 89" d="M329.931,187.653a46.863,46.863,0,0,1,3.479,5.6,34.165,34.165,0,0,0-6.2,9.051c.2-2.267.849-4.287,1.252-6.516q.373-2.068.748-4.135C329.318,191.037,330.261,188.108,329.931,187.653Z"/>
      <path id="Path_90" data-name="Path 90" d="M378.014,231.743a25.081,25.081,0,0,0,9.141,13.206" fill="none" stroke="#171616" stroke-linecap="round" stroke-miterlimit="10" stroke-width="0.5"/>
      <path id="Path_91" data-name="Path 91" d="M325.732,241.993a24.979,24.979,0,0,0,11.458-11.55" fill="none" stroke="#171616" stroke-linecap="round" stroke-miterlimit="10" stroke-width="0.5"/>
      <g id="Group_6" data-name="Group 6">
        <path id="Path_92" data-name="Path 92" d="M135.959,147.557a24.142,24.142,0,0,1-8.332-1.14c-2.978-1.044-7.459-3-7.564-6.732a1.658,1.658,0,0,0,.122.268,8.6,8.6,0,0,0,3.287,3.125,23.929,23.929,0,0,0,4.549,2.218,28.328,28.328,0,0,0,4.208,1.127,12.809,12.809,0,0,0,2.326.254c1.042,0,1.939-.691,2.987-.749a.268.268,0,0,1,.175.03.226.226,0,0,1,.082.135c.058.223,2.3-1.825,2.152-1.651s-.945,1.908-1.136,2.038A5.321,5.321,0,0,1,135.959,147.557Z" fill="#fff"/>
      </g>
      <path id="Path_93" data-name="Path 93" d="M135.18,135.472c0,.354-.211.641-.47.641s-.471-.287-.471-.641.211-.642.471-.642S135.18,135.117,135.18,135.472Z"/>
      <ellipse id="Ellipse_1" data-name="Ellipse 1" cx="0.47" cy="0.641" rx="0.47" ry="0.641" transform="translate(140.819 134.189)"/>
      <path id="Path_94" data-name="Path 94" d="M225.6,136.169c-.064.346,4.217.736,4.475.757q.471.039.944.054a18.482,18.482,0,0,0,4.548-.422,5.464,5.464,0,0,0,2.648-1.2l.036.084.342-.349,2.92-2.979c.536-.547,1.376.294.84.841l-3.174,3.237c-.589.6-.18,1.522-.25,2.288a12.765,12.765,0,0,1-.382,2.143,6.807,6.807,0,0,1-1.631,3.057,5.168,5.168,0,0,1-3.791,1.626,6.706,6.706,0,0,1-4.156-1.024A9.019,9.019,0,0,1,225.6,136.169Z" fill="#fff"/>
      <g id="Group_7" data-name="Group 7">
        <path id="Path_95" data-name="Path 95" d="M231.822,145.362a24.136,24.136,0,0,0,8.331-1.14,8.771,8.771,0,0,0,3.912-2.61,9.252,9.252,0,0,0,1.292-1.976c.2-.421.408-1.837.708-2.086a38.908,38.908,0,0,0-2.883,3.349,8.956,8.956,0,0,1-3.422,2.2,28.391,28.391,0,0,1-4.208,1.127,12.827,12.827,0,0,1-2.327.254c-1.041,0-1.939-.691-2.987-.749a.276.276,0,0,0-.175.03.226.226,0,0,0-.082.135c-.058.223-2.3-1.825-2.152-1.651s.946,1.908,1.136,2.038A5.323,5.323,0,0,0,231.822,145.362Z" fill="#fff"/>
      </g>
      <path id="Path_96" data-name="Path 96" d="M227.445,133.889a.795.795,0,1,1-.794-.8A.793.793,0,0,1,227.445,133.889Z" fill="#171616"/>
      <path id="Path_97" data-name="Path 97" d="M234.806,133.889a.795.795,0,1,1-.795-.8A.794.794,0,0,1,234.806,133.889Z" fill="#171616"/>
      <path id="Path_98" data-name="Path 98" d="M341.2,138.787c-.038.379,4.469.447,4.741.449q.5,0,.992-.02a14.6,14.6,0,0,0,5.74-1.229c2.1-1.027,3.363-3.106,4.81-4.9.514-.635,1.464.2.951.84q-1.521,1.881-3.04,3.764c-.6.749-.063,2.306-.091,3.205a8.527,8.527,0,0,1-1.633,5.081,5.335,5.335,0,0,1-3.824,2.072,6.841,6.841,0,0,1-4.431-.764C342.859,145.8,340.906,141.754,341.2,138.787Z" fill="#fff"/>
      <g id="Group_8" data-name="Group 8">
        <path id="Path_99" data-name="Path 99" d="M360.654,139.712l-.037.019a3.825,3.825,0,0,1-.367.135.692.692,0,0,0-.153.266,11.563,11.563,0,0,1-2.959,4.43c-1.312,1.22-3.388,1.681-5.1,2.138a13.938,13.938,0,0,1-2.495.474c-1.126.087-2.156-.582-3.294-.555-.387.01-.511.526-.289.788a1.36,1.36,0,0,0,.458.308,3.6,3.6,0,0,0,1.683.531,22.6,22.6,0,0,0,6.428-1.066,6.943,6.943,0,0,0,2.66-1.113,12.941,12.941,0,0,0,2.216-2.348,19.557,19.557,0,0,0,2.062-4.432A3.858,3.858,0,0,1,360.654,139.712Z" fill="#fff"/>
      </g>
      <path id="Path_100" data-name="Path 100" d="M409.663,214.462a2.506,2.506,0,0,0-.837-1.2,5.153,5.153,0,0,0-4.255-.911,8.9,8.9,0,0,0-1.551.448,26.446,26.446,0,0,0-3.788,2.026,20.139,20.139,0,0,1-1.893,1,6.411,6.411,0,0,1-.957.339,1.624,1.624,0,0,1-1.061.121,1.309,1.309,0,0,1-.578-.712c-.016.4-.025.731-.065,1.038a2.883,2.883,0,0,1-.647,1.5,6.331,6.331,0,0,1-2.079,1.742,21.309,21.309,0,0,1-8.985,2.676,6.15,6.15,0,0,0-1.329.138c-.413.111-1.686.882-.729,1.2a9.627,9.627,0,0,0,3.55.422c1.131-.063,2.442-.66,3.543-.391a3.105,3.105,0,0,1-2.6,1.372,17.734,17.734,0,0,1-3.728.059c-.488-.043-1.128-.016-1.277.452a.721.721,0,0,0,.377.789,1.97,1.97,0,0,0,.916.195,21.341,21.341,0,0,0,6.881-.841.535.535,0,0,1,.008.711,1.455,1.455,0,0,1-.659.409,15.4,15.4,0,0,1-4.891,1.006c-.336.013-.771.1-.824.427-.061.388.459.574.851.6a18.735,18.735,0,0,0,6.975-.925.531.531,0,0,1-.109.676,1.726,1.726,0,0,1-.667.33,6.936,6.936,0,0,0-2.743,1.381c-1.266,1.39,1.493.772,2.153.512a21.983,21.983,0,0,0,6.844-4.429,31.75,31.75,0,0,1,4.121-3.485c1.161-.722,2.453-1.2,3.675-1.817a18.523,18.523,0,0,0,5.139-3.834C409.221,216.653,409.969,215.557,409.663,214.462Z" fill="#df9f85"/>
      <path id="Path_101" data-name="Path 101" d="M435.712,198.573c-.9-5.38-6.078-11.209-9.3-14.343-5.249-5.112-11.448-9.087-17.47-13.205-5.505-3.764-12.119-6.432-18.114-9.349a9.868,9.868,0,0,0-4.592-1.362c-3.364.137-4.249,3.953-5.132,6.509a22.829,22.829,0,0,0-1.31,4.983c-.773,7.257,7.756,14.716,13.118,18.22,6.258,4.09,13.01,6.543,20.073,8.615,2.11.619,2.636,1.317.882,2.721s-3.885,2.493-5.736,3.8a120.272,120.272,0,0,0-10.476,8.284q1.272,6.123,2.543,12.246c12.673-3.424,24.98-9.036,33.239-19.655a12.116,12.116,0,0,0,2.081-3.643A8.161,8.161,0,0,0,435.712,198.573Z" fill="#7f5287"/>
      <path id="Path_102" data-name="Path 102" d="M355.525,120.763c5.312-3.817,12.641-5.794,18.417-2.724a16.874,16.874,0,0,1,7.105,8.219c3.242,7.254,2.665,16.432-2.548,22.429-2.111,2.43-5.7,4.318-8.466,2.667-2.353-1.407-2.808-4.565-3.015-7.3q-.48-6.364-.961-12.73a18.02,18.02,0,0,0-1.032-5.616,6.1,6.1,0,0,0-4.033-3.766c-3.872-.857-6.427,2.891-9.47,4.322C350.327,124.244,354.16,121.748,355.525,120.763Z"/>
      <path id="Path_103" data-name="Path 103" d="M358.033,122.573a11.432,11.432,0,0,0-3.881-1.17c-.141-.1-.292-.19-.423-.307a.608.608,0,0,0-.841,0,1.052,1.052,0,0,0,.2,1.411c.209,0,.416.031.625.048a6.793,6.793,0,0,0,4.025,1.126C358.286,123.655,358.587,122.857,358.033,122.573Z" fill="#b33e37"/>
      <path id="Path_104" data-name="Path 104" d="M351.086,136.808a.5.5,0,1,1-.5-.5A.5.5,0,0,1,351.086,136.808Z"/>
      <path id="Path_105" data-name="Path 105" d="M342.869,136.808a.5.5,0,1,1-.5-.5A.5.5,0,0,1,342.869,136.808Z"/>
    </g>
  </g>
</svg>
